<ttFont>
    <TTGlyph name=".notdef" xMin="102" yMin="0" xMax="1038" yMax="1516">
      <contour>
        <pt x="102" y="1516" on="1"/>
        <pt x="1038" y="1516" on="1"/>
        <pt x="1038" y="0" on="1"/>
        <pt x="102" y="0" on="1"/>
      </contour>
      <contour>
        <pt x="205" y="102" on="1"/>
        <pt x="936" y="102" on="1"/>
        <pt x="936" y="1413" on="1"/>
        <pt x="205" y="1413" on="1"/>
      </contour>
    </TTGlyph>
    <TTGlyph name="A" xMin="-150" yMin="0" xMax="1411" yMax="1516">
      <contour>
        <pt x="919" y="172" on="1"/>
        <pt x="1046" y="172" on="1"/>
        <pt x="1009" y="514" on="1"/>
        <pt x="435" y="514" on="1"/>
        <pt x="244" y="172" on="1"/>
        <pt x="380" y="172" on="1"/>
        <pt x="342" y="0" on="1"/>
        <pt x="-150" y="0" on="1"/>
        <pt x="-111" y="172" on="1"/>
        <pt x="20" y="172" on="1"/>
        <pt x="780" y="1516" on="1"/>
        <pt x="1103" y="1516" on="1"/>
        <pt x="1261" y="172" on="1"/>
        <pt x="1411" y="172" on="1"/>
        <pt x="1372" y="0" on="1"/>
        <pt x="880" y="0" on="1"/>
      </contour>
      <contour>
        <pt x="531" y="686" on="1"/>
        <pt x="990" y="686" on="1"/>
        <pt x="915" y="1374" on="1"/>
      </contour>
    </TTGlyph>
    <TTGlyph name="AE" xMin="-170" yMin="0" xMax="2086" yMax="1516">
      <contour>
        <pt x="-132" y="172" on="1"/>
        <pt x="-5" y="172" on="1"/>
        <pt x="985" y="1516" on="1"/>
        <pt x="2086" y="1516" on="1"/>
        <pt x="1986" y="1083" on="1"/>
        <pt x="1779" y="1083" on="1"/>
        <pt x="1841" y="1343" on="1"/>
        <pt x="1300" y="1343" on="1"/>
        <pt x="1189" y="858" on="1"/>
        <pt x="1636" y="858" on="1"/>
        <pt x="1593" y="686" on="1"/>
        <pt x="1150" y="686" on="1"/>
        <pt x="1032" y="172" on="1"/>
        <pt x="1566" y="172" on="1"/>
        <pt x="1628" y="434" on="1"/>
        <pt x="1837" y="434" on="1"/>
        <pt x="1736" y="0" on="1"/>
        <pt x="651" y="0" on="1"/>
        <pt x="690" y="172" on="1"/>
        <pt x="823" y="172" on="1"/>
        <pt x="902" y="514" on="1"/>
        <pt x="490" y="514" on="1"/>
        <pt x="238" y="172" on="1"/>
        <pt x="360" y="172" on="1"/>
        <pt x="321" y="0" on="1"/>
        <pt x="-170" y="0" on="1"/>
      </contour>
      <contour>
        <pt x="942" y="686" on="1"/>
        <pt x="1090" y="1328" on="1"/>
        <pt x="617" y="686" on="1"/>
      </contour>
    </TTGlyph>
    <TTGlyph name="Aacute" xMin="-150" yMin="0" xMax="1411" yMax="1956">
      <component glyphName="A" x="0" y="0" flags="0x204"/>
      <component glyphName="acute" x="731" y="479" flags="0x4"/>
    </TTGlyph>
    <TTGlyph name="Abreve" xMin="-150" yMin="0" xMax="1411" yMax="1959">
      <component glyphName="A" x="0" y="0" flags="0x204"/>
      <component glyphName="breve" x="510" y="480" flags="0x4"/>
    </TTGlyph>
    <TTGlyph name="Acircumflex" xMin="-150" yMin="0" xMax="1411" yMax="1923">
      <component glyphName="A" x="0" y="0" flags="0x204"/>
      <component glyphName="circumflex" x="500" y="479" flags="0x4"/>
    </TTGlyph>
    <TTGlyph name="Adieresis" xMin="-150" yMin="0" xMax="1411" yMax="1968">
      <component glyphName="A" x="0" y="0" flags="0x204"/>
      <component glyphName="dieresis" x="463" y="479" flags="0x4"/>
    </TTGlyph>
    <TTGlyph name="Agrave" xMin="-150" yMin="0" xMax="1411" yMax="1956">
      <component glyphName="A" x="0" y="0" flags="0x204"/>
      <component glyphName="grave" x="442" y="479" flags="0x4"/>
    </TTGlyph>
    <TTGlyph name="Amacron" xMin="-150" yMin="0" xMax="1411" yMax="1825">
      <component glyphName="A" x="0" y="0" flags="0x204"/>
      <component glyphName="macron" x="467" y="479" flags="0x4"/>
    </TTGlyph>
    <TTGlyph name="Aogonek" xMin="-150" yMin="-471" xMax="1411" yMax="1516">
      <contour>
        <pt x="-111" y="172" on="1"/>
        <pt x="20" y="172" on="1"/>
        <pt x="780" y="1516" on="1"/>
        <pt x="1104" y="1516" on="1"/>
        <pt x="1262" y="172" on="1"/>
        <pt x="1411" y="172" on="1"/>
        <pt x="1372" y="0" on="1"/>
        <pt x="1221" y="0" on="1"/>
        <pt x="1141" y="-4" on="0"/>
        <pt x="1016" y="-47" on="0"/>
        <pt x="930" y="-111" on="0"/>
        <pt x="885" y="-188" on="0"/>
        <pt x="885" y="-225" on="1"/>
        <pt x="885" y="-266" on="0"/>
        <pt x="946" y="-324" on="0"/>
        <pt x="997" y="-324" on="1"/>
        <pt x="1036" y="-324" on="0"/>
        <pt x="1106" y="-311" on="0"/>
        <pt x="1126" y="-301" on="1"/>
        <pt x="1169" y="-428" on="1"/>
        <pt x="1143" y="-444" on="0"/>
        <pt x="1049" y="-471" on="0"/>
        <pt x="991" y="-471" on="1"/>
        <pt x="930" y="-471" on="0"/>
        <pt x="827" y="-442" on="0"/>
        <pt x="754" y="-389" on="0"/>
        <pt x="711" y="-311" on="0"/>
        <pt x="711" y="-260" on="1"/>
        <pt x="711" y="-170" on="0"/>
        <pt x="813" y="-41" on="0"/>
        <pt x="881" y="0" on="1"/>
        <pt x="920" y="172" on="1"/>
        <pt x="1047" y="172" on="1"/>
        <pt x="1010" y="514" on="1"/>
        <pt x="434" y="514" on="1"/>
        <pt x="244" y="172" on="1"/>
        <pt x="381" y="172" on="1"/>
        <pt x="342" y="0" on="1"/>
        <pt x="-150" y="0" on="1"/>
      </contour>
      <contour>
        <pt x="530" y="686" on="1"/>
        <pt x="991" y="686" on="1"/>
        <pt x="915" y="1374" on="1"/>
      </contour>
    </TTGlyph>
    <TTGlyph name="Aring" xMin="-150" yMin="0" xMax="1411" yMax="1894">
      <contour>
        <pt x="920" y="172" on="1"/>
        <pt x="1047" y="172" on="1"/>
        <pt x="1010" y="514" on="1"/>
        <pt x="434" y="514" on="1"/>
        <pt x="244" y="172" on="1"/>
        <pt x="381" y="172" on="1"/>
        <pt x="342" y="0" on="1"/>
        <pt x="-150" y="0" on="1"/>
        <pt x="-111" y="172" on="1"/>
        <pt x="20" y="172" on="1"/>
        <pt x="754" y="1470" on="1"/>
        <pt x="725" y="1505" on="0"/>
        <pt x="690" y="1591" on="0"/>
        <pt x="690" y="1638" on="1"/>
        <pt x="690" y="1690" on="0"/>
        <pt x="731" y="1784" on="0"/>
        <pt x="801" y="1853" on="0"/>
        <pt x="893" y="1894" on="0"/>
        <pt x="946" y="1894" on="1"/>
        <pt x="997" y="1894" on="0"/>
        <pt x="1092" y="1853" on="0"/>
        <pt x="1161" y="1784" on="0"/>
        <pt x="1202" y="1690" on="0"/>
        <pt x="1202" y="1638" on="1"/>
        <pt x="1202" y="1579" on="0"/>
        <pt x="1153" y="1479" on="0"/>
        <pt x="1112" y="1444" on="1"/>
        <pt x="1262" y="172" on="1"/>
        <pt x="1411" y="172" on="1"/>
        <pt x="1372" y="0" on="1"/>
        <pt x="881" y="0" on="1"/>
      </contour>
      <contour>
        <pt x="530" y="686" on="1"/>
        <pt x="991" y="686" on="1"/>
        <pt x="915" y="1374" on="1"/>
      </contour>
      <contour>
        <pt x="842" y="1638" on="1"/>
        <pt x="842" y="1597" on="0"/>
        <pt x="905" y="1534" on="0"/>
        <pt x="946" y="1534" on="1"/>
        <pt x="987" y="1534" on="0"/>
        <pt x="1051" y="1597" on="0"/>
        <pt x="1051" y="1638" on="1"/>
        <pt x="1051" y="1679" on="0"/>
        <pt x="987" y="1743" on="0"/>
        <pt x="946" y="1743" on="1"/>
        <pt x="905" y="1743" on="0"/>
        <pt x="842" y="1679" on="0"/>
      </contour>
    </TTGlyph>
    <TTGlyph name="Atilde" xMin="-150" yMin="0" xMax="1411" yMax="1894">
      <component glyphName="A" x="0" y="0" flags="0x204"/>
      <component glyphName="tilde" x="494" y="479" flags="0x4"/>
    </TTGlyph>
    <TTGlyph name="B" xMin="75" yMin="0" xMax="1445" yMax="1516">
      <contour>
        <pt x="114" y="172" on="1"/>
        <pt x="248" y="172" on="1"/>
        <pt x="518" y="1343" on="1"/>
        <pt x="370" y="1343" on="1"/>
        <pt x="411" y="1516" on="1"/>
        <pt x="1089" y="1516" on="1"/>
        <pt x="1174" y="1516" on="0"/>
        <pt x="1307" y="1462" on="0"/>
        <pt x="1398" y="1365" on="0"/>
        <pt x="1445" y="1231" on="0"/>
        <pt x="1445" y="1151" on="1"/>
        <pt x="1445" y="1008" on="0"/>
        <pt x="1301" y="804" on="0"/>
        <pt x="1169" y="753" on="1"/>
        <pt x="1235" y="705" on="0"/>
        <pt x="1306" y="557" on="0"/>
        <pt x="1306" y="465" on="1"/>
        <pt x="1306" y="360" on="0"/>
        <pt x="1221" y="188" on="0"/>
        <pt x="1074" y="66" on="0"/>
        <pt x="876" y="0" on="0"/>
        <pt x="763" y="0" on="1"/>
        <pt x="75" y="0" on="1"/>
      </contour>
      <contour>
        <pt x="572" y="674" on="1"/>
        <pt x="457" y="172" on="1"/>
        <pt x="792" y="172" on="1"/>
        <pt x="859" y="172" on="0"/>
        <pt x="969" y="215" on="0"/>
        <pt x="1047" y="289" on="0"/>
        <pt x="1089" y="390" on="0"/>
        <pt x="1089" y="449" on="1"/>
        <pt x="1089" y="500" on="0"/>
        <pt x="1063" y="583" on="0"/>
        <pt x="1016" y="642" on="0"/>
        <pt x="949" y="674" on="0"/>
        <pt x="909" y="674" on="1"/>
      </contour>
      <contour>
        <pt x="725" y="1343" on="1"/>
        <pt x="612" y="848" on="1"/>
        <pt x="942" y="848" on="1"/>
        <pt x="1002" y="848" on="0"/>
        <pt x="1106" y="887" on="0"/>
        <pt x="1183" y="959" on="0"/>
        <pt x="1228" y="1059" on="0"/>
        <pt x="1228" y="1120" on="1"/>
        <pt x="1228" y="1167" on="0"/>
        <pt x="1206" y="1248" on="0"/>
        <pt x="1161" y="1308" on="0"/>
        <pt x="1093" y="1343" on="0"/>
        <pt x="1048" y="1343" on="1"/>
      </contour>
    </TTGlyph>
    <TTGlyph name="C" xMin="75" yMin="-25" xMax="1609" yMax="1544">
      <contour>
        <pt x="1394" y="322" on="1"/>
        <pt x="1336" y="240" on="0"/>
        <pt x="1194" y="111" on="0"/>
        <pt x="1024" y="22" on="0"/>
        <pt x="826" y="-25" on="0"/>
        <pt x="712" y="-25" on="1"/>
        <pt x="575" y="-25" on="0"/>
        <pt x="342" y="78" on="0"/>
        <pt x="172" y="260" on="0"/>
        <pt x="75" y="509" on="0"/>
        <pt x="75" y="655" on="1"/>
        <pt x="75" y="780" on="0"/>
        <pt x="134" y="1010" on="0"/>
        <pt x="242" y="1207" on="0"/>
        <pt x="396" y="1368" on="0"/>
        <pt x="587" y="1482" on="0"/>
        <pt x="810" y="1544" on="0"/>
        <pt x="933" y="1544" on="1"/>
        <pt x="1103" y="1544" on="0"/>
        <pt x="1368" y="1407" on="0"/>
        <pt x="1453" y="1286" on="1"/>
        <pt x="1609" y="1286" on="1"/>
        <pt x="1568" y="1114" on="1"/>
        <pt x="1292" y="1114" on="1"/>
        <pt x="1270" y="1165" on="0"/>
        <pt x="1197" y="1251" on="0"/>
        <pt x="1100" y="1312" on="0"/>
        <pt x="980" y="1346" on="0"/>
        <pt x="911" y="1346" on="1"/>
        <pt x="779" y="1346" on="0"/>
        <pt x="555" y="1239" on="0"/>
        <pt x="391" y="1055" on="0"/>
        <pt x="299" y="810" on="0"/>
        <pt x="299" y="672" on="1"/>
        <pt x="299" y="557" on="0"/>
        <pt x="371" y="372" on="0"/>
        <pt x="491" y="243" on="0"/>
        <pt x="649" y="174" on="0"/>
        <pt x="735" y="174" on="1"/>
        <pt x="886" y="174" on="0"/>
        <pt x="1115" y="299" on="0"/>
        <pt x="1202" y="424" on="1"/>
      </contour>
    </TTGlyph>
    <TTGlyph name="Cacute" xMin="75" yMin="-25" xMax="2534" yMax="2353">
      <component glyphName="C" x="0" y="0" flags="0x204"/>
      <component glyphName="acute" x="700" y="397" flags="0x4"/>
    </TTGlyph>
    <TTGlyph name="Ccaron" xMin="75" yMin="-25" xMax="1609" yMax="1923">
      <component glyphName="C" x="0" y="0" flags="0x204"/>
      <component glyphName="caron" x="684" y="479" flags="0x4"/>
    </TTGlyph>
    <TTGlyph name="Ccedilla" xMin="75" yMin="-432" xMax="1609" yMax="1544">
      <component glyphName="C" x="0" y="0" flags="0x204"/>
      <component glyphName="cedilla" x="369" y="0" flags="0x4"/>
    </TTGlyph>
    <TTGlyph name="D" xMin="75" yMin="0" xMax="1554" yMax="1516">
      <contour>
        <pt x="425" y="1516" on="1"/>
        <pt x="974" y="1516" on="1"/>
        <pt x="1107" y="1516" on="0"/>
        <pt x="1322" y="1415" on="0"/>
        <pt x="1473" y="1240" on="0"/>
        <pt x="1554" y="1006" on="0"/>
        <pt x="1554" y="874" on="1"/>
        <pt x="1554" y="743" on="0"/>
        <pt x="1491" y="512" on="0"/>
        <pt x="1376" y="317" on="0"/>
        <pt x="1212" y="164" on="0"/>
        <pt x="1012" y="57" on="0"/>
        <pt x="780" y="0" on="0"/>
        <pt x="653" y="0" on="1"/>
        <pt x="75" y="0" on="1"/>
        <pt x="114" y="172" on="1"/>
        <pt x="246" y="172" on="1"/>
        <pt x="516" y="1343" on="1"/>
        <pt x="385" y="1343" on="1"/>
      </contour>
      <contour>
        <pt x="723" y="1343" on="1"/>
        <pt x="455" y="172" on="1"/>
        <pt x="675" y="172" on="1"/>
        <pt x="758" y="172" on="0"/>
        <pt x="920" y="216" on="0"/>
        <pt x="1067" y="300" on="0"/>
        <pt x="1192" y="420" on="0"/>
        <pt x="1283" y="572" on="0"/>
        <pt x="1335" y="754" on="0"/>
        <pt x="1335" y="858" on="1"/>
        <pt x="1335" y="955" on="0"/>
        <pt x="1280" y="1130" on="0"/>
        <pt x="1179" y="1264" on="0"/>
        <pt x="1036" y="1343" on="0"/>
        <pt x="948" y="1343" on="1"/>
      </contour>
    </TTGlyph>
    <TTGlyph name="D_E" xMin="85" yMin="0" xMax="1984" yMax="1516">
      <contour>
        <pt x="814" y="0" on="1"/>
        <pt x="659" y="0" on="0"/>
        <pt x="393" y="119" on="0"/>
        <pt x="196" y="326" on="0"/>
        <pt x="85" y="604" on="0"/>
        <pt x="85" y="762" on="1"/>
        <pt x="85" y="918" on="0"/>
        <pt x="196" y="1194" on="0"/>
        <pt x="393" y="1397" on="0"/>
        <pt x="659" y="1516" on="0"/>
        <pt x="814" y="1516" on="1"/>
        <pt x="1984" y="1516" on="1"/>
        <pt x="1984" y="1087" on="1"/>
        <pt x="1779" y="1087" on="1"/>
        <pt x="1779" y="1343" on="1"/>
        <pt x="1238" y="1343" on="1"/>
        <pt x="1238" y="858" on="1"/>
        <pt x="1693" y="858" on="1"/>
        <pt x="1693" y="686" on="1"/>
        <pt x="1238" y="686" on="1"/>
        <pt x="1238" y="172" on="1"/>
        <pt x="1779" y="172" on="1"/>
        <pt x="1779" y="428" on="1"/>
        <pt x="1984" y="428" on="1"/>
        <pt x="1984" y="0" on="1"/>
      </contour>
      <contour>
        <pt x="294" y="762" on="1"/>
        <pt x="294" y="639" on="0"/>
        <pt x="374" y="424" on="0"/>
        <pt x="511" y="264" on="0"/>
        <pt x="698" y="172" on="0"/>
        <pt x="802" y="172" on="1"/>
        <pt x="1042" y="172" on="1"/>
        <pt x="1042" y="1343" on="1"/>
        <pt x="802" y="1343" on="1"/>
        <pt x="698" y="1343" on="0"/>
        <pt x="511" y="1253" on="0"/>
        <pt x="374" y="1096" on="0"/>
        <pt x="294" y="885" on="0"/>
        <pt x="294" y="762" on="1"/>
      </contour>
    </TTGlyph>
    <TTGlyph name="Dcaron" xMin="75" yMin="0" xMax="2285" yMax="2321">
      <component glyphName="D" x="0" y="0" flags="0x204"/>
      <component glyphName="caron" x="475" y="398" flags="0x4"/>
    </TTGlyph>
    <TTGlyph name="Dcroat" xMin="75" yMin="0" xMax="1554" yMax="1516">
      <component glyphName="Eth" x="0" y="0" flags="0x204"/>
    </TTGlyph>
    <TTGlyph name="E" xMin="75" yMin="0" xMax="1511" yMax="1516">
      <contour>
        <pt x="411" y="1516" on="1"/>
        <pt x="1511" y="1516" on="1"/>
        <pt x="1411" y="1083" on="1"/>
        <pt x="1204" y="1083" on="1"/>
        <pt x="1265" y="1343" on="1"/>
        <pt x="725" y="1343" on="1"/>
        <pt x="614" y="858" on="1"/>
        <pt x="1060" y="858" on="1"/>
        <pt x="1017" y="686" on="1"/>
        <pt x="575" y="686" on="1"/>
        <pt x="457" y="172" on="1"/>
        <pt x="991" y="172" on="1"/>
        <pt x="1052" y="434" on="1"/>
        <pt x="1261" y="434" on="1"/>
        <pt x="1161" y="0" on="1"/>
        <pt x="75" y="0" on="1"/>
        <pt x="114" y="172" on="1"/>
        <pt x="248" y="172" on="1"/>
        <pt x="518" y="1343" on="1"/>
        <pt x="370" y="1343" on="1"/>
      </contour>
    </TTGlyph>
    <TTGlyph name="Eacute" xMin="75" yMin="0" xMax="3832" yMax="2864">
      <component glyphName="E" x="0" y="0" flags="0x204"/>
      <component glyphName="acute" x="778" y="480" flags="0x4"/>
    </TTGlyph>
    <TTGlyph name="Ecaron" xMin="75" yMin="0" xMax="2981" yMax="2801">
      <component glyphName="E" x="0" y="0" flags="0x204"/>
      <component glyphName="caron" x="696" y="480" flags="0x4"/>
    </TTGlyph>
    <TTGlyph name="Ecircumflex" xMin="75" yMin="0" xMax="2192" yMax="2403">
      <component glyphName="E" x="0" y="0" flags="0x204"/>
      <component glyphName="circumflex" x="581" y="480" flags="0x4"/>
    </TTGlyph>
    <TTGlyph name="Edieresis" xMin="75" yMin="0" xMax="2137" yMax="2448">
      <component glyphName="E" x="0" y="0" flags="0x204"/>
      <component glyphName="dieresis" x="510" y="480" flags="0x4"/>
    </TTGlyph>
    <TTGlyph name="Edotaccent" xMin="75" yMin="-1253" xMax="1511" yMax="1516">
      <component glyphName="E" x="0" y="0" flags="0x204"/>
      <component glyphName="dotaccent" x="700" y="480" flags="0x4"/>
    </TTGlyph>
    <TTGlyph name="Egrave" xMin="75" yMin="0" xMax="1770" yMax="2436">
      <component glyphName="E" x="0" y="0" flags="0x4"/>
      <component glyphName="grave" x="489" y="480" flags="0x4"/>
    </TTGlyph>
    <TTGlyph name="Emacron" xMin="75" yMin="0" xMax="2124" yMax="2305">
      <component glyphName="E" x="0" y="0" flags="0x204"/>
      <component glyphName="macron" x="514" y="480" flags="0x4"/>
    </TTGlyph>
    <TTGlyph name="Eogonek" xMin="76" yMin="-471" xMax="1511" yMax="1516">
      <contour>
        <pt x="412" y="1516" on="1"/>
        <pt x="1511" y="1516" on="1"/>
        <pt x="1411" y="1083" on="1"/>
        <pt x="1204" y="1083" on="1"/>
        <pt x="1266" y="1343" on="1"/>
        <pt x="725" y="1343" on="1"/>
        <pt x="614" y="858" on="1"/>
        <pt x="1061" y="858" on="1"/>
        <pt x="1018" y="686" on="1"/>
        <pt x="575" y="686" on="1"/>
        <pt x="457" y="172" on="1"/>
        <pt x="991" y="172" on="1"/>
        <pt x="1053" y="434" on="1"/>
        <pt x="1262" y="434" on="1"/>
        <pt x="1161" y="0" on="1"/>
        <pt x="1143" y="0" on="1"/>
        <pt x="1069" y="-2" on="0"/>
        <pt x="952" y="-45" on="0"/>
        <pt x="870" y="-111" on="0"/>
        <pt x="825" y="-188" on="0"/>
        <pt x="825" y="-225" on="1"/>
        <pt x="825" y="-266" on="0"/>
        <pt x="887" y="-324" on="0"/>
        <pt x="938" y="-324" on="1"/>
        <pt x="977" y="-324" on="0"/>
        <pt x="1047" y="-311" on="0"/>
        <pt x="1067" y="-301" on="1"/>
        <pt x="1110" y="-428" on="1"/>
        <pt x="1083" y="-444" on="0"/>
        <pt x="989" y="-471" on="0"/>
        <pt x="932" y="-471" on="1"/>
        <pt x="870" y="-471" on="0"/>
        <pt x="768" y="-442" on="0"/>
        <pt x="694" y="-389" on="0"/>
        <pt x="651" y="-311" on="0"/>
        <pt x="651" y="-260" on="1"/>
        <pt x="651" y="-168" on="0"/>
        <pt x="733" y="-41" on="0"/>
        <pt x="799" y="0" on="1"/>
        <pt x="76" y="0" on="1"/>
        <pt x="115" y="172" on="1"/>
        <pt x="248" y="172" on="1"/>
        <pt x="518" y="1343" on="1"/>
        <pt x="371" y="1343" on="1"/>
      </contour>
    </TTGlyph>
    <TTGlyph name="Eth" xMin="75" yMin="0" xMax="1554" yMax="1516">
      <contour>
        <pt x="184" y="690" on="1"/>
        <pt x="223" y="862" on="1"/>
        <pt x="405" y="862" on="1"/>
        <pt x="516" y="1343" on="1"/>
        <pt x="385" y="1343" on="1"/>
        <pt x="425" y="1516" on="1"/>
        <pt x="974" y="1516" on="1"/>
        <pt x="1107" y="1516" on="0"/>
        <pt x="1322" y="1415" on="0"/>
        <pt x="1473" y="1240" on="0"/>
        <pt x="1554" y="1006" on="0"/>
        <pt x="1554" y="874" on="1"/>
        <pt x="1554" y="743" on="0"/>
        <pt x="1491" y="512" on="0"/>
        <pt x="1376" y="317" on="0"/>
        <pt x="1212" y="164" on="0"/>
        <pt x="1012" y="57" on="0"/>
        <pt x="780" y="0" on="0"/>
        <pt x="653" y="0" on="1"/>
        <pt x="75" y="0" on="1"/>
        <pt x="114" y="172" on="1"/>
        <pt x="246" y="172" on="1"/>
        <pt x="365" y="690" on="1"/>
      </contour>
      <contour>
        <pt x="723" y="1343" on="1"/>
        <pt x="613" y="862" on="1"/>
        <pt x="854" y="862" on="1"/>
        <pt x="815" y="690" on="1"/>
        <pt x="573" y="690" on="1"/>
        <pt x="455" y="172" on="1"/>
        <pt x="675" y="172" on="1"/>
        <pt x="758" y="172" on="0"/>
        <pt x="920" y="216" on="0"/>
        <pt x="1067" y="300" on="0"/>
        <pt x="1192" y="420" on="0"/>
        <pt x="1283" y="572" on="0"/>
        <pt x="1335" y="754" on="0"/>
        <pt x="1335" y="858" on="1"/>
        <pt x="1335" y="955" on="0"/>
        <pt x="1280" y="1130" on="0"/>
        <pt x="1179" y="1264" on="0"/>
        <pt x="1036" y="1343" on="0"/>
        <pt x="948" y="1343" on="1"/>
      </contour>
    </TTGlyph>
    <TTGlyph name="Euro" xMin="217" yMin="-25" xMax="1726" yMax="1544">
      <contour>
        <pt x="1470" y="1116" on="1"/>
        <pt x="1430" y="1231" on="0"/>
        <pt x="1257" y="1358" on="0"/>
        <pt x="1102" y="1358" on="1"/>
        <pt x="1006" y="1358" on="0"/>
        <pt x="827" y="1298" on="0"/>
        <pt x="672" y="1192" on="0"/>
        <pt x="547" y="1047" on="0"/>
        <pt x="504" y="961" on="1"/>
        <pt x="1122" y="961" on="1"/>
        <pt x="971" y="774" on="1"/>
        <pt x="440" y="774" on="1"/>
        <pt x="436" y="743" on="0"/>
        <pt x="428" y="684" on="0"/>
        <pt x="428" y="653" on="1"/>
        <pt x="1053" y="653" on="1"/>
        <pt x="901" y="467" on="1"/>
        <pt x="453" y="467" on="1"/>
        <pt x="492" y="336" on="0"/>
        <pt x="678" y="164" on="0"/>
        <pt x="825" y="164" on="1"/>
        <pt x="911" y="164" on="0"/>
        <pt x="1061" y="205" on="0"/>
        <pt x="1192" y="289" on="0"/>
        <pt x="1313" y="412" on="0"/>
        <pt x="1372" y="494" on="1"/>
        <pt x="1532" y="412" on="1"/>
        <pt x="1464" y="313" on="0"/>
        <pt x="1300" y="154" on="0"/>
        <pt x="1112" y="39" on="0"/>
        <pt x="899" y="-25" on="0"/>
        <pt x="782" y="-25" on="1"/>
        <pt x="649" y="-25" on="0"/>
        <pt x="438" y="74" on="0"/>
        <pt x="293" y="242" on="0"/>
        <pt x="217" y="467" on="0"/>
        <pt x="217" y="596" on="1"/>
        <pt x="217" y="780" on="0"/>
        <pt x="369" y="1124" on="0"/>
        <pt x="623" y="1386" on="0"/>
        <pt x="961" y="1544" on="0"/>
        <pt x="1145" y="1544" on="1"/>
        <pt x="1239" y="1544" on="0"/>
        <pt x="1386" y="1509" on="0"/>
        <pt x="1503" y="1444" on="0"/>
        <pt x="1593" y="1352" on="0"/>
        <pt x="1630" y="1294" on="1"/>
        <pt x="1726" y="1294" on="1"/>
        <pt x="1686" y="1116" on="1"/>
      </contour>
    </TTGlyph>
    <TTGlyph name="F" xMin="75" yMin="0" xMax="1509" yMax="1516">
      <contour>
        <pt x="407" y="1516" on="1"/>
        <pt x="1509" y="1516" on="1"/>
        <pt x="1411" y="1087" on="1"/>
        <pt x="1214" y="1087" on="1"/>
        <pt x="1271" y="1343" on="1"/>
        <pt x="721" y="1343" on="1"/>
        <pt x="610" y="856" on="1"/>
        <pt x="1132" y="856" on="1"/>
        <pt x="1093" y="684" on="1"/>
        <pt x="570" y="684" on="1"/>
        <pt x="453" y="172" on="1"/>
        <pt x="606" y="172" on="1"/>
        <pt x="567" y="0" on="1"/>
        <pt x="75" y="0" on="1"/>
        <pt x="114" y="172" on="1"/>
        <pt x="244" y="172" on="1"/>
        <pt x="514" y="1343" on="1"/>
        <pt x="366" y="1343" on="1"/>
      </contour>
    </TTGlyph>
    <TTGlyph name="G" xMin="75" yMin="-25" xMax="1609" yMax="1544">
      <contour>
        <pt x="1155" y="0" on="1"/>
        <pt x="1205" y="222" on="1"/>
        <pt x="1113" y="96" on="0"/>
        <pt x="860" y="-25" on="0"/>
        <pt x="712" y="-25" on="1"/>
        <pt x="575" y="-25" on="0"/>
        <pt x="341" y="80" on="0"/>
        <pt x="171" y="264" on="0"/>
        <pt x="75" y="512" on="0"/>
        <pt x="75" y="655" on="1"/>
        <pt x="75" y="779" on="0"/>
        <pt x="133" y="1007" on="0"/>
        <pt x="241" y="1205" on="0"/>
        <pt x="394" y="1366" on="0"/>
        <pt x="585" y="1481" on="0"/>
        <pt x="809" y="1544" on="0"/>
        <pt x="933" y="1544" on="1"/>
        <pt x="1028" y="1544" on="0"/>
        <pt x="1190" y="1500" on="0"/>
        <pt x="1322" y="1428" on="0"/>
        <pt x="1421" y="1335" on="0"/>
        <pt x="1453" y="1286" on="1"/>
        <pt x="1609" y="1286" on="1"/>
        <pt x="1568" y="1114" on="1"/>
        <pt x="1292" y="1114" on="1"/>
        <pt x="1270" y="1165" on="0"/>
        <pt x="1197" y="1251" on="0"/>
        <pt x="1100" y="1312" on="0"/>
        <pt x="980" y="1346" on="0"/>
        <pt x="911" y="1346" on="1"/>
        <pt x="821" y="1346" on="0"/>
        <pt x="661" y="1298" on="0"/>
        <pt x="525" y="1209" on="0"/>
        <pt x="416" y="1086" on="0"/>
        <pt x="340" y="936" on="0"/>
        <pt x="299" y="764" on="0"/>
        <pt x="299" y="672" on="1"/>
        <pt x="299" y="563" on="0"/>
        <pt x="368" y="380" on="0"/>
        <pt x="486" y="248" on="0"/>
        <pt x="645" y="174" on="0"/>
        <pt x="735" y="174" on="1"/>
        <pt x="826" y="174" on="0"/>
        <pt x="987" y="225" on="0"/>
        <pt x="1120" y="322" on="0"/>
        <pt x="1224" y="461" on="0"/>
        <pt x="1258" y="549" on="1"/>
        <pt x="835" y="549" on="1"/>
        <pt x="876" y="725" on="1"/>
        <pt x="1519" y="725" on="1"/>
        <pt x="1355" y="0" on="1"/>
      </contour>
    </TTGlyph>
    <TTGlyph name="Gamma" xMin="74" yMin="0" xMax="1477" yMax="1516">
      <component glyphName="uni0413" x="0" y="0" flags="0x204"/>
    </TTGlyph>
    <TTGlyph name="Gbreve" xMin="75" yMin="-25" xMax="2180" yMax="2438">
      <component glyphName="G" x="0" y="0" flags="0x204"/>
      <component glyphName="breve" x="504" y="479" flags="0x4"/>
    </TTGlyph>
    <TTGlyph name="Gcommaaccent" xMin="75" yMin="-473" xMax="1609" yMax="1544">
      <component glyphName="G" x="0" y="0" flags="0x204"/>
      <component glyphName="commabelow" x="510" y="0" flags="0x4"/>
    </TTGlyph>
    <TTGlyph name="H" xMin="75" yMin="0" xMax="1968" yMax="1516">
      <contour>
        <pt x="1476" y="1516" on="1"/>
        <pt x="1968" y="1516" on="1"/>
        <pt x="1927" y="1343" on="1"/>
        <pt x="1790" y="1343" on="1"/>
        <pt x="1522" y="172" on="1"/>
        <pt x="1671" y="172" on="1"/>
        <pt x="1632" y="0" on="1"/>
        <pt x="1140" y="0" on="1"/>
        <pt x="1179" y="172" on="1"/>
        <pt x="1313" y="172" on="1"/>
        <pt x="1439" y="717" on="1"/>
        <pt x="582" y="717" on="1"/>
        <pt x="457" y="172" on="1"/>
        <pt x="606" y="172" on="1"/>
        <pt x="567" y="0" on="1"/>
        <pt x="75" y="0" on="1"/>
        <pt x="114" y="172" on="1"/>
        <pt x="248" y="172" on="1"/>
        <pt x="518" y="1343" on="1"/>
        <pt x="370" y="1343" on="1"/>
        <pt x="411" y="1516" on="1"/>
        <pt x="903" y="1516" on="1"/>
        <pt x="862" y="1343" on="1"/>
        <pt x="725" y="1343" on="1"/>
        <pt x="620" y="885" on="1"/>
        <pt x="1478" y="885" on="1"/>
        <pt x="1583" y="1343" on="1"/>
        <pt x="1435" y="1343" on="1"/>
      </contour>
    </TTGlyph>
    <TTGlyph name="I" xMin="75" yMin="0" xMax="917" yMax="1516">
      <contour>
        <pt x="425" y="1516" on="1"/>
        <pt x="917" y="1516" on="1"/>
        <pt x="876" y="1343" on="1"/>
        <pt x="735" y="1343" on="1"/>
        <pt x="467" y="172" on="1"/>
        <pt x="606" y="172" on="1"/>
        <pt x="567" y="0" on="1"/>
        <pt x="75" y="0" on="1"/>
        <pt x="114" y="172" on="1"/>
        <pt x="258" y="172" on="1"/>
        <pt x="528" y="1343" on="1"/>
        <pt x="385" y="1343" on="1"/>
      </contour>
    </TTGlyph>
    <TTGlyph name="Iacute" xMin="1275" yMin="0" xMax="4874" yMax="3344">
      <component glyphName="I" x="0" y="0" flags="0x204"/>
      <component glyphName="acute" x="530" y="480" flags="0x4"/>
    </TTGlyph>
    <TTGlyph name="Icircumflex" xMin="446" yMin="0" xMax="2117" yMax="1924">
      <component glyphName="I" x="0" y="0" flags="0x204"/>
      <component glyphName="circumflex.i" x="299" y="480" flags="0x4"/>
    </TTGlyph>
    <TTGlyph name="Idieresis" xMin="416" yMin="0" xMax="2117" yMax="1969">
      <component glyphName="I" x="0" y="0" flags="0x204"/>
      <component glyphName="dieresis.i" x="185" y="480" flags="0x4"/>
    </TTGlyph>
    <TTGlyph name="Idotaccent" xMin="1275" yMin="-294" xMax="3112" yMax="1516">
      <component glyphName="I" x="0" y="0" flags="0x204"/>
      <component glyphName="dotaccent" x="426" y="480" flags="0x4"/>
    </TTGlyph>
    <TTGlyph name="Igrave" xMin="1275" yMin="0" xMax="2218" yMax="2916">
      <component glyphName="I" x="0" y="0" flags="0x204"/>
      <component glyphName="grave" x="225" y="480" flags="0x4"/>
    </TTGlyph>
    <TTGlyph name="Imacron" xMin="1275" yMin="0" xMax="2572" yMax="2785">
      <component glyphName="I" x="0" y="0" flags="0x204"/>
      <component glyphName="macron" x="200" y="480" flags="0x4"/>
    </TTGlyph>
    <TTGlyph name="Iogonek" xMin="-76" yMin="-471" xMax="918" yMax="1516">
      <contour>
        <pt x="426" y="1516" on="1"/>
        <pt x="918" y="1516" on="1"/>
        <pt x="877" y="1343" on="1"/>
        <pt x="735" y="1343" on="1"/>
        <pt x="467" y="172" on="1"/>
        <pt x="606" y="172" on="1"/>
        <pt x="567" y="0" on="1"/>
        <pt x="428" y="0" on="1"/>
        <pt x="367" y="0" on="0"/>
        <pt x="248" y="-37" on="0"/>
        <pt x="156" y="-100" on="0"/>
        <pt x="98" y="-182" on="0"/>
        <pt x="98" y="-225" on="1"/>
        <pt x="98" y="-266" on="0"/>
        <pt x="160" y="-324" on="0"/>
        <pt x="211" y="-324" on="1"/>
        <pt x="250" y="-324" on="0"/>
        <pt x="319" y="-311" on="0"/>
        <pt x="340" y="-301" on="1"/>
        <pt x="383" y="-428" on="1"/>
        <pt x="356" y="-444" on="0"/>
        <pt x="262" y="-471" on="0"/>
        <pt x="205" y="-471" on="1"/>
        <pt x="143" y="-471" on="0"/>
        <pt x="41" y="-442" on="0"/>
        <pt x="-33" y="-389" on="0"/>
        <pt x="-76" y="-311" on="0"/>
        <pt x="-76" y="-260" on="1"/>
        <pt x="-76" y="-174" on="0"/>
        <pt x="14" y="-45" on="0"/>
        <pt x="76" y="0" on="1"/>
        <pt x="115" y="172" on="1"/>
        <pt x="258" y="172" on="1"/>
        <pt x="528" y="1343" on="1"/>
        <pt x="385" y="1343" on="1"/>
      </contour>
    </TTGlyph>
    <TTGlyph name="J" xMin="-75" yMin="-238" xMax="881" yMax="1516">
      <contour>
        <pt x="390" y="1516" on="1"/>
        <pt x="881" y="1516" on="1"/>
        <pt x="840" y="1343" on="1"/>
        <pt x="699" y="1343" on="1"/>
        <pt x="428" y="172" on="1"/>
        <pt x="414" y="130" on="0"/>
        <pt x="320" y="7" on="0"/>
        <pt x="180" y="-154" on="0"/>
        <pt x="93" y="-238" on="1"/>
        <pt x="-75" y="-223" on="1"/>
        <pt x="5" y="-133" on="0"/>
        <pt x="125" y="24" on="0"/>
        <pt x="224" y="167" on="0"/>
        <pt x="236" y="205" on="1"/>
        <pt x="499" y="1343" on="1"/>
        <pt x="349" y="1343" on="1"/>
      </contour>
    </TTGlyph>
    <TTGlyph name="K" xMin="75" yMin="0" xMax="1820" yMax="1516">
      <contour>
        <pt x="1390" y="1343" on="1"/>
        <pt x="1431" y="1516" on="1"/>
        <pt x="1820" y="1516" on="1"/>
        <pt x="1779" y="1343" on="1"/>
        <pt x="1685" y="1343" on="1"/>
        <pt x="848" y="754" on="1"/>
        <pt x="1316" y="172" on="1"/>
        <pt x="1474" y="172" on="1"/>
        <pt x="1435" y="0" on="1"/>
        <pt x="1028" y="0" on="1"/>
        <pt x="1067" y="172" on="1"/>
        <pt x="598" y="774" on="1"/>
      </contour>
      <contour>
        <pt x="411" y="1516" on="1"/>
        <pt x="903" y="1516" on="1"/>
        <pt x="862" y="1343" on="1"/>
        <pt x="725" y="1343" on="1"/>
        <pt x="457" y="172" on="1"/>
        <pt x="606" y="172" on="1"/>
        <pt x="567" y="0" on="1"/>
        <pt x="75" y="0" on="1"/>
        <pt x="114" y="172" on="1"/>
        <pt x="248" y="172" on="1"/>
        <pt x="518" y="1343" on="1"/>
        <pt x="370" y="1343" on="1"/>
      </contour>
    </TTGlyph>
    <TTGlyph name="Kcommaaccent" xMin="75" yMin="-473" xMax="1820" yMax="1516">
      <component glyphName="K" x="0" y="0" flags="0x4"/>
      <component glyphName="commabelow" x="550" y="0" flags="0x4"/>
    </TTGlyph>
    <TTGlyph name="L" xMin="75" yMin="0" xMax="1308" yMax="1516">
      <contour>
        <pt x="411" y="1516" on="1"/>
        <pt x="903" y="1516" on="1"/>
        <pt x="862" y="1343" on="1"/>
        <pt x="725" y="1343" on="1"/>
        <pt x="457" y="172" on="1"/>
        <pt x="962" y="172" on="1"/>
        <pt x="1005" y="172" on="0"/>
        <pt x="1052" y="218" on="0"/>
        <pt x="1060" y="252" on="1"/>
        <pt x="1107" y="449" on="1"/>
        <pt x="1308" y="449" on="1"/>
        <pt x="1204" y="0" on="1"/>
        <pt x="75" y="0" on="1"/>
        <pt x="114" y="172" on="1"/>
        <pt x="248" y="172" on="1"/>
        <pt x="518" y="1343" on="1"/>
        <pt x="370" y="1343" on="1"/>
      </contour>
    </TTGlyph>
    <TTGlyph name="Lacute" xMin="75" yMin="0" xMax="5602" yMax="3741">
      <component glyphName="L" x="0" y="0" flags="0x204"/>
      <component glyphName="acute" x="480" y="397" flags="0x4"/>
    </TTGlyph>
    <TTGlyph name="Lcaron" xMin="75" yMin="0" xMax="2446" yMax="1531">
      <component glyphName="L" x="0" y="0" flags="0x204"/>
      <component glyphName="quotesingle" x="856" y="-50" flags="0x4"/>
    </TTGlyph>
    <TTGlyph name="Lcommaaccent" xMin="75" yMin="-473" xMax="2149" yMax="1516">
      <component glyphName="L" x="0" y="0" flags="0x204"/>
      <component glyphName="commabelow" x="425" y="0" flags="0x4"/>
    </TTGlyph>
    <TTGlyph name="Lslash" xMin="76" yMin="0" xMax="1309" yMax="1516">
      <contour>
        <pt x="412" y="1516" on="1"/>
        <pt x="903" y="1516" on="1"/>
        <pt x="862" y="1343" on="1"/>
        <pt x="725" y="1343" on="1"/>
        <pt x="637" y="956" on="1"/>
        <pt x="1104" y="1208" on="1"/>
        <pt x="1049" y="973" on="1"/>
        <pt x="584" y="723" on="1"/>
        <pt x="457" y="172" on="1"/>
        <pt x="963" y="172" on="1"/>
        <pt x="1006" y="172" on="0"/>
        <pt x="1053" y="217" on="0"/>
        <pt x="1061" y="252" on="1"/>
        <pt x="1108" y="449" on="1"/>
        <pt x="1309" y="449" on="1"/>
        <pt x="1204" y="0" on="1"/>
        <pt x="76" y="0" on="1"/>
        <pt x="115" y="172" on="1"/>
        <pt x="248" y="172" on="1"/>
        <pt x="346" y="596" on="1"/>
        <pt x="84" y="455" on="1"/>
        <pt x="139" y="690" on="1"/>
        <pt x="401" y="829" on="1"/>
        <pt x="518" y="1343" on="1"/>
        <pt x="371" y="1343" on="1"/>
      </contour>
    </TTGlyph>
    <TTGlyph name="M" xMin="75" yMin="0" xMax="2324" yMax="1516">
      <contour>
        <pt x="114" y="172" on="1"/>
        <pt x="250" y="172" on="1"/>
        <pt x="520" y="1343" on="1"/>
        <pt x="370" y="1343" on="1"/>
        <pt x="411" y="1516" on="1"/>
        <pt x="870" y="1516" on="1"/>
        <pt x="1067" y="215" on="1"/>
        <pt x="1851" y="1516" on="1"/>
        <pt x="2324" y="1516" on="1"/>
        <pt x="2283" y="1343" on="1"/>
        <pt x="2146" y="1343" on="1"/>
        <pt x="1876" y="172" on="1"/>
        <pt x="2035" y="172" on="1"/>
        <pt x="1996" y="0" on="1"/>
        <pt x="1505" y="0" on="1"/>
        <pt x="1544" y="172" on="1"/>
        <pt x="1676" y="172" on="1"/>
        <pt x="1942" y="1326" on="1"/>
        <pt x="1142" y="0" on="1"/>
        <pt x="911" y="0" on="1"/>
        <pt x="709" y="1323" on="1"/>
        <pt x="443" y="172" on="1"/>
        <pt x="606" y="172" on="1"/>
        <pt x="567" y="0" on="1"/>
        <pt x="75" y="0" on="1"/>
      </contour>
    </TTGlyph>
    <TTGlyph name="N" xMin="75" yMin="0" xMax="1861" yMax="1516">
      <contour>
        <pt x="1370" y="1516" on="1"/>
        <pt x="1861" y="1516" on="1"/>
        <pt x="1822" y="1343" on="1"/>
        <pt x="1686" y="1343" on="1"/>
        <pt x="1378" y="0" on="1"/>
        <pt x="1116" y="0" on="1"/>
        <pt x="703" y="1255" on="1"/>
        <pt x="454" y="172" on="1"/>
        <pt x="606" y="172" on="1"/>
        <pt x="567" y="0" on="1"/>
        <pt x="75" y="0" on="1"/>
        <pt x="114" y="172" on="1"/>
        <pt x="247" y="172" on="1"/>
        <pt x="518" y="1343" on="1"/>
        <pt x="368" y="1343" on="1"/>
        <pt x="409" y="1516" on="1"/>
        <pt x="825" y="1516" on="1"/>
        <pt x="1233" y="270" on="1"/>
        <pt x="1479" y="1343" on="1"/>
        <pt x="1331" y="1343" on="1"/>
      </contour>
    </TTGlyph>
    <TTGlyph name="Nacute" xMin="75" yMin="0" xMax="6884" yMax="4662">
      <component glyphName="N" x="0" y="0" flags="0x204"/>
      <component glyphName="acute" x="942" y="480" flags="0x4"/>
    </TTGlyph>
    <TTGlyph name="Ncaron" xMin="75" yMin="0" xMax="4201" yMax="3280">
      <component glyphName="N" x="0" y="0" flags="0x204"/>
      <component glyphName="caron" x="790" y="479" flags="0x4"/>
    </TTGlyph>
    <TTGlyph name="Ncommaaccent" xMin="75" yMin="-473" xMax="2824" yMax="1516">
      <component glyphName="N" x="0" y="0" flags="0x204"/>
      <component glyphName="commabelow" x="600" y="0" flags="0x4"/>
    </TTGlyph>
    <TTGlyph name="Ntilde" xMin="75" yMin="0" xMax="2333" yMax="2374">
      <component glyphName="N" x="0" y="0" flags="0x204"/>
      <component glyphName="tilde" x="690" y="480" flags="0x4"/>
    </TTGlyph>
    <TTGlyph name="O" xMin="75" yMin="-31" xMax="1570" yMax="1544">
      <contour>
        <pt x="712" y="-31" on="1"/>
        <pt x="584" y="-31" on="0"/>
        <pt x="353" y="67" on="0"/>
        <pt x="178" y="246" on="0"/>
        <pt x="75" y="499" on="0"/>
        <pt x="75" y="655" on="1"/>
        <pt x="75" y="786" on="0"/>
        <pt x="137" y="1019" on="0"/>
        <pt x="249" y="1217" on="0"/>
        <pt x="406" y="1375" on="0"/>
        <pt x="597" y="1485" on="0"/>
        <pt x="815" y="1544" on="0"/>
        <pt x="933" y="1544" on="1"/>
        <pt x="1061" y="1544" on="0"/>
        <pt x="1292" y="1455" on="0"/>
        <pt x="1467" y="1285" on="0"/>
        <pt x="1570" y="1038" on="0"/>
        <pt x="1570" y="881" on="1"/>
        <pt x="1570" y="747" on="0"/>
        <pt x="1510" y="507" on="0"/>
        <pt x="1401" y="305" on="0"/>
        <pt x="1246" y="143" on="0"/>
        <pt x="1055" y="30" on="0"/>
        <pt x="833" y="-31" on="0"/>
      </contour>
      <contour>
        <pt x="735" y="172" on="1"/>
        <pt x="821" y="172" on="0"/>
        <pt x="979" y="220" on="0"/>
        <pt x="1115" y="309" on="0"/>
        <pt x="1226" y="434" on="0"/>
        <pt x="1304" y="588" on="0"/>
        <pt x="1347" y="766" on="0"/>
        <pt x="1347" y="864" on="1"/>
        <pt x="1347" y="973" on="0"/>
        <pt x="1282" y="1149" on="0"/>
        <pt x="1166" y="1274" on="0"/>
        <pt x="1006" y="1341" on="0"/>
        <pt x="911" y="1341" on="1"/>
        <pt x="787" y="1341" on="0"/>
        <pt x="565" y="1241" on="0"/>
        <pt x="397" y="1062" on="0"/>
        <pt x="299" y="817" on="0"/>
        <pt x="299" y="672" on="1"/>
        <pt x="299" y="565" on="0"/>
        <pt x="364" y="382" on="0"/>
        <pt x="480" y="248" on="0"/>
        <pt x="640" y="172" on="0"/>
      </contour>
    </TTGlyph>
    <TTGlyph name="OE" xMin="76" yMin="0" xMax="2165" yMax="1516">
      <contour>
        <pt x="688" y="0" on="1"/>
        <pt x="545" y="0" on="0"/>
        <pt x="317" y="104" on="0"/>
        <pt x="160" y="279" on="0"/>
        <pt x="76" y="510" on="0"/>
        <pt x="76" y="639" on="1"/>
        <pt x="76" y="821" on="0"/>
        <pt x="223" y="1141" on="0"/>
        <pt x="473" y="1378" on="0"/>
        <pt x="801" y="1516" on="0"/>
        <pt x="981" y="1516" on="1"/>
        <pt x="2165" y="1516" on="1"/>
        <pt x="2066" y="1083" on="1"/>
        <pt x="1862" y="1083" on="1"/>
        <pt x="1919" y="1343" on="1"/>
        <pt x="1384" y="1343" on="1"/>
        <pt x="1274" y="858" on="1"/>
        <pt x="1729" y="858" on="1"/>
        <pt x="1688" y="686" on="1"/>
        <pt x="1233" y="686" on="1"/>
        <pt x="1114" y="172" on="1"/>
        <pt x="1649" y="172" on="1"/>
        <pt x="1710" y="432" on="1"/>
        <pt x="1919" y="432" on="1"/>
        <pt x="1819" y="0" on="1"/>
      </contour>
      <contour>
        <pt x="289" y="655" on="1"/>
        <pt x="289" y="555" on="0"/>
        <pt x="344" y="379" on="0"/>
        <pt x="451" y="248" on="0"/>
        <pt x="606" y="172" on="0"/>
        <pt x="707" y="172" on="1"/>
        <pt x="918" y="172" on="1"/>
        <pt x="1188" y="1343" on="1"/>
        <pt x="956" y="1343" on="1"/>
        <pt x="834" y="1343" on="0"/>
        <pt x="596" y="1237" on="0"/>
        <pt x="406" y="1051" on="0"/>
        <pt x="289" y="799" on="0"/>
      </contour>
    </TTGlyph>
    <TTGlyph name="Oacute" xMin="75" yMin="-31" xMax="8291" yMax="5182">
      <component glyphName="O" x="0" y="0" flags="0x204"/>
      <component glyphName="acute" x="758" y="520" flags="0x4"/>
    </TTGlyph>
    <TTGlyph name="Ocircumflex" xMin="75" yMin="-31" xMax="3068" yMax="2923">
      <component glyphName="O" x="0" y="0" flags="0x204"/>
      <component glyphName="circumflex" x="561" y="520" flags="0x4"/>
    </TTGlyph>
    <TTGlyph name="Odieresis" xMin="75" yMin="-31" xMax="2870" yMax="2968">
      <component glyphName="O" x="0" y="0" flags="0x204"/>
      <component glyphName="dieresis" x="489" y="520" flags="0x4"/>
    </TTGlyph>
    <TTGlyph name="Ograve" xMin="75" yMin="-31" xMax="2712" yMax="3436">
      <component glyphName="O" x="0" y="0" flags="0x204"/>
      <component glyphName="grave" x="469" y="520" flags="0x4"/>
    </TTGlyph>
    <TTGlyph name="Ohm" xMin="174" yMin="0" xMax="1909" yMax="1548">
      <component glyphName="uni2126" x="0" y="0" flags="0x204"/>
    </TTGlyph>
    <TTGlyph name="Ohungarumlaut" xMin="75" yMin="-31" xMax="1570" yMax="2034">
      <component glyphName="O" x="0" y="0" flags="0x204"/>
      <component glyphName="hungarumlaut" x="733" y="526" flags="0x4"/>
    </TTGlyph>
    <TTGlyph name="Omacron" xMin="75" yMin="-31" xMax="3016" yMax="3305">
      <component glyphName="O" x="0" y="0" flags="0x204"/>
      <component glyphName="macron" x="494" y="520" flags="0x4"/>
    </TTGlyph>
    <TTGlyph name="Oslash" xMin="75" yMin="-31" xMax="1570" yMax="1544">
      <contour>
        <pt x="1280" y="1536" on="1"/>
        <pt x="1508" y="1536" on="1"/>
        <pt x="1384" y="1365" on="1"/>
        <pt x="1468" y="1282" on="0"/>
        <pt x="1570" y="1038" on="0"/>
        <pt x="1570" y="881" on="1"/>
        <pt x="1570" y="747" on="0"/>
        <pt x="1510" y="507" on="0"/>
        <pt x="1401" y="305" on="0"/>
        <pt x="1246" y="143" on="0"/>
        <pt x="1055" y="30" on="0"/>
        <pt x="833" y="-31" on="0"/>
        <pt x="712" y="-31" on="1"/>
        <pt x="554" y="-31" on="0"/>
        <pt x="419" y="41" on="1"/>
        <pt x="374" y="-20" on="1"/>
        <pt x="146" y="-20" on="1"/>
        <pt x="270" y="151" on="1"/>
        <pt x="178" y="246" on="0"/>
        <pt x="75" y="499" on="0"/>
        <pt x="75" y="655" on="1"/>
        <pt x="75" y="786" on="0"/>
        <pt x="137" y="1019" on="0"/>
        <pt x="249" y="1217" on="0"/>
        <pt x="406" y="1375" on="0"/>
        <pt x="597" y="1485" on="0"/>
        <pt x="815" y="1544" on="0"/>
        <pt x="933" y="1544" on="1"/>
        <pt x="1098" y="1544" on="0"/>
        <pt x="1234" y="1473" on="1"/>
      </contour>
      <contour>
        <pt x="1106" y="1298" on="1"/>
        <pt x="1006" y="1341" on="0"/>
        <pt x="911" y="1341" on="1"/>
        <pt x="787" y="1341" on="0"/>
        <pt x="565" y="1241" on="0"/>
        <pt x="397" y="1062" on="0"/>
        <pt x="299" y="817" on="0"/>
        <pt x="299" y="672" on="1"/>
        <pt x="299" y="565" on="0"/>
        <pt x="359" y="395" on="0"/>
        <pt x="405" y="335" on="1"/>
      </contour>
      <contour>
        <pt x="735" y="172" on="1"/>
        <pt x="821" y="172" on="0"/>
        <pt x="979" y="220" on="0"/>
        <pt x="1115" y="309" on="0"/>
        <pt x="1226" y="434" on="0"/>
        <pt x="1304" y="588" on="0"/>
        <pt x="1347" y="766" on="0"/>
        <pt x="1347" y="864" on="1"/>
        <pt x="1347" y="973" on="0"/>
        <pt x="1289" y="1128" on="0"/>
        <pt x="1249" y="1181" on="1"/>
        <pt x="546" y="216" on="1"/>
        <pt x="640" y="172" on="0"/>
      </contour>
    </TTGlyph>
    <TTGlyph name="Otilde" xMin="75" yMin="-31" xMax="3203" yMax="2894">
      <component glyphName="O" x="0" y="0" flags="0x204"/>
      <component glyphName="tilde" x="520" y="520" flags="0x4"/>
    </TTGlyph>
    <TTGlyph name="P" xMin="75" yMin="0" xMax="1409" yMax="1516">
      <contour>
        <pt x="409" y="1516" on="1"/>
        <pt x="1017" y="1516" on="1"/>
        <pt x="1104" y="1516" on="0"/>
        <pt x="1248" y="1456" on="0"/>
        <pt x="1352" y="1353" on="0"/>
        <pt x="1409" y="1215" on="0"/>
        <pt x="1409" y="1137" on="1"/>
        <pt x="1409" y="1034" on="0"/>
        <pt x="1331" y="858" on="0"/>
        <pt x="1180" y="730" on="0"/>
        <pt x="957" y="657" on="0"/>
        <pt x="813" y="657" on="1"/>
        <pt x="566" y="657" on="1"/>
        <pt x="455" y="172" on="1"/>
        <pt x="606" y="172" on="1"/>
        <pt x="567" y="0" on="1"/>
        <pt x="75" y="0" on="1"/>
        <pt x="114" y="172" on="1"/>
        <pt x="246" y="172" on="1"/>
        <pt x="516" y="1343" on="1"/>
        <pt x="368" y="1343" on="1"/>
      </contour>
      <contour>
        <pt x="723" y="1343" on="1"/>
        <pt x="606" y="829" on="1"/>
        <pt x="835" y="829" on="1"/>
        <pt x="916" y="829" on="0"/>
        <pt x="1050" y="868" on="0"/>
        <pt x="1146" y="943" on="0"/>
        <pt x="1198" y="1053" on="0"/>
        <pt x="1198" y="1124" on="1"/>
        <pt x="1198" y="1166" on="0"/>
        <pt x="1170" y="1245" on="0"/>
        <pt x="1112" y="1306" on="0"/>
        <pt x="1022" y="1343" on="0"/>
        <pt x="960" y="1343" on="1"/>
      </contour>
    </TTGlyph>
    <TTGlyph name="Pi" xMin="67" yMin="0" xMax="1912" yMax="1516">
      <component glyphName="uni041F" x="0" y="0" flags="0x204"/>
    </TTGlyph>
    <TTGlyph name="Q" xMin="75" yMin="-326" xMax="1570" yMax="1544">
      <contour>
        <pt x="601" y="-21" on="1"/>
        <pt x="491" y="-2" on="0"/>
        <pt x="300" y="110" on="0"/>
        <pt x="157" y="285" on="0"/>
        <pt x="75" y="516" on="0"/>
        <pt x="75" y="655" on="1"/>
        <pt x="75" y="786" on="0"/>
        <pt x="137" y="1019" on="0"/>
        <pt x="249" y="1217" on="0"/>
        <pt x="406" y="1375" on="0"/>
        <pt x="597" y="1485" on="0"/>
        <pt x="815" y="1544" on="0"/>
        <pt x="933" y="1544" on="1"/>
        <pt x="1061" y="1544" on="0"/>
        <pt x="1292" y="1455" on="0"/>
        <pt x="1467" y="1285" on="0"/>
        <pt x="1570" y="1038" on="0"/>
        <pt x="1570" y="881" on="1"/>
        <pt x="1570" y="753" on="0"/>
        <pt x="1516" y="525" on="0"/>
        <pt x="1416" y="328" on="0"/>
        <pt x="1275" y="168" on="0"/>
        <pt x="1100" y="51" on="0"/>
        <pt x="896" y="-19" on="0"/>
        <pt x="784" y="-28" on="1"/>
        <pt x="826" y="-41" on="0"/>
        <pt x="893" y="-82" on="0"/>
        <pt x="959" y="-120" on="0"/>
        <pt x="1033" y="-147" on="0"/>
        <pt x="1083" y="-147" on="1"/>
        <pt x="1140" y="-147" on="0"/>
        <pt x="1243" y="-90" on="0"/>
        <pt x="1271" y="-31" on="1"/>
        <pt x="1406" y="-100" on="1"/>
        <pt x="1381" y="-156" on="0"/>
        <pt x="1297" y="-241" on="0"/>
        <pt x="1196" y="-298" on="0"/>
        <pt x="1090" y="-326" on="0"/>
        <pt x="1042" y="-326" on="1"/>
        <pt x="992" y="-326" on="0"/>
        <pt x="911" y="-303" on="0"/>
        <pt x="840" y="-269" on="0"/>
        <pt x="776" y="-231" on="0"/>
        <pt x="713" y="-202" on="0"/>
        <pt x="648" y="-187" on="0"/>
        <pt x="610" y="-193" on="1"/>
        <pt x="579" y="-196" on="0"/>
        <pt x="559" y="-203" on="1"/>
      </contour>
      <contour>
        <pt x="735" y="172" on="1"/>
        <pt x="821" y="172" on="0"/>
        <pt x="979" y="220" on="0"/>
        <pt x="1115" y="309" on="0"/>
        <pt x="1226" y="434" on="0"/>
        <pt x="1304" y="588" on="0"/>
        <pt x="1347" y="766" on="0"/>
        <pt x="1347" y="864" on="1"/>
        <pt x="1347" y="973" on="0"/>
        <pt x="1282" y="1149" on="0"/>
        <pt x="1166" y="1274" on="0"/>
        <pt x="1006" y="1341" on="0"/>
        <pt x="911" y="1341" on="1"/>
        <pt x="787" y="1341" on="0"/>
        <pt x="565" y="1241" on="0"/>
        <pt x="397" y="1062" on="0"/>
        <pt x="299" y="817" on="0"/>
        <pt x="299" y="672" on="1"/>
        <pt x="299" y="565" on="0"/>
        <pt x="364" y="382" on="0"/>
        <pt x="480" y="248" on="0"/>
        <pt x="640" y="172" on="0"/>
      </contour>
    </TTGlyph>
    <TTGlyph name="R" xMin="75" yMin="0" xMax="1411" yMax="1516">
      <contour>
        <pt x="409" y="1516" on="1"/>
        <pt x="1026" y="1516" on="1"/>
        <pt x="1113" y="1516" on="0"/>
        <pt x="1255" y="1464" on="0"/>
        <pt x="1356" y="1370" on="0"/>
        <pt x="1411" y="1239" on="0"/>
        <pt x="1411" y="1161" on="1"/>
        <pt x="1411" y="1080" on="0"/>
        <pt x="1356" y="943" on="0"/>
        <pt x="1263" y="836" on="0"/>
        <pt x="1140" y="759" on="0"/>
        <pt x="1072" y="737" on="1"/>
        <pt x="1111" y="709" on="0"/>
        <pt x="1165" y="597" on="0"/>
        <pt x="1167" y="520" on="1"/>
        <pt x="1173" y="172" on="1"/>
        <pt x="1302" y="172" on="1"/>
        <pt x="1263" y="0" on="1"/>
        <pt x="970" y="0" on="1"/>
        <pt x="964" y="461" on="1"/>
        <pt x="962" y="586" on="0"/>
        <pt x="852" y="702" on="0"/>
        <pt x="741" y="702" on="1"/>
        <pt x="578" y="702" on="1"/>
        <pt x="457" y="172" on="1"/>
        <pt x="606" y="172" on="1"/>
        <pt x="567" y="0" on="1"/>
        <pt x="75" y="0" on="1"/>
        <pt x="114" y="172" on="1"/>
        <pt x="248" y="172" on="1"/>
        <pt x="518" y="1343" on="1"/>
        <pt x="368" y="1343" on="1"/>
      </contour>
      <contour>
        <pt x="725" y="1343" on="1"/>
        <pt x="617" y="870" on="1"/>
        <pt x="854" y="870" on="1"/>
        <pt x="929" y="870" on="0"/>
        <pt x="1056" y="904" on="0"/>
        <pt x="1148" y="974" on="0"/>
        <pt x="1200" y="1080" on="0"/>
        <pt x="1200" y="1151" on="1"/>
        <pt x="1200" y="1193" on="0"/>
        <pt x="1172" y="1264" on="0"/>
        <pt x="1113" y="1315" on="0"/>
        <pt x="1022" y="1343" on="0"/>
        <pt x="960" y="1343" on="1"/>
      </contour>
    </TTGlyph>
    <TTGlyph name="Racute" xMin="75" yMin="0" xMax="9495" yMax="5661">
      <component glyphName="R" x="0" y="0" flags="0x204"/>
      <component glyphName="acute" x="698" y="479" flags="0x4"/>
    </TTGlyph>
    <TTGlyph name="Rcaron" xMin="75" yMin="0" xMax="5317" yMax="3759">
      <component glyphName="R" x="0" y="0" flags="0x204"/>
      <component glyphName="caron" x="616" y="479" flags="0x4"/>
    </TTGlyph>
    <TTGlyph name="Rcommaaccent" xMin="75" yMin="-473" xMax="3701" yMax="1516">
      <component glyphName="R" x="0" y="0" flags="0x204"/>
      <component glyphName="commabelow" x="537" y="0" flags="0x4"/>
    </TTGlyph>
    <TTGlyph name="S" xMin="15" yMin="-31" xMax="1375" yMax="1538">
      <contour>
        <pt x="1080" y="1137" on="1"/>
        <pt x="1092" y="1190" on="0"/>
        <pt x="1059" y="1272" on="0"/>
        <pt x="987" y="1329" on="0"/>
        <pt x="885" y="1358" on="0"/>
        <pt x="828" y="1358" on="1"/>
        <pt x="745" y="1358" on="0"/>
        <pt x="614" y="1314" on="0"/>
        <pt x="524" y="1238" on="0"/>
        <pt x="476" y="1137" on="0"/>
        <pt x="476" y="1081" on="1"/>
        <pt x="476" y="1031" on="0"/>
        <pt x="514" y="969" on="0"/>
        <pt x="572" y="929" on="0"/>
        <pt x="643" y="905" on="0"/>
        <pt x="676" y="893" on="1"/>
        <pt x="863" y="825" on="1"/>
        <pt x="935" y="801" on="0"/>
        <pt x="1043" y="735" on="0"/>
        <pt x="1115" y="648" on="0"/>
        <pt x="1151" y="537" on="0"/>
        <pt x="1151" y="467" on="1"/>
        <pt x="1151" y="356" on="0"/>
        <pt x="1065" y="172" on="0"/>
        <pt x="910" y="41" on="0"/>
        <pt x="692" y="-31" on="0"/>
        <pt x="560" y="-31" on="1"/>
        <pt x="441" y="-31" on="0"/>
        <pt x="276" y="20" on="0"/>
        <pt x="170" y="107" on="0"/>
        <pt x="117" y="219" on="0"/>
        <pt x="110" y="281" on="1"/>
        <pt x="15" y="281" on="1"/>
        <pt x="54" y="440" on="1"/>
        <pt x="326" y="440" on="1"/>
        <pt x="308" y="366" on="1"/>
        <pt x="294" y="258" on="0"/>
        <pt x="448" y="152" on="0"/>
        <pt x="594" y="152" on="1"/>
        <pt x="669" y="152" on="0"/>
        <pt x="795" y="194" on="0"/>
        <pt x="886" y="269" on="0"/>
        <pt x="938" y="374" on="0"/>
        <pt x="938" y="436" on="1"/>
        <pt x="938" y="484" on="0"/>
        <pt x="904" y="554" on="0"/>
        <pt x="845" y="605" on="0"/>
        <pt x="766" y="642" on="0"/>
        <pt x="721" y="657" on="1"/>
        <pt x="547" y="713" on="1"/>
        <pt x="411" y="756" on="0"/>
        <pt x="271" y="926" on="0"/>
        <pt x="271" y="1059" on="1"/>
        <pt x="271" y="1161" on="0"/>
        <pt x="349" y="1336" on="0"/>
        <pt x="498" y="1465" on="0"/>
        <pt x="711" y="1538" on="0"/>
        <pt x="846" y="1538" on="1"/>
        <pt x="931" y="1538" on="0"/>
        <pt x="1073" y="1500" on="0"/>
        <pt x="1182" y="1432" on="0"/>
        <pt x="1257" y="1336" on="0"/>
        <pt x="1274" y="1278" on="1"/>
        <pt x="1375" y="1278" on="1"/>
        <pt x="1336" y="1118" on="1"/>
        <pt x="1076" y="1118" on="1"/>
      </contour>
    </TTGlyph>
    <TTGlyph name="Sacute" xMin="15" yMin="-31" xMax="10598" yMax="6140">
      <component glyphName="S" x="0" y="0" flags="0x204"/>
      <component glyphName="acute" x="650" y="479" flags="0x4"/>
    </TTGlyph>
    <TTGlyph name="Scaron" xMin="15" yMin="-31" xMax="6137" yMax="4238">
      <component glyphName="S" x="0" y="0" flags="0x204"/>
      <component glyphName="caron" x="500" y="479" flags="0x4"/>
    </TTGlyph>
    <TTGlyph name="Scedilla" xMin="15" yMin="-432" xMax="1375" yMax="1538">
      <component glyphName="S" x="0" y="0" flags="0x204"/>
      <component glyphName="cedilla" x="0" y="0" flags="0x4"/>
    </TTGlyph>
    <TTGlyph name="Scommaaccent" xMin="15" yMin="-473" xMax="4101" yMax="1538">
      <component glyphName="S" x="0" y="0" flags="0x204"/>
      <component glyphName="commabelow" x="300" y="0" flags="0x4"/>
    </TTGlyph>
    <TTGlyph name="T" xMin="135" yMin="0" xMax="1579" yMax="1516">
      <contour>
        <pt x="348" y="172" on="1"/>
        <pt x="488" y="172" on="1"/>
        <pt x="760" y="1352" on="1"/>
        <pt x="393" y="1352" on="1"/>
        <pt x="340" y="1116" on="1"/>
        <pt x="135" y="1116" on="1"/>
        <pt x="227" y="1516" on="1"/>
        <pt x="1579" y="1516" on="1"/>
        <pt x="1486" y="1116" on="1"/>
        <pt x="1282" y="1116" on="1"/>
        <pt x="1335" y="1352" on="1"/>
        <pt x="967" y="1352" on="1"/>
        <pt x="697" y="172" on="1"/>
        <pt x="839" y="172" on="1"/>
        <pt x="800" y="0" on="1"/>
        <pt x="309" y="0" on="1"/>
      </contour>
    </TTGlyph>
    <TTGlyph name="Tcaron" xMin="135" yMin="0" xMax="6927" yMax="4717">
      <component glyphName="T" x="0" y="0" flags="0x204"/>
      <component glyphName="caron" x="540" y="479" flags="0x4"/>
    </TTGlyph>
    <TTGlyph name="Tcommaaccent" xMin="135" yMin="-473" xMax="4561" yMax="1516">
      <component glyphName="T" x="0" y="0" flags="0x204"/>
      <component glyphName="commabelow" x="285" y="0" flags="0x4"/>
    </TTGlyph>
    <TTGlyph name="Thorn" xMin="75" yMin="0" xMax="1382" yMax="1516">
      <contour>
        <pt x="425" y="1516" on="1"/>
        <pt x="917" y="1516" on="1"/>
        <pt x="876" y="1343" on="1"/>
        <pt x="735" y="1343" on="1"/>
        <pt x="704" y="1208" on="1"/>
        <pt x="976" y="1208" on="1"/>
        <pt x="1064" y="1208" on="0"/>
        <pt x="1213" y="1162" on="0"/>
        <pt x="1321" y="1073" on="0"/>
        <pt x="1382" y="945" on="0"/>
        <pt x="1382" y="864" on="1"/>
        <pt x="1382" y="760" on="0"/>
        <pt x="1305" y="585" on="0"/>
        <pt x="1162" y="458" on="0"/>
        <pt x="959" y="387" on="0"/>
        <pt x="833" y="387" on="1"/>
        <pt x="516" y="387" on="1"/>
        <pt x="467" y="172" on="1"/>
        <pt x="606" y="172" on="1"/>
        <pt x="567" y="0" on="1"/>
        <pt x="75" y="0" on="1"/>
        <pt x="114" y="172" on="1"/>
        <pt x="258" y="172" on="1"/>
        <pt x="528" y="1343" on="1"/>
        <pt x="385" y="1343" on="1"/>
      </contour>
      <contour>
        <pt x="665" y="1036" on="1"/>
        <pt x="556" y="559" on="1"/>
        <pt x="847" y="559" on="1"/>
        <pt x="916" y="559" on="0"/>
        <pt x="1034" y="596" on="0"/>
        <pt x="1121" y="668" on="0"/>
        <pt x="1171" y="776" on="0"/>
        <pt x="1171" y="848" on="1"/>
        <pt x="1171" y="933" on="0"/>
        <pt x="1057" y="1036" on="0"/>
        <pt x="933" y="1036" on="1"/>
      </contour>
    </TTGlyph>
    <TTGlyph name="U" xMin="200" yMin="-25" xMax="1720" yMax="1516">
      <contour>
        <pt x="282" y="1516" on="1"/>
        <pt x="774" y="1516" on="1"/>
        <pt x="735" y="1343" on="1"/>
        <pt x="595" y="1343" on="1"/>
        <pt x="434" y="639" on="1"/>
        <pt x="426" y="604" on="0"/>
        <pt x="413" y="525" on="0"/>
        <pt x="413" y="475" on="1"/>
        <pt x="412" y="420" on="0"/>
        <pt x="448" y="313" on="0"/>
        <pt x="524" y="228" on="0"/>
        <pt x="642" y="176" on="0"/>
        <pt x="724" y="176" on="1"/>
        <pt x="807" y="176" on="0"/>
        <pt x="948" y="223" on="0"/>
        <pt x="1062" y="332" on="0"/>
        <pt x="1149" y="509" on="0"/>
        <pt x="1179" y="639" on="1"/>
        <pt x="1341" y="1343" on="1"/>
        <pt x="1189" y="1343" on="1"/>
        <pt x="1228" y="1516" on="1"/>
        <pt x="1720" y="1516" on="1"/>
        <pt x="1681" y="1343" on="1"/>
        <pt x="1548" y="1343" on="1"/>
        <pt x="1382" y="621" on="1"/>
        <pt x="1343" y="450" on="0"/>
        <pt x="1214" y="205" on="0"/>
        <pt x="1042" y="48" on="0"/>
        <pt x="830" y="-25" on="0"/>
        <pt x="706" y="-25" on="1"/>
        <pt x="597" y="-25" on="0"/>
        <pt x="410" y="40" on="0"/>
        <pt x="275" y="163" on="0"/>
        <pt x="200" y="341" on="0"/>
        <pt x="202" y="455" on="1"/>
        <pt x="202" y="500" on="0"/>
        <pt x="214" y="589" on="0"/>
        <pt x="225" y="639" on="1"/>
        <pt x="387" y="1343" on="1"/>
        <pt x="243" y="1343" on="1"/>
      </contour>
    </TTGlyph>
    <TTGlyph name="Uacute" xMin="200" yMin="-25" xMax="11808" yMax="6620">
      <component glyphName="U" x="0" y="0" flags="0x204"/>
      <component glyphName="acute" x="810" y="480" flags="0x4"/>
    </TTGlyph>
    <TTGlyph name="Ucircumflex" xMin="200" yMin="-25" xMax="3951" yMax="3434">
      <component glyphName="U" x="0" y="0" flags="0x204"/>
      <component glyphName="circumflex" x="598" y="480" flags="0x4"/>
    </TTGlyph>
    <TTGlyph name="Udieresis" xMin="200" yMin="-25" xMax="3635" yMax="3479">
      <component glyphName="U" x="0" y="0" flags="0x204"/>
      <component glyphName="dieresis" x="527" y="480" flags="0x4"/>
    </TTGlyph>
    <TTGlyph name="Ugrave" xMin="200" yMin="-25" xMax="3453" yMax="3916">
      <component glyphName="U" x="0" y="0" flags="0x204"/>
      <component glyphName="grave" x="506" y="480" flags="0x4"/>
    </TTGlyph>
    <TTGlyph name="Uhungarumlaut" xMin="200" yMin="-25" xMax="2682" yMax="2557">
      <component glyphName="U" x="0" y="0" flags="0x204"/>
      <component glyphName="hungarumlaut" x="770" y="486" flags="0x4"/>
    </TTGlyph>
    <TTGlyph name="Umacron" xMin="200" yMin="-25" xMax="3789" yMax="3816">
      <component glyphName="U" x="0" y="0" flags="0x204"/>
      <component glyphName="macron" x="531" y="480" flags="0x4"/>
    </TTGlyph>
    <TTGlyph name="Uogonek" xMin="201" yMin="-471" xMax="1720" yMax="1516">
      <contour>
        <pt x="1229" y="1516" on="1"/>
        <pt x="1720" y="1516" on="1"/>
        <pt x="1681" y="1343" on="1"/>
        <pt x="1548" y="1343" on="1"/>
        <pt x="1382" y="621" on="1"/>
        <pt x="1354" y="496" on="0"/>
        <pt x="1270" y="299" on="0"/>
        <pt x="1161" y="152" on="0"/>
        <pt x="1032" y="51" on="0"/>
        <pt x="958" y="23" on="1"/>
        <pt x="887" y="-6" on="0"/>
        <pt x="772" y="-61" on="0"/>
        <pt x="690" y="-123" on="0"/>
        <pt x="645" y="-188" on="0"/>
        <pt x="645" y="-225" on="1"/>
        <pt x="645" y="-266" on="0"/>
        <pt x="707" y="-324" on="0"/>
        <pt x="758" y="-324" on="1"/>
        <pt x="797" y="-324" on="0"/>
        <pt x="866" y="-311" on="0"/>
        <pt x="887" y="-301" on="1"/>
        <pt x="930" y="-428" on="1"/>
        <pt x="903" y="-444" on="0"/>
        <pt x="809" y="-471" on="0"/>
        <pt x="752" y="-471" on="1"/>
        <pt x="690" y="-471" on="0"/>
        <pt x="588" y="-442" on="0"/>
        <pt x="514" y="-389" on="0"/>
        <pt x="471" y="-311" on="0"/>
        <pt x="471" y="-260" on="1"/>
        <pt x="471" y="-184" on="0"/>
        <pt x="559" y="-63" on="0"/>
        <pt x="621" y="-18" on="1"/>
        <pt x="528" y="-6" on="0"/>
        <pt x="373" y="68" on="0"/>
        <pt x="260" y="188" on="0"/>
        <pt x="201" y="352" on="0"/>
        <pt x="203" y="455" on="1"/>
        <pt x="203" y="500" on="0"/>
        <pt x="215" y="590" on="0"/>
        <pt x="225" y="639" on="1"/>
        <pt x="387" y="1343" on="1"/>
        <pt x="244" y="1343" on="1"/>
        <pt x="283" y="1516" on="1"/>
        <pt x="774" y="1516" on="1"/>
        <pt x="735" y="1343" on="1"/>
        <pt x="596" y="1343" on="1"/>
        <pt x="434" y="639" on="1"/>
        <pt x="426" y="604" on="0"/>
        <pt x="414" y="524" on="0"/>
        <pt x="414" y="475" on="1"/>
        <pt x="414" y="420" on="0"/>
        <pt x="449" y="313" on="0"/>
        <pt x="524" y="227" on="0"/>
        <pt x="643" y="176" on="0"/>
        <pt x="725" y="176" on="1"/>
        <pt x="807" y="176" on="0"/>
        <pt x="948" y="223" on="0"/>
        <pt x="1063" y="332" on="0"/>
        <pt x="1149" y="510" on="0"/>
        <pt x="1180" y="639" on="1"/>
        <pt x="1341" y="1343" on="1"/>
        <pt x="1190" y="1343" on="1"/>
      </contour>
    </TTGlyph>
    <TTGlyph name="Uring" xMin="200" yMin="-25" xMax="1763" yMax="2078">
      <component glyphName="U" x="0" y="0" flags="0x204"/>
      <component glyphName="ring" x="690" y="480" flags="0x4"/>
    </TTGlyph>
    <TTGlyph name="V" xMin="175" yMin="0" xMax="1666" yMax="1516">
      <contour>
        <pt x="1174" y="1516" on="1"/>
        <pt x="1666" y="1516" on="1"/>
        <pt x="1627" y="1343" on="1"/>
        <pt x="1494" y="1343" on="1"/>
        <pt x="748" y="0" on="1"/>
        <pt x="443" y="0" on="1"/>
        <pt x="314" y="1343" on="1"/>
        <pt x="175" y="1343" on="1"/>
        <pt x="214" y="1516" on="1"/>
        <pt x="705" y="1516" on="1"/>
        <pt x="666" y="1343" on="1"/>
        <pt x="526" y="1343" on="1"/>
        <pt x="625" y="174" on="1"/>
        <pt x="1270" y="1343" on="1"/>
        <pt x="1135" y="1343" on="1"/>
      </contour>
    </TTGlyph>
    <TTGlyph name="W" xMin="175" yMin="0" xMax="2507" yMax="1516">
      <contour>
        <pt x="2016" y="1516" on="1"/>
        <pt x="2507" y="1516" on="1"/>
        <pt x="2468" y="1343" on="1"/>
        <pt x="2330" y="1343" on="1"/>
        <pt x="1627" y="0" on="1"/>
        <pt x="1342" y="0" on="1"/>
        <pt x="1289" y="1171" on="1"/>
        <pt x="703" y="0" on="1"/>
        <pt x="418" y="0" on="1"/>
        <pt x="329" y="1343" on="1"/>
        <pt x="175" y="1343" on="1"/>
        <pt x="214" y="1516" on="1"/>
        <pt x="705" y="1516" on="1"/>
        <pt x="666" y="1343" on="1"/>
        <pt x="534" y="1343" on="1"/>
        <pt x="603" y="195" on="1"/>
        <pt x="1262" y="1516" on="1"/>
        <pt x="1475" y="1516" on="1"/>
        <pt x="1524" y="195" on="1"/>
        <pt x="2129" y="1343" on="1"/>
        <pt x="1977" y="1343" on="1"/>
      </contour>
    </TTGlyph>
    <TTGlyph name="X" xMin="-65" yMin="0" xMax="1606" yMax="1516">
      <contour>
        <pt x="1115" y="1516" on="1"/>
        <pt x="1606" y="1516" on="1"/>
        <pt x="1565" y="1343" on="1"/>
        <pt x="1461" y="1343" on="1"/>
        <pt x="910" y="764" on="1"/>
        <pt x="1194" y="172" on="1"/>
        <pt x="1344" y="172" on="1"/>
        <pt x="1305" y="0" on="1"/>
        <pt x="814" y="0" on="1"/>
        <pt x="852" y="172" on="1"/>
        <pt x="989" y="172" on="1"/>
        <pt x="771" y="618" on="1"/>
        <pt x="347" y="172" on="1"/>
        <pt x="465" y="172" on="1"/>
        <pt x="426" y="0" on="1"/>
        <pt x="-65" y="0" on="1"/>
        <pt x="-26" y="172" on="1"/>
        <pt x="95" y="172" on="1"/>
        <pt x="685" y="793" on="1"/>
        <pt x="417" y="1343" on="1"/>
        <pt x="271" y="1343" on="1"/>
        <pt x="312" y="1516" on="1"/>
        <pt x="803" y="1516" on="1"/>
        <pt x="762" y="1343" on="1"/>
        <pt x="632" y="1343" on="1"/>
        <pt x="825" y="941" on="1"/>
        <pt x="1207" y="1343" on="1"/>
        <pt x="1074" y="1343" on="1"/>
      </contour>
    </TTGlyph>
    <TTGlyph name="Y" xMin="175" yMin="0" xMax="1539" yMax="1516">
      <contour>
        <pt x="214" y="1516" on="1"/>
        <pt x="705" y="1516" on="1"/>
        <pt x="666" y="1343" on="1"/>
        <pt x="544" y="1343" on="1"/>
        <pt x="719" y="870" on="1"/>
        <pt x="1130" y="1343" on="1"/>
        <pt x="1008" y="1343" on="1"/>
        <pt x="1047" y="1516" on="1"/>
        <pt x="1539" y="1516" on="1"/>
        <pt x="1500" y="1343" on="1"/>
        <pt x="1377" y="1343" on="1"/>
        <pt x="791" y="687" on="1"/>
        <pt x="671" y="172" on="1"/>
        <pt x="812" y="172" on="1"/>
        <pt x="773" y="0" on="1"/>
        <pt x="281" y="0" on="1"/>
        <pt x="320" y="172" on="1"/>
        <pt x="461" y="172" on="1"/>
        <pt x="581" y="691" on="1"/>
        <pt x="322" y="1343" on="1"/>
        <pt x="175" y="1343" on="1"/>
      </contour>
    </TTGlyph>
    <TTGlyph name="Yacute" xMin="175" yMin="0" xMax="12968" yMax="7100">
      <component glyphName="Y" x="0" y="0" flags="0x204"/>
      <component glyphName="acute" x="660" y="480" flags="0x4"/>
    </TTGlyph>
    <TTGlyph name="Ydieresis" xMin="175" yMin="0" xMax="4238" yMax="3959">
      <component glyphName="Y" x="0" y="0" flags="0x204"/>
      <component glyphName="dieresis" x="392" y="480" flags="0x4"/>
    </TTGlyph>
    <TTGlyph name="Z" xMin="-25" yMin="0" xMax="1437" yMax="1516">
      <contour>
        <pt x="1390" y="1298" on="1"/>
        <pt x="238" y="178" on="1"/>
        <pt x="919" y="178" on="1"/>
        <pt x="976" y="430" on="1"/>
        <pt x="1183" y="430" on="1"/>
        <pt x="1085" y="0" on="1"/>
        <pt x="-25" y="0" on="1"/>
        <pt x="26" y="231" on="1"/>
        <pt x="1161" y="1339" on="1"/>
        <pt x="501" y="1339" on="1"/>
        <pt x="442" y="1081" on="1"/>
        <pt x="235" y="1081" on="1"/>
        <pt x="335" y="1516" on="1"/>
        <pt x="1437" y="1516" on="1"/>
      </contour>
    </TTGlyph>
    <TTGlyph name="Zacute" xMin="-25" yMin="0" xMax="14044" yMax="7610">
      <component glyphName="Z" x="0" y="0" flags="0x204"/>
      <component glyphName="acute" x="675" y="479" flags="0x4"/>
    </TTGlyph>
    <TTGlyph name="Zcaron" xMin="-25" yMin="0" xMax="7496" yMax="5196">
      <component glyphName="Z" x="0" y="0" flags="0x204"/>
      <component glyphName="caron" x="569" y="479" flags="0x4"/>
    </TTGlyph>
    <TTGlyph name="Zdotaccent" xMin="-25" yMin="-774" xMax="2383" yMax="1516">
      <component glyphName="Z" x="0" y="0" flags="0x204"/>
      <component glyphName="dotaccent" x="635" y="479" flags="0x4"/>
    </TTGlyph>
    <TTGlyph name="a" xMin="92" yMin="-18" xMax="1196" yMax="1063">
      <contour>
        <pt x="771" y="70" on="1"/>
        <pt x="704" y="25" on="0"/>
        <pt x="569" y="-18" on="0"/>
        <pt x="497" y="-18" on="1"/>
        <pt x="412" y="-18" on="0"/>
        <pt x="264" y="48" on="0"/>
        <pt x="155" y="162" on="0"/>
        <pt x="92" y="317" on="0"/>
        <pt x="92" y="406" on="1"/>
        <pt x="92" y="551" on="0"/>
        <pt x="194" y="793" on="0"/>
        <pt x="369" y="967" on="0"/>
        <pt x="602" y="1063" on="0"/>
        <pt x="733" y="1063" on="1"/>
        <pt x="808" y="1063" on="0"/>
        <pt x="940" y="1018" on="0"/>
        <pt x="982" y="982" on="1"/>
        <pt x="995" y="1036" on="1"/>
        <pt x="1196" y="1036" on="1"/>
        <pt x="996" y="172" on="1"/>
        <pt x="1157" y="172" on="1"/>
        <pt x="1118" y="0" on="1"/>
        <pt x="755" y="0" on="1"/>
      </contour>
      <contour>
        <pt x="544" y="154" on="1"/>
        <pt x="581" y="154" on="0"/>
        <pt x="658" y="172" on="0"/>
        <pt x="728" y="200" on="0"/>
        <pt x="790" y="237" on="0"/>
        <pt x="814" y="257" on="1"/>
        <pt x="943" y="811" on="1"/>
        <pt x="917" y="844" on="0"/>
        <pt x="807" y="891" on="0"/>
        <pt x="718" y="891" on="1"/>
        <pt x="641" y="891" on="0"/>
        <pt x="491" y="828" on="0"/>
        <pt x="373" y="709" on="0"/>
        <pt x="299" y="536" on="0"/>
        <pt x="299" y="426" on="1"/>
        <pt x="299" y="362" on="0"/>
        <pt x="335" y="261" on="0"/>
        <pt x="399" y="191" on="0"/>
        <pt x="490" y="154" on="0"/>
      </contour>
    </TTGlyph>
    <TTGlyph name="aacute" xMin="116" yMin="-18" xMax="1834" yMax="1956">
      <component glyphName="a" x="12" y="0" flags="0x4"/>
      <component glyphName="acute" x="566" y="0" flags="0x4"/>
    </TTGlyph>
    <TTGlyph name="abreve" xMin="140" yMin="-18" xMax="1676" yMax="1959">
      <component glyphName="a" x="0" y="0" flags="0x204"/>
      <component glyphName="breve" x="295" y="0" flags="0x4"/>
    </TTGlyph>
    <TTGlyph name="acircumflex" xMin="128" yMin="-18" xMax="1611" yMax="1923">
      <component glyphName="a" x="12" y="0" flags="0x4"/>
      <component glyphName="circumflex" x="380" y="0" flags="0x4"/>
    </TTGlyph>
    <TTGlyph name="acute" xMin="84" yMin="1178" xMax="537" yMax="1477">
      <contour>
        <pt x="297" y="1477" on="1"/>
        <pt x="537" y="1477" on="1"/>
        <pt x="537" y="1460" on="1"/>
        <pt x="238" y="1178" on="1"/>
        <pt x="84" y="1178" on="1"/>
      </contour>
    </TTGlyph>
    <TTGlyph name="adieresis" xMin="140" yMin="-18" xMax="1627" yMax="1968">
      <component glyphName="a" x="12" y="0" flags="0x4"/>
      <component glyphName="dieresis" x="289" y="0" flags="0x4"/>
    </TTGlyph>
    <TTGlyph name="ae" xMin="-6" yMin="-31" xMax="1721" yMax="1067">
      <contour>
        <pt x="508" y="606" on="1"/>
        <pt x="576" y="606" on="0"/>
        <pt x="679" y="595" on="0"/>
        <pt x="717" y="585" on="1"/>
        <pt x="740" y="680" on="1"/>
        <pt x="753" y="735" on="0"/>
        <pt x="739" y="816" on="0"/>
        <pt x="693" y="869" on="0"/>
        <pt x="616" y="895" on="0"/>
        <pt x="566" y="895" on="1"/>
        <pt x="519" y="895" on="0"/>
        <pt x="430" y="882" on="0"/>
        <pt x="349" y="861" on="0"/>
        <pt x="280" y="834" on="0"/>
        <pt x="254" y="819" on="1"/>
        <pt x="224" y="948" on="1"/>
        <pt x="266" y="972" on="0"/>
        <pt x="364" y="1013" on="0"/>
        <pt x="467" y="1042" on="0"/>
        <pt x="572" y="1059" on="0"/>
        <pt x="621" y="1059" on="1"/>
        <pt x="730" y="1059" on="0"/>
        <pt x="877" y="992" on="0"/>
        <pt x="911" y="920" on="1"/>
        <pt x="989" y="989" on="0"/>
        <pt x="1188" y="1067" on="0"/>
        <pt x="1303" y="1067" on="1"/>
        <pt x="1402" y="1067" on="0"/>
        <pt x="1557" y="1000" on="0"/>
        <pt x="1665" y="890" on="0"/>
        <pt x="1721" y="746" on="0"/>
        <pt x="1721" y="670" on="1"/>
        <pt x="1721" y="619" on="0"/>
        <pt x="1710" y="524" on="0"/>
        <pt x="1702" y="483" on="1"/>
        <pt x="906" y="483" on="1"/>
        <pt x="905" y="469" on="0"/>
        <pt x="904" y="449" on="0"/>
        <pt x="904" y="440" on="1"/>
        <pt x="904" y="377" on="0"/>
        <pt x="945" y="269" on="0"/>
        <pt x="1017" y="190" on="0"/>
        <pt x="1118" y="145" on="0"/>
        <pt x="1178" y="145" on="1"/>
        <pt x="1259" y="145" on="0"/>
        <pt x="1403" y="210" on="0"/>
        <pt x="1453" y="272" on="1"/>
        <pt x="1600" y="164" on="1"/>
        <pt x="1566" y="119" on="0"/>
        <pt x="1472" y="47" on="0"/>
        <pt x="1358" y="-4" on="0"/>
        <pt x="1229" y="-31" on="0"/>
        <pt x="1162" y="-31" on="1"/>
        <pt x="1098" y="-31" on="0"/>
        <pt x="981" y="-2" on="0"/>
        <pt x="879" y="53" on="0"/>
        <pt x="796" y="134" on="0"/>
        <pt x="766" y="186" on="1"/>
        <pt x="727" y="133" on="0"/>
        <pt x="630" y="53" on="0"/>
        <pt x="519" y="-1" on="0"/>
        <pt x="399" y="-29" on="0"/>
        <pt x="336" y="-29" on="1"/>
        <pt x="264" y="-29" on="0"/>
        <pt x="139" y="3" on="0"/>
        <pt x="47" y="71" on="0"/>
        <pt x="-6" y="174" on="0"/>
        <pt x="-6" y="246" on="1"/>
        <pt x="-6" y="320" on="0"/>
        <pt x="42" y="430" on="0"/>
        <pt x="123" y="510" on="0"/>
        <pt x="228" y="563" on="0"/>
        <pt x="342" y="594" on="0"/>
        <pt x="457" y="606" on="0"/>
      </contour>
      <contour>
        <pt x="355" y="127" on="1"/>
        <pt x="459" y="127" on="0"/>
        <pt x="647" y="220" on="0"/>
        <pt x="719" y="305" on="1"/>
        <pt x="711" y="337" on="0"/>
        <pt x="703" y="406" on="0"/>
        <pt x="703" y="444" on="1"/>
        <pt x="703" y="460" on="0"/>
        <pt x="704" y="477" on="1"/>
        <pt x="474" y="477" on="1"/>
        <pt x="413" y="477" on="0"/>
        <pt x="307" y="449" on="0"/>
        <pt x="228" y="397" on="0"/>
        <pt x="183" y="320" on="0"/>
        <pt x="183" y="272" on="1"/>
        <pt x="183" y="198" on="0"/>
        <pt x="276" y="127" on="0"/>
      </contour>
      <contour>
        <pt x="1276" y="897" on="1"/>
        <pt x="1217" y="897" on="0"/>
        <pt x="1112" y="859" on="0"/>
        <pt x="1025" y="791" on="0"/>
        <pt x="959" y="699" on="0"/>
        <pt x="938" y="645" on="1"/>
        <pt x="1528" y="645" on="1"/>
        <pt x="1529" y="707" on="0"/>
        <pt x="1494" y="802" on="0"/>
        <pt x="1427" y="865" on="0"/>
        <pt x="1333" y="897" on="0"/>
      </contour>
    </TTGlyph>
    <TTGlyph name="agrave" xMin="104" yMin="-18" xMax="1281" yMax="1956">
      <component glyphName="a" x="12" y="0" flags="0x4"/>
      <component glyphName="grave" x="307" y="0" flags="0x4"/>
    </TTGlyph>
    <TTGlyph name="amacron" xMin="140" yMin="-18" xMax="1610" yMax="1825">
      <component glyphName="a" x="0" y="0" flags="0x204"/>
      <component glyphName="macron" x="252" y="0" flags="0x4"/>
    </TTGlyph>
    <TTGlyph name="ampersand" xMin="75" yMin="-31" xMax="1263" yMax="1544">
      <contour>
        <pt x="1075" y="-20" on="1"/>
        <pt x="921" y="193" on="1"/>
        <pt x="872" y="143" on="0"/>
        <pt x="764" y="61" on="0"/>
        <pt x="646" y="2" on="0"/>
        <pt x="517" y="-31" on="0"/>
        <pt x="448" y="-31" on="1"/>
        <pt x="367" y="-31" on="0"/>
        <pt x="231" y="29" on="0"/>
        <pt x="131" y="134" on="0"/>
        <pt x="75" y="275" on="0"/>
        <pt x="75" y="356" on="1"/>
        <pt x="75" y="439" on="0"/>
        <pt x="139" y="584" on="0"/>
        <pt x="244" y="702" on="0"/>
        <pt x="379" y="792" on="0"/>
        <pt x="450" y="821" on="1"/>
        <pt x="431" y="847" on="0"/>
        <pt x="387" y="908" on="0"/>
        <pt x="349" y="983" on="0"/>
        <pt x="323" y="1074" on="0"/>
        <pt x="323" y="1130" on="1"/>
        <pt x="323" y="1218" on="0"/>
        <pt x="394" y="1369" on="0"/>
        <pt x="515" y="1480" on="0"/>
        <pt x="679" y="1544" on="0"/>
        <pt x="772" y="1544" on="1"/>
        <pt x="843" y="1544" on="0"/>
        <pt x="967" y="1492" on="0"/>
        <pt x="1059" y="1403" on="0"/>
        <pt x="1112" y="1288" on="0"/>
        <pt x="1112" y="1225" on="1"/>
        <pt x="1112" y="1156" on="0"/>
        <pt x="1080" y="1049" on="0"/>
        <pt x="1019" y="962" on="0"/>
        <pt x="928" y="889" on="0"/>
        <pt x="870" y="852" on="1"/>
        <pt x="833" y="827" on="0"/>
        <pt x="756" y="785" on="0"/>
        <pt x="715" y="765" on="1"/>
        <pt x="941" y="477" on="1"/>
        <pt x="989" y="552" on="0"/>
        <pt x="1060" y="697" on="0"/>
        <pt x="1083" y="756" on="1"/>
        <pt x="1263" y="756" on="1"/>
        <pt x="1225" y="655" on="0"/>
        <pt x="1117" y="442" on="0"/>
        <pt x="1047" y="343" on="1"/>
        <pt x="1241" y="96" on="1"/>
      </contour>
      <contour>
        <pt x="458" y="657" on="1"/>
        <pt x="415" y="639" on="0"/>
        <pt x="339" y="578" on="0"/>
        <pt x="282" y="500" on="0"/>
        <pt x="249" y="409" on="0"/>
        <pt x="249" y="362" on="1"/>
        <pt x="249" y="314" on="0"/>
        <pt x="281" y="231" on="0"/>
        <pt x="340" y="171" on="0"/>
        <pt x="423" y="137" on="0"/>
        <pt x="473" y="137" on="1"/>
        <pt x="524" y="137" on="0"/>
        <pt x="619" y="165" on="0"/>
        <pt x="707" y="214" on="0"/>
        <pt x="788" y="282" on="0"/>
        <pt x="824" y="322" on="1"/>
        <pt x="547" y="692" on="1"/>
        <pt x="524" y="683" on="0"/>
        <pt x="480" y="666" on="0"/>
        <pt x="458" y="657" on="1"/>
      </contour>
      <contour>
        <pt x="839" y="1020" on="1"/>
        <pt x="877" y="1054" on="0"/>
        <pt x="935" y="1146" on="0"/>
        <pt x="935" y="1200" on="1"/>
        <pt x="935" y="1237" on="0"/>
        <pt x="907" y="1303" on="0"/>
        <pt x="859" y="1353" on="0"/>
        <pt x="793" y="1382" on="0"/>
        <pt x="755" y="1382" on="1"/>
        <pt x="700" y="1382" on="0"/>
        <pt x="604" y="1344" on="0"/>
        <pt x="534" y="1278" on="0"/>
        <pt x="493" y="1190" on="0"/>
        <pt x="493" y="1139" on="1"/>
        <pt x="493" y="1105" on="0"/>
        <pt x="510" y="1046" on="0"/>
        <pt x="542" y="988" on="0"/>
        <pt x="588" y="927" on="0"/>
        <pt x="616" y="891" on="1"/>
        <pt x="677" y="917" on="0"/>
        <pt x="790" y="978" on="0"/>
        <pt x="839" y="1020" on="1"/>
      </contour>
    </TTGlyph>
    <TTGlyph name="aogonek" xMin="104" yMin="-471" xMax="1208" yMax="1063">
      <contour>
        <pt x="1208" y="1036" on="1"/>
        <pt x="1008" y="172" on="1"/>
        <pt x="1169" y="172" on="1"/>
        <pt x="1130" y="0" on="1"/>
        <pt x="1030" y="0" on="1"/>
        <pt x="981" y="-2" on="0"/>
        <pt x="889" y="-45" on="0"/>
        <pt x="815" y="-111" on="0"/>
        <pt x="770" y="-188" on="0"/>
        <pt x="770" y="-225" on="1"/>
        <pt x="770" y="-266" on="0"/>
        <pt x="831" y="-324" on="0"/>
        <pt x="883" y="-324" on="1"/>
        <pt x="922" y="-324" on="0"/>
        <pt x="991" y="-311" on="0"/>
        <pt x="1012" y="-301" on="1"/>
        <pt x="1055" y="-428" on="1"/>
        <pt x="1028" y="-444" on="0"/>
        <pt x="934" y="-471" on="0"/>
        <pt x="877" y="-471" on="1"/>
        <pt x="815" y="-471" on="0"/>
        <pt x="713" y="-442" on="0"/>
        <pt x="639" y="-389" on="0"/>
        <pt x="596" y="-311" on="0"/>
        <pt x="596" y="-260" on="1"/>
        <pt x="596" y="-168" on="0"/>
        <pt x="700" y="-41" on="0"/>
        <pt x="768" y="0" on="1"/>
        <pt x="784" y="70" on="1"/>
        <pt x="717" y="25" on="0"/>
        <pt x="582" y="-18" on="0"/>
        <pt x="510" y="-18" on="1"/>
        <pt x="424" y="-18" on="0"/>
        <pt x="276" y="47" on="0"/>
        <pt x="168" y="162" on="0"/>
        <pt x="104" y="315" on="0"/>
        <pt x="104" y="406" on="1"/>
        <pt x="104" y="551" on="0"/>
        <pt x="207" y="793" on="0"/>
        <pt x="381" y="967" on="0"/>
        <pt x="614" y="1063" on="0"/>
        <pt x="745" y="1063" on="1"/>
        <pt x="821" y="1063" on="0"/>
        <pt x="952" y="1016" on="0"/>
        <pt x="995" y="981" on="1"/>
        <pt x="1008" y="1036" on="1"/>
      </contour>
      <contour>
        <pt x="557" y="154" on="1"/>
        <pt x="633" y="154" on="0"/>
        <pt x="780" y="217" on="0"/>
        <pt x="827" y="256" on="1"/>
        <pt x="954" y="811" on="1"/>
        <pt x="928" y="844" on="0"/>
        <pt x="819" y="891" on="0"/>
        <pt x="731" y="891" on="1"/>
        <pt x="653" y="891" on="0"/>
        <pt x="504" y="827" on="0"/>
        <pt x="385" y="709" on="0"/>
        <pt x="311" y="537" on="0"/>
        <pt x="311" y="426" on="1"/>
        <pt x="311" y="297" on="0"/>
        <pt x="446" y="154" on="0"/>
      </contour>
    </TTGlyph>
    <TTGlyph name="apostrophe" xMin="20" yMin="1087" xMax="344" yMax="1520">
      <contour>
        <pt x="133" y="1520" on="1"/>
        <pt x="344" y="1436" on="1"/>
        <pt x="164" y="1087" on="1"/>
        <pt x="20" y="1141" on="1"/>
      </contour>
    </TTGlyph>
    <TTGlyph name="approxequal" xMin="223" yMin="440" xMax="1169" yMax="877">
      <component glyphName="asciitilde" x="82" y="209" flags="0x204"/>
      <component glyphName="asciitilde" x="0" y="-138" flags="0x4"/>
    </TTGlyph>
    <TTGlyph name="aring" xMin="140" yMin="-18" xMax="1244" yMax="1598">
      <component glyphName="a" x="0" y="0" flags="0x204"/>
      <component glyphName="ring" x="411" y="0" flags="0x4"/>
    </TTGlyph>
    <TTGlyph name="asciicircum" xMin="81" yMin="725" xMax="1006" yMax="1516">
      <contour>
        <pt x="781" y="1516" on="1"/>
        <pt x="1006" y="725" on="1"/>
        <pt x="867" y="725" on="1"/>
        <pt x="700" y="1352" on="1"/>
        <pt x="234" y="725" on="1"/>
        <pt x="81" y="725" on="1"/>
        <pt x="670" y="1516" on="1"/>
      </contour>
    </TTGlyph>
    <TTGlyph name="asciitilde" xMin="141" yMin="369" xMax="1087" yMax="668">
      <contour>
        <pt x="141" y="483" on="1"/>
        <pt x="186" y="567" on="0"/>
        <pt x="308" y="659" on="0"/>
        <pt x="397" y="659" on="1"/>
        <pt x="455" y="659" on="0"/>
        <pt x="578" y="614" on="0"/>
        <pt x="694" y="561" on="0"/>
        <pt x="796" y="516" on="0"/>
        <pt x="834" y="516" on="1"/>
        <pt x="877" y="516" on="0"/>
        <pt x="964" y="585" on="0"/>
        <pt x="1014" y="668" on="1"/>
        <pt x="1087" y="553" on="1"/>
        <pt x="1042" y="469" on="0"/>
        <pt x="921" y="377" on="0"/>
        <pt x="831" y="377" on="1"/>
        <pt x="792" y="377" on="0"/>
        <pt x="712" y="398" on="0"/>
        <pt x="631" y="430" on="0"/>
        <pt x="554" y="467" on="0"/>
        <pt x="483" y="499" on="0"/>
        <pt x="420" y="520" on="0"/>
        <pt x="395" y="520" on="1"/>
        <pt x="352" y="520" on="0"/>
        <pt x="265" y="452" on="0"/>
        <pt x="215" y="369" on="1"/>
      </contour>
    </TTGlyph>
    <TTGlyph name="asterisk" xMin="100" yMin="893" xMax="807" yMax="1546">
      <contour>
        <pt x="535" y="1300" on="1"/>
        <pt x="795" y="1378" on="1"/>
        <pt x="807" y="1241" on="1"/>
        <pt x="550" y="1165" on="1"/>
        <pt x="651" y="963" on="1"/>
        <pt x="526" y="893" on="1"/>
        <pt x="428" y="1095" on="1"/>
        <pt x="244" y="901" on="1"/>
        <pt x="135" y="983" on="1"/>
        <pt x="325" y="1182" on="1"/>
        <pt x="100" y="1260" on="1"/>
        <pt x="166" y="1382" on="1"/>
        <pt x="391" y="1303" on="1"/>
        <pt x="446" y="1546" on="1"/>
        <pt x="592" y="1546" on="1"/>
      </contour>
    </TTGlyph>
    <TTGlyph name="at" xMin="98" yMin="-506" xMax="2170" yMax="1491">
      <contour>
        <pt x="1681" y="956" on="1"/>
        <pt x="1527" y="293" on="1"/>
        <pt x="1517" y="242" on="0"/>
        <pt x="1534" y="182" on="0"/>
        <pt x="1574" y="150" on="0"/>
        <pt x="1607" y="150" on="1"/>
        <pt x="1691" y="150" on="0"/>
        <pt x="1826" y="241" on="0"/>
        <pt x="1922" y="389" on="0"/>
        <pt x="1974" y="577" on="0"/>
        <pt x="1974" y="674" on="1"/>
        <pt x="1974" y="812" on="0"/>
        <pt x="1880" y="1044" on="0"/>
        <pt x="1707" y="1213" on="0"/>
        <pt x="1464" y="1307" on="0"/>
        <pt x="1316" y="1307" on="1"/>
        <pt x="1186" y="1307" on="0"/>
        <pt x="934" y="1240" on="0"/>
        <pt x="707" y="1116" on="0"/>
        <pt x="515" y="941" on="0"/>
        <pt x="375" y="726" on="0"/>
        <pt x="296" y="477" on="0"/>
        <pt x="296" y="340" on="1"/>
        <pt x="296" y="201" on="0"/>
        <pt x="388" y="-41" on="0"/>
        <pt x="557" y="-219" on="0"/>
        <pt x="796" y="-322" on="0"/>
        <pt x="942" y="-322" on="1"/>
        <pt x="1057" y="-322" on="0"/>
        <pt x="1285" y="-261" on="0"/>
        <pt x="1390" y="-205" on="1"/>
        <pt x="1447" y="-362" on="1"/>
        <pt x="1319" y="-431" on="0"/>
        <pt x="1061" y="-506" on="0"/>
        <pt x="919" y="-506" on="1"/>
        <pt x="800" y="-506" on="0"/>
        <pt x="586" y="-446" on="0"/>
        <pt x="404" y="-336" on="0"/>
        <pt x="257" y="-183" on="0"/>
        <pt x="154" y="2" on="0"/>
        <pt x="98" y="214" on="0"/>
        <pt x="98" y="328" on="1"/>
        <pt x="98" y="495" on="0"/>
        <pt x="192" y="798" on="0"/>
        <pt x="359" y="1056" on="0"/>
        <pt x="590" y="1265" on="0"/>
        <pt x="863" y="1412" on="0"/>
        <pt x="1168" y="1491" on="0"/>
        <pt x="1327" y="1491" on="1"/>
        <pt x="1455" y="1491" on="0"/>
        <pt x="1680" y="1433" on="0"/>
        <pt x="1868" y="1328" on="0"/>
        <pt x="2015" y="1180" on="0"/>
        <pt x="2117" y="1002" on="0"/>
        <pt x="2170" y="799" on="0"/>
        <pt x="2170" y="690" on="1"/>
        <pt x="2170" y="600" on="0"/>
        <pt x="2132" y="425" on="0"/>
        <pt x="2061" y="268" on="0"/>
        <pt x="1958" y="135" on="0"/>
        <pt x="1828" y="38" on="0"/>
        <pt x="1673" y="-16" on="0"/>
        <pt x="1585" y="-16" on="1"/>
        <pt x="1488" y="-16" on="0"/>
        <pt x="1376" y="58" on="0"/>
        <pt x="1353" y="120" on="1"/>
        <pt x="1281" y="67" on="0"/>
        <pt x="1111" y="8" on="0"/>
        <pt x="1019" y="8" on="1"/>
        <pt x="930" y="8" on="0"/>
        <pt x="784" y="73" on="0"/>
        <pt x="681" y="183" on="0"/>
        <pt x="624" y="328" on="0"/>
        <pt x="624" y="408" on="1"/>
        <pt x="624" y="485" on="0"/>
        <pt x="669" y="626" on="0"/>
        <pt x="750" y="746" on="0"/>
        <pt x="861" y="844" on="0"/>
        <pt x="993" y="913" on="0"/>
        <pt x="1140" y="950" on="0"/>
        <pt x="1216" y="950" on="1"/>
        <pt x="1293" y="950" on="0"/>
        <pt x="1425" y="906" on="0"/>
        <pt x="1476" y="865" on="1"/>
        <pt x="1497" y="956" on="1"/>
      </contour>
      <contour>
        <pt x="1056" y="193" on="1"/>
        <pt x="1103" y="193" on="0"/>
        <pt x="1190" y="217" on="0"/>
        <pt x="1266" y="259" on="0"/>
        <pt x="1331" y="317" on="0"/>
        <pt x="1356" y="352" on="1"/>
        <pt x="1420" y="624" on="1"/>
        <pt x="1399" y="690" on="0"/>
        <pt x="1277" y="770" on="0"/>
        <pt x="1187" y="770" on="1"/>
        <pt x="1115" y="770" on="0"/>
        <pt x="982" y="712" on="0"/>
        <pt x="880" y="616" on="0"/>
        <pt x="819" y="491" on="0"/>
        <pt x="819" y="424" on="1"/>
        <pt x="819" y="376" on="0"/>
        <pt x="851" y="291" on="0"/>
        <pt x="911" y="229" on="0"/>
        <pt x="999" y="193" on="0"/>
      </contour>
    </TTGlyph>
    <TTGlyph name="atilde" xMin="128" yMin="-18" xMax="1643" yMax="1894">
      <component glyphName="a" x="0" y="0" flags="0x204"/>
      <component glyphName="tilde" x="278" y="0" flags="0x4"/>
    </TTGlyph>
    <TTGlyph name="b" xMin="85" yMin="-18" xMax="1192" yMax="1556">
      <contour>
        <pt x="252" y="1556" on="1"/>
        <pt x="644" y="1556" on="1"/>
        <pt x="509" y="971" on="1"/>
        <pt x="643" y="1063" on="0"/>
        <pt x="787" y="1063" on="1"/>
        <pt x="872" y="1063" on="0"/>
        <pt x="1020" y="997" on="0"/>
        <pt x="1129" y="883" on="0"/>
        <pt x="1192" y="728" on="0"/>
        <pt x="1192" y="639" on="1"/>
        <pt x="1192" y="542" on="0"/>
        <pt x="1146" y="370" on="0"/>
        <pt x="1062" y="224" on="0"/>
        <pt x="944" y="107" on="0"/>
        <pt x="802" y="26" on="0"/>
        <pt x="639" y="-18" on="0"/>
        <pt x="551" y="-18" on="1"/>
        <pt x="474" y="-18" on="0"/>
        <pt x="342" y="28" on="0"/>
        <pt x="300" y="64" on="1"/>
        <pt x="285" y="0" on="1"/>
        <pt x="85" y="0" on="1"/>
        <pt x="403" y="1384" on="1"/>
        <pt x="211" y="1384" on="1"/>
      </contour>
      <contour>
        <pt x="740" y="891" on="1"/>
        <pt x="669" y="891" on="0"/>
        <pt x="526" y="834" on="0"/>
        <pt x="466" y="784" on="1"/>
        <pt x="339" y="235" on="1"/>
        <pt x="365" y="202" on="0"/>
        <pt x="476" y="154" on="0"/>
        <pt x="566" y="154" on="1"/>
        <pt x="643" y="154" on="0"/>
        <pt x="793" y="217" on="0"/>
        <pt x="912" y="336" on="0"/>
        <pt x="986" y="508" on="0"/>
        <pt x="986" y="618" on="1"/>
        <pt x="986" y="682" on="0"/>
        <pt x="950" y="783" on="0"/>
        <pt x="885" y="853" on="0"/>
        <pt x="794" y="891" on="0"/>
      </contour>
    </TTGlyph>
    <TTGlyph name="backslash" xMin="101" yMin="-25" xMax="597" yMax="1581">
      <contour>
        <pt x="101" y="1581" on="1"/>
        <pt x="263" y="1581" on="1"/>
        <pt x="597" y="-25" on="1"/>
        <pt x="435" y="-25" on="1"/>
      </contour>
    </TTGlyph>
    <TTGlyph name="bar" xMin="-68" yMin="-270" xMax="569" yMax="1726">
      <contour>
        <pt x="393" y="1726" on="1"/>
        <pt x="569" y="1726" on="1"/>
        <pt x="108" y="-270" on="1"/>
        <pt x="-68" y="-270" on="1"/>
      </contour>
    </TTGlyph>
    <TTGlyph name="braceleft" xMin="34" yMin="-233" xMax="788" yMax="1700">
      <contour>
        <pt x="34" y="670" on="1"/>
        <pt x="42" y="702" on="0"/>
        <pt x="57" y="765" on="0"/>
        <pt x="65" y="797" on="1"/>
        <pt x="93" y="797" on="0"/>
        <pt x="144" y="818" on="0"/>
        <pt x="190" y="855" on="0"/>
        <pt x="230" y="905" on="0"/>
        <pt x="262" y="964" on="0"/>
        <pt x="286" y="1030" on="0"/>
        <pt x="294" y="1063" on="1"/>
        <pt x="369" y="1389" on="0"/>
        <pt x="380" y="1436" on="1"/>
        <pt x="395" y="1499" on="0"/>
        <pt x="453" y="1597" on="0"/>
        <pt x="528" y="1665" on="0"/>
        <pt x="611" y="1700" on="0"/>
        <pt x="651" y="1700" on="1"/>
        <pt x="686" y="1700" on="0"/>
        <pt x="753" y="1700" on="0"/>
        <pt x="788" y="1700" on="1"/>
        <pt x="780" y="1668" on="0"/>
        <pt x="767" y="1605" on="0"/>
        <pt x="759" y="1573" on="1"/>
        <pt x="742" y="1573" on="0"/>
        <pt x="707" y="1573" on="0"/>
        <pt x="690" y="1573" on="1"/>
        <pt x="663" y="1573" on="0"/>
        <pt x="621" y="1546" on="0"/>
        <pt x="587" y="1495" on="0"/>
        <pt x="561" y="1421" on="0"/>
        <pt x="550" y="1374" on="1"/>
        <pt x="530" y="1286" on="0"/>
        <pt x="491" y="1114" on="0"/>
        <pt x="471" y="1026" on="1"/>
        <pt x="457" y="964" on="0"/>
        <pt x="408" y="868" on="0"/>
        <pt x="345" y="796" on="0"/>
        <pt x="273" y="748" on="0"/>
        <pt x="235" y="735" on="1"/>
        <pt x="234" y="734" on="0"/>
        <pt x="234" y="732" on="0"/>
        <pt x="233" y="731" on="1"/>
        <pt x="252" y="723" on="0"/>
        <pt x="286" y="699" on="0"/>
        <pt x="313" y="668" on="0"/>
        <pt x="333" y="627" on="0"/>
        <pt x="339" y="603" on="1"/>
        <pt x="347" y="570" on="0"/>
        <pt x="344" y="490" on="0"/>
        <pt x="333" y="440" on="1"/>
        <pt x="313" y="352" on="0"/>
        <pt x="273" y="180" on="0"/>
        <pt x="253" y="92" on="1"/>
        <pt x="242" y="44" on="0"/>
        <pt x="235" y="-28" on="0"/>
        <pt x="240" y="-54" on="1"/>
        <pt x="243" y="-67" on="0"/>
        <pt x="253" y="-86" on="0"/>
        <pt x="268" y="-99" on="0"/>
        <pt x="289" y="-106" on="0"/>
        <pt x="303" y="-106" on="1"/>
        <pt x="320" y="-106" on="0"/>
        <pt x="355" y="-106" on="0"/>
        <pt x="372" y="-106" on="1"/>
        <pt x="365" y="-138" on="0"/>
        <pt x="351" y="-201" on="0"/>
        <pt x="344" y="-233" on="1"/>
        <pt x="327" y="-233" on="0"/>
        <pt x="292" y="-233" on="0"/>
        <pt x="275" y="-233" on="1"/>
        <pt x="258" y="-233" on="0"/>
        <pt x="223" y="-233" on="0"/>
        <pt x="206" y="-233" on="1"/>
        <pt x="167" y="-233" on="0"/>
        <pt x="99" y="-198" on="0"/>
        <pt x="54" y="-130" on="0"/>
        <pt x="40" y="-32" on="0"/>
        <pt x="55" y="31" on="1"/>
        <pt x="141" y="403" on="1"/>
        <pt x="155" y="463" on="0"/>
        <pt x="151" y="577" on="0"/>
        <pt x="129" y="615" on="1"/>
        <pt x="124" y="623" on="0"/>
        <pt x="113" y="638" on="0"/>
        <pt x="99" y="650" on="0"/>
        <pt x="83" y="660" on="0"/>
        <pt x="65" y="667" on="0"/>
        <pt x="45" y="670" on="0"/>
      </contour>
    </TTGlyph>
    <TTGlyph name="braceright" xMin="-70" yMin="-233" xMax="684" yMax="1700">
      <contour>
        <pt x="-70" y="-233" on="1"/>
        <pt x="-62" y="-201" on="0"/>
        <pt x="-49" y="-138" on="0"/>
        <pt x="-41" y="-106" on="1"/>
        <pt x="-24" y="-106" on="0"/>
        <pt x="11" y="-106" on="0"/>
        <pt x="28" y="-106" on="1"/>
        <pt x="55" y="-106" on="0"/>
        <pt x="97" y="-79" on="0"/>
        <pt x="131" y="-28" on="0"/>
        <pt x="157" y="45" on="0"/>
        <pt x="168" y="92" on="1"/>
        <pt x="188" y="180" on="0"/>
        <pt x="228" y="352" on="0"/>
        <pt x="248" y="440" on="1"/>
        <pt x="262" y="501" on="0"/>
        <pt x="311" y="598" on="0"/>
        <pt x="372" y="670" on="0"/>
        <pt x="445" y="718" on="0"/>
        <pt x="483" y="731" on="1"/>
        <pt x="484" y="732" on="0"/>
        <pt x="484" y="734" on="0"/>
        <pt x="485" y="735" on="1"/>
        <pt x="465" y="743" on="0"/>
        <pt x="432" y="767" on="0"/>
        <pt x="405" y="798" on="0"/>
        <pt x="385" y="839" on="0"/>
        <pt x="379" y="863" on="1"/>
        <pt x="371" y="896" on="0"/>
        <pt x="373" y="976" on="0"/>
        <pt x="385" y="1026" on="1"/>
        <pt x="406" y="1114" on="0"/>
        <pt x="445" y="1286" on="0"/>
        <pt x="465" y="1374" on="1"/>
        <pt x="475" y="1421" on="0"/>
        <pt x="483" y="1495" on="0"/>
        <pt x="472" y="1546" on="0"/>
        <pt x="442" y="1573" on="0"/>
        <pt x="415" y="1573" on="1"/>
        <pt x="398" y="1573" on="0"/>
        <pt x="363" y="1573" on="0"/>
        <pt x="346" y="1573" on="1"/>
        <pt x="353" y="1605" on="0"/>
        <pt x="367" y="1668" on="0"/>
        <pt x="374" y="1700" on="1"/>
        <pt x="391" y="1700" on="0"/>
        <pt x="426" y="1700" on="0"/>
        <pt x="443" y="1700" on="1"/>
        <pt x="460" y="1700" on="0"/>
        <pt x="495" y="1700" on="0"/>
        <pt x="512" y="1700" on="1"/>
        <pt x="545" y="1700" on="0"/>
        <pt x="603" y="1673" on="0"/>
        <pt x="646" y="1622" on="0"/>
        <pt x="671" y="1548" on="0"/>
        <pt x="671" y="1501" on="1"/>
        <pt x="671" y="1492" on="0"/>
        <pt x="665" y="1453" on="0"/>
        <pt x="647" y="1371" on="0"/>
        <pt x="645" y="1362" on="1"/>
        <pt x="577" y="1063" on="1"/>
        <pt x="569" y="1030" on="0"/>
        <pt x="564" y="964" on="0"/>
        <pt x="569" y="905" on="0"/>
        <pt x="586" y="855" on="0"/>
        <pt x="615" y="818" on="0"/>
        <pt x="656" y="797" on="0"/>
        <pt x="684" y="797" on="1"/>
        <pt x="676" y="765" on="0"/>
        <pt x="661" y="702" on="0"/>
        <pt x="653" y="670" on="1"/>
        <pt x="625" y="670" on="0"/>
        <pt x="573" y="649" on="0"/>
        <pt x="528" y="612" on="0"/>
        <pt x="488" y="561" on="0"/>
        <pt x="456" y="502" on="0"/>
        <pt x="432" y="436" on="0"/>
        <pt x="424" y="403" on="1"/>
        <pt x="413" y="356" on="0"/>
        <pt x="350" y="77" on="0"/>
        <pt x="338" y="31" on="1"/>
        <pt x="323" y="-32" on="0"/>
        <pt x="265" y="-130" on="0"/>
        <pt x="190" y="-198" on="0"/>
        <pt x="106" y="-233" on="0"/>
        <pt x="67" y="-233" on="1"/>
        <pt x="32" y="-233" on="0"/>
        <pt x="-35" y="-233" on="0"/>
      </contour>
    </TTGlyph>
    <TTGlyph name="bracketleft" xMin="22" yMin="-213" xMax="890" yMax="1720">
      <contour>
        <pt x="466" y="1720" on="1"/>
        <pt x="890" y="1720" on="1"/>
        <pt x="856" y="1569" on="1"/>
        <pt x="636" y="1569" on="1"/>
        <pt x="262" y="-61" on="1"/>
        <pt x="481" y="-61" on="1"/>
        <pt x="446" y="-213" on="1"/>
        <pt x="22" y="-213" on="1"/>
      </contour>
    </TTGlyph>
    <TTGlyph name="bracketright" xMin="-75" yMin="-213" xMax="793" yMax="1720">
      <contour>
        <pt x="554" y="1569" on="1"/>
        <pt x="334" y="1569" on="1"/>
        <pt x="369" y="1720" on="1"/>
        <pt x="793" y="1720" on="1"/>
        <pt x="349" y="-213" on="1"/>
        <pt x="-75" y="-213" on="1"/>
        <pt x="-40" y="-61" on="1"/>
        <pt x="179" y="-61" on="1"/>
      </contour>
    </TTGlyph>
    <TTGlyph name="breve" xMin="118" yMin="1149" xMax="871" yMax="1479">
      <contour>
        <pt x="468" y="1149" on="1"/>
        <pt x="385" y="1149" on="0"/>
        <pt x="251" y="1196" on="0"/>
        <pt x="159" y="1288" on="0"/>
        <pt x="118" y="1407" on="0"/>
        <pt x="122" y="1479" on="1"/>
        <pt x="263" y="1479" on="1"/>
        <pt x="265" y="1387" on="0"/>
        <pt x="362" y="1280" on="0"/>
        <pt x="478" y="1280" on="1"/>
        <pt x="576" y="1280" on="0"/>
        <pt x="703" y="1391" on="0"/>
        <pt x="726" y="1479" on="1"/>
        <pt x="871" y="1479" on="1"/>
        <pt x="858" y="1407" on="0"/>
        <pt x="784" y="1288" on="0"/>
        <pt x="683" y="1198" on="0"/>
        <pt x="540" y="1149" on="0"/>
        <pt x="468" y="1149" on="1"/>
      </contour>
    </TTGlyph>
    <TTGlyph name="breve.i" xMin="121" yMin="1149" xMax="791" yMax="1479">
      <contour>
        <pt x="420" y="1149" on="1"/>
        <pt x="342" y="1149" on="0"/>
        <pt x="227" y="1206" on="0"/>
        <pt x="154" y="1300" on="0"/>
        <pt x="121" y="1419" on="0"/>
        <pt x="127" y="1479" on="1"/>
        <pt x="238" y="1479" on="1"/>
        <pt x="236" y="1438" on="0"/>
        <pt x="254" y="1358" on="0"/>
        <pt x="299" y="1296" on="0"/>
        <pt x="375" y="1257" on="0"/>
        <pt x="428" y="1257" on="1"/>
        <pt x="489" y="1257" on="0"/>
        <pt x="580" y="1315" on="0"/>
        <pt x="641" y="1391" on="0"/>
        <pt x="676" y="1462" on="0"/>
        <pt x="680" y="1479" on="1"/>
        <pt x="791" y="1479" on="1"/>
        <pt x="786" y="1434" on="0"/>
        <pt x="739" y="1319" on="0"/>
        <pt x="647" y="1219" on="0"/>
        <pt x="512" y="1149" on="0"/>
      </contour>
    </TTGlyph>
    <TTGlyph name="brokenbar" xMin="-37" yMin="-268" xMax="600" yMax="1729">
      <contour>
        <pt x="423" y="1729" on="1"/>
        <pt x="600" y="1729" on="1"/>
        <pt x="425" y="979" on="1"/>
        <pt x="249" y="979" on="1"/>
      </contour>
      <contour>
        <pt x="135" y="481" on="1"/>
        <pt x="311" y="481" on="1"/>
        <pt x="139" y="-268" on="1"/>
        <pt x="-37" y="-268" on="1"/>
      </contour>
    </TTGlyph>
    <TTGlyph name="bullet" xMin="219" yMin="287" xMax="737" yMax="803">
      <contour>
        <pt x="219" y="545" on="1"/>
        <pt x="219" y="599" on="0"/>
        <pt x="259" y="693" on="0"/>
        <pt x="329" y="763" on="0"/>
        <pt x="423" y="803" on="0"/>
        <pt x="477" y="803" on="1"/>
        <pt x="531" y="803" on="0"/>
        <pt x="625" y="763" on="0"/>
        <pt x="696" y="694" on="0"/>
        <pt x="737" y="599" on="0"/>
        <pt x="737" y="545" on="1"/>
        <pt x="737" y="490" on="0"/>
        <pt x="696" y="396" on="0"/>
        <pt x="625" y="327" on="0"/>
        <pt x="531" y="287" on="0"/>
        <pt x="477" y="287" on="1"/>
        <pt x="423" y="287" on="0"/>
        <pt x="329" y="327" on="0"/>
        <pt x="259" y="396" on="0"/>
        <pt x="219" y="490" on="0"/>
      </contour>
    </TTGlyph>
    <TTGlyph name="c" xMin="95" yMin="-25" xMax="1158" yMax="1067">
      <contour>
        <pt x="921" y="731" on="1"/>
        <pt x="905" y="771" on="0"/>
        <pt x="852" y="831" on="0"/>
        <pt x="784" y="871" on="0"/>
        <pt x="704" y="891" on="0"/>
        <pt x="661" y="891" on="1"/>
        <pt x="606" y="891" on="0"/>
        <pt x="481" y="834" on="0"/>
        <pt x="374" y="724" on="0"/>
        <pt x="304" y="564" on="0"/>
        <pt x="304" y="461" on="1"/>
        <pt x="304" y="386" on="0"/>
        <pt x="348" y="271" on="0"/>
        <pt x="422" y="193" on="0"/>
        <pt x="520" y="154" on="0"/>
        <pt x="575" y="154" on="1"/>
        <pt x="615" y="154" on="0"/>
        <pt x="685" y="167" on="0"/>
        <pt x="748" y="198" on="0"/>
        <pt x="808" y="248" on="0"/>
        <pt x="837" y="285" on="1"/>
        <pt x="982" y="176" on="1"/>
        <pt x="943" y="121" on="0"/>
        <pt x="845" y="44" on="0"/>
        <pt x="737" y="-4" on="0"/>
        <pt x="622" y="-25" on="0"/>
        <pt x="566" y="-25" on="1"/>
        <pt x="464" y="-25" on="0"/>
        <pt x="291" y="48" on="0"/>
        <pt x="166" y="176" on="0"/>
        <pt x="95" y="349" on="0"/>
        <pt x="95" y="449" on="1"/>
        <pt x="95" y="585" on="0"/>
        <pt x="197" y="812" on="0"/>
        <pt x="363" y="976" on="0"/>
        <pt x="572" y="1067" on="0"/>
        <pt x="679" y="1067" on="1"/>
        <pt x="729" y="1067" on="0"/>
        <pt x="829" y="1048" on="0"/>
        <pt x="921" y="1007" on="0"/>
        <pt x="1001" y="945" on="0"/>
        <pt x="1033" y="903" on="1"/>
        <pt x="1158" y="903" on="1"/>
        <pt x="1130" y="731" on="1"/>
        <pt x="921" y="731" on="1"/>
      </contour>
    </TTGlyph>
    <TTGlyph name="cacute" xMin="95" yMin="-25" xMax="3054" yMax="2384">
      <component glyphName="c" x="0" y="0" flags="0x204"/>
      <component glyphName="acute" x="520" y="31" flags="0x4"/>
    </TTGlyph>
    <TTGlyph name="caron" xMin="159" yMin="1171" xMax="718" yMax="1444">
      <contour>
        <pt x="718" y="1444" on="1"/>
        <pt x="421" y="1171" on="1"/>
        <pt x="308" y="1171" on="1"/>
        <pt x="159" y="1444" on="1"/>
        <pt x="325" y="1444" on="1"/>
        <pt x="392" y="1315" on="1"/>
        <pt x="521" y="1444" on="1"/>
      </contour>
    </TTGlyph>
    <TTGlyph name="caron.i" xMin="117" yMin="1171" xMax="676" yMax="1444">
      <contour>
        <pt x="676" y="1444" on="1"/>
        <pt x="379" y="1171" on="1"/>
        <pt x="266" y="1171" on="1"/>
        <pt x="117" y="1444" on="1"/>
        <pt x="283" y="1444" on="1"/>
        <pt x="350" y="1315" on="1"/>
        <pt x="479" y="1444" on="1"/>
      </contour>
    </TTGlyph>
    <TTGlyph name="ccaron" xMin="95" yMin="-25" xMax="1810" yMax="1923">
      <component glyphName="c" x="0" y="0" flags="0x204"/>
      <component glyphName="caron" x="408" y="0" flags="0x4"/>
    </TTGlyph>
    <TTGlyph name="ccedilla" xMin="95" yMin="-432" xMax="1158" yMax="1067">
      <component glyphName="c" x="0" y="0" flags="0x204"/>
      <component glyphName="cedilla" x="125" y="0" flags="0x4"/>
    </TTGlyph>
    <TTGlyph name="cedilla" xMin="182" yMin="-432" xMax="594" yMax="-78">
      <contour>
        <pt x="182" y="-303" on="1"/>
        <pt x="237" y="-302" on="0"/>
        <pt x="326" y="-265" on="0"/>
        <pt x="393" y="-205" on="0"/>
        <pt x="436" y="-124" on="0"/>
        <pt x="444" y="-78" on="1"/>
        <pt x="594" y="-123" on="1"/>
        <pt x="576" y="-196" on="0"/>
        <pt x="500" y="-311" on="0"/>
        <pt x="395" y="-390" on="0"/>
        <pt x="265" y="-432" on="0"/>
        <pt x="193" y="-432" on="1"/>
      </contour>
    </TTGlyph>
    <TTGlyph name="cent" xMin="106" yMin="-242" xMax="1169" yMax="1311">
      <contour>
        <pt x="352" y="-242" on="1"/>
        <pt x="409" y="3" on="1"/>
        <pt x="309" y="41" on="0"/>
        <pt x="176" y="176" on="0"/>
        <pt x="106" y="349" on="0"/>
        <pt x="106" y="449" on="1"/>
        <pt x="106" y="585" on="0"/>
        <pt x="208" y="812" on="0"/>
        <pt x="374" y="976" on="0"/>
        <pt x="564" y="1059" on="0"/>
        <pt x="653" y="1065" on="1"/>
        <pt x="710" y="1311" on="1"/>
        <pt x="907" y="1311" on="1"/>
        <pt x="845" y="1043" on="1"/>
        <pt x="922" y="1017" on="0"/>
        <pt x="1012" y="945" on="0"/>
        <pt x="1044" y="903" on="1"/>
        <pt x="1169" y="903" on="1"/>
        <pt x="1140" y="731" on="1"/>
        <pt x="931" y="731" on="1"/>
        <pt x="915" y="771" on="0"/>
        <pt x="862" y="831" on="0"/>
        <pt x="794" y="871" on="0"/>
        <pt x="714" y="891" on="0"/>
        <pt x="671" y="891" on="1"/>
        <pt x="635" y="891" on="0"/>
        <pt x="554" y="865" on="0"/>
        <pt x="475" y="815" on="0"/>
        <pt x="403" y="742" on="0"/>
        <pt x="348" y="646" on="0"/>
        <pt x="315" y="529" on="0"/>
        <pt x="315" y="461" on="1"/>
        <pt x="315" y="386" on="0"/>
        <pt x="359" y="271" on="0"/>
        <pt x="433" y="193" on="0"/>
        <pt x="531" y="154" on="0"/>
        <pt x="585" y="154" on="1"/>
        <pt x="625" y="154" on="0"/>
        <pt x="695" y="167" on="0"/>
        <pt x="758" y="198" on="0"/>
        <pt x="818" y="248" on="0"/>
        <pt x="847" y="285" on="1"/>
        <pt x="993" y="176" on="1"/>
        <pt x="954" y="121" on="0"/>
        <pt x="856" y="44" on="0"/>
        <pt x="747" y="-4" on="0"/>
        <pt x="644" y="-23" on="0"/>
        <pt x="598" y="-25" on="1"/>
        <pt x="548" y="-242" on="1"/>
      </contour>
    </TTGlyph>
    <TTGlyph name="circumflex" xMin="172" yMin="1171" xMax="731" yMax="1444">
      <contour>
        <pt x="172" y="1171" on="1"/>
        <pt x="469" y="1444" on="1"/>
        <pt x="580" y="1444" on="1"/>
        <pt x="731" y="1171" on="1"/>
        <pt x="561" y="1171" on="1"/>
        <pt x="497" y="1296" on="1"/>
        <pt x="378" y="1171" on="1"/>
      </contour>
    </TTGlyph>
    <TTGlyph name="circumflex.i" xMin="147" yMin="1171" xMax="646" yMax="1444">
      <contour>
        <pt x="147" y="1171" on="1"/>
        <pt x="414" y="1444" on="1"/>
        <pt x="526" y="1444" on="1"/>
        <pt x="646" y="1171" on="1"/>
        <pt x="486" y="1171" on="1"/>
        <pt x="442" y="1296" on="1"/>
        <pt x="337" y="1171" on="1"/>
      </contour>
    </TTGlyph>
    <TTGlyph name="colon" xMin="175" yMin="-506" xMax="516" yMax="1037">
      <component glyphName="dotaccent" x="82" y="-495" flags="0x4"/>
      <component glyphName="dotaccent" x="-81" y="-1281" flags="0x4"/>
    </TTGlyph>
    <TTGlyph name="comma" xMin="-3" yMin="-340" xMax="424" yMax="283">
      <contour>
        <pt x="205" y="283" on="1"/>
        <pt x="424" y="197" on="1"/>
        <pt x="168" y="-340" on="1"/>
        <pt x="-3" y="-273" on="1"/>
      </contour>
    </TTGlyph>
    <TTGlyph name="commaaccent" xMin="32" yMin="1138" xMax="334" yMax="1561">
      <contour>
        <pt x="221" y="1138" on="1"/>
        <pt x="32" y="1212" on="1"/>
        <pt x="213" y="1561" on="1"/>
        <pt x="334" y="1517" on="1"/>
      </contour>
    </TTGlyph>
    <TTGlyph name="commabelow" xMin="20" yMin="-473" xMax="344" yMax="-41">
      <contour>
        <pt x="133" y="-41" on="1"/>
        <pt x="344" y="-125" on="1"/>
        <pt x="164" y="-473" on="1"/>
        <pt x="20" y="-420" on="1"/>
      </contour>
    </TTGlyph>
    <TTGlyph name="copyright" xMin="102" yMin="-25" xMax="1817" yMax="1686">
      <contour>
        <pt x="102" y="831" on="1"/>
        <pt x="102" y="949" on="0"/>
        <pt x="163" y="1168" on="0"/>
        <pt x="274" y="1358" on="0"/>
        <pt x="430" y="1514" on="0"/>
        <pt x="620" y="1625" on="0"/>
        <pt x="839" y="1686" on="0"/>
        <pt x="958" y="1686" on="1"/>
        <pt x="1076" y="1686" on="0"/>
        <pt x="1296" y="1625" on="0"/>
        <pt x="1487" y="1514" on="0"/>
        <pt x="1644" y="1358" on="0"/>
        <pt x="1756" y="1168" on="0"/>
        <pt x="1817" y="949" on="0"/>
        <pt x="1817" y="831" on="1"/>
        <pt x="1817" y="712" on="0"/>
        <pt x="1756" y="493" on="0"/>
        <pt x="1644" y="303" on="0"/>
        <pt x="1487" y="147" on="0"/>
        <pt x="1296" y="36" on="0"/>
        <pt x="1076" y="-25" on="0"/>
        <pt x="958" y="-25" on="1"/>
        <pt x="839" y="-25" on="0"/>
        <pt x="620" y="36" on="0"/>
        <pt x="430" y="147" on="0"/>
        <pt x="274" y="303" on="0"/>
        <pt x="163" y="493" on="0"/>
        <pt x="102" y="712" on="0"/>
      </contour>
      <contour>
        <pt x="283" y="831" on="1"/>
        <pt x="283" y="689" on="0"/>
        <pt x="388" y="442" on="0"/>
        <pt x="571" y="259" on="0"/>
        <pt x="817" y="154" on="0"/>
        <pt x="958" y="154" on="1"/>
        <pt x="1099" y="154" on="0"/>
        <pt x="1344" y="259" on="0"/>
        <pt x="1529" y="442" on="0"/>
        <pt x="1634" y="689" on="0"/>
        <pt x="1634" y="831" on="1"/>
        <pt x="1634" y="971" on="0"/>
        <pt x="1529" y="1230" on="0"/>
        <pt x="1344" y="1402" on="0"/>
        <pt x="1099" y="1507" on="0"/>
        <pt x="958" y="1507" on="1"/>
        <pt x="817" y="1507" on="0"/>
        <pt x="571" y="1402" on="0"/>
        <pt x="388" y="1230" on="0"/>
        <pt x="283" y="971" on="0"/>
      </contour>
      <contour>
        <pt x="1190" y="1059" on="1"/>
        <pt x="1142" y="1105" on="0"/>
        <pt x="1037" y="1147" on="0"/>
        <pt x="979" y="1147" on="1"/>
        <pt x="915" y="1147" on="0"/>
        <pt x="803" y="1098" on="0"/>
        <pt x="720" y="1012" on="0"/>
        <pt x="672" y="898" on="0"/>
        <pt x="672" y="834" on="1"/>
        <pt x="672" y="770" on="0"/>
        <pt x="720" y="658" on="0"/>
        <pt x="803" y="574" on="0"/>
        <pt x="915" y="526" on="0"/>
        <pt x="979" y="526" on="1"/>
        <pt x="1035" y="526" on="0"/>
        <pt x="1140" y="571" on="0"/>
        <pt x="1171" y="606" on="1"/>
        <pt x="1305" y="477" on="1"/>
        <pt x="1282" y="447" on="0"/>
        <pt x="1210" y="394" on="0"/>
        <pt x="1124" y="355" on="0"/>
        <pt x="1027" y="332" on="0"/>
        <pt x="979" y="332" on="1"/>
        <pt x="874" y="332" on="0"/>
        <pt x="691" y="410" on="0"/>
        <pt x="555" y="546" on="0"/>
        <pt x="477" y="729" on="0"/>
        <pt x="477" y="834" on="1"/>
        <pt x="477" y="938" on="0"/>
        <pt x="555" y="1121" on="0"/>
        <pt x="691" y="1258" on="0"/>
        <pt x="874" y="1337" on="0"/>
        <pt x="979" y="1337" on="1"/>
        <pt x="1037" y="1337" on="0"/>
        <pt x="1140" y="1312" on="0"/>
        <pt x="1229" y="1271" on="0"/>
        <pt x="1302" y="1218" on="0"/>
        <pt x="1331" y="1190" on="1"/>
      </contour>
    </TTGlyph>
    <TTGlyph name="currency" xMin="75" yMin="184" xMax="1298" yMax="1325">
      <contour>
        <pt x="235" y="680" on="1"/>
        <pt x="235" y="783" on="0"/>
        <pt x="319" y="962" on="0"/>
        <pt x="390" y="1031" on="1"/>
        <pt x="264" y="1208" on="1"/>
        <pt x="407" y="1325" on="1"/>
        <pt x="540" y="1135" on="1"/>
        <pt x="596" y="1162" on="0"/>
        <pt x="716" y="1192" on="0"/>
        <pt x="778" y="1192" on="1"/>
        <pt x="840" y="1192" on="0"/>
        <pt x="949" y="1156" on="0"/>
        <pt x="995" y="1124" on="1"/>
        <pt x="1185" y="1290" on="1"/>
        <pt x="1298" y="1159" on="1"/>
        <pt x="1110" y="993" on="1"/>
        <pt x="1133" y="951" on="0"/>
        <pt x="1157" y="858" on="0"/>
        <pt x="1157" y="807" on="1"/>
        <pt x="1157" y="708" on="0"/>
        <pt x="1079" y="536" on="0"/>
        <pt x="1013" y="468" on="1"/>
        <pt x="1134" y="299" on="1"/>
        <pt x="987" y="186" on="1"/>
        <pt x="864" y="358" on="1"/>
        <pt x="805" y="328" on="0"/>
        <pt x="678" y="295" on="0"/>
        <pt x="612" y="295" on="1"/>
        <pt x="550" y="295" on="0"/>
        <pt x="440" y="331" on="0"/>
        <pt x="394" y="364" on="1"/>
        <pt x="188" y="184" on="1"/>
        <pt x="75" y="317" on="1"/>
        <pt x="280" y="496" on="1"/>
        <pt x="258" y="538" on="0"/>
        <pt x="235" y="630" on="0"/>
      </contour>
      <contour>
        <pt x="411" y="694" on="1"/>
        <pt x="411" y="646" on="0"/>
        <pt x="443" y="564" on="0"/>
        <pt x="501" y="502" on="0"/>
        <pt x="583" y="467" on="0"/>
        <pt x="634" y="467" on="1"/>
        <pt x="700" y="467" on="0"/>
        <pt x="827" y="521" on="0"/>
        <pt x="926" y="612" on="0"/>
        <pt x="987" y="733" on="0"/>
        <pt x="987" y="801" on="1"/>
        <pt x="987" y="849" on="0"/>
        <pt x="955" y="931" on="0"/>
        <pt x="896" y="993" on="0"/>
        <pt x="813" y="1028" on="0"/>
        <pt x="763" y="1028" on="1"/>
        <pt x="696" y="1028" on="0"/>
        <pt x="570" y="974" on="0"/>
        <pt x="471" y="883" on="0"/>
        <pt x="411" y="761" on="0"/>
      </contour>
    </TTGlyph>
    <TTGlyph name="cyr.dotlessi" xMin="1049" yMin="0" xMax="1491" yMax="1036">
      <contour>
        <pt x="1288" y="1036" on="1"/>
        <pt x="1491" y="1036" on="1"/>
        <pt x="1290" y="172" on="1"/>
        <pt x="1456" y="172" on="1"/>
        <pt x="1417" y="0" on="1"/>
        <pt x="1049" y="0" on="1"/>
      </contour>
    </TTGlyph>
    <TTGlyph name="d" xMin="75" yMin="-20" xMax="1297" yMax="1556">
      <contour>
        <pt x="923" y="1556" on="1"/>
        <pt x="1297" y="1556" on="1"/>
        <pt x="978" y="172" on="1"/>
        <pt x="1150" y="172" on="1"/>
        <pt x="1111" y="0" on="1"/>
        <pt x="738" y="0" on="1"/>
        <pt x="753" y="67" on="1"/>
        <pt x="696" y="28" on="0"/>
        <pt x="571" y="-20" on="0"/>
        <pt x="499" y="-20" on="1"/>
        <pt x="410" y="-20" on="0"/>
        <pt x="256" y="48" on="0"/>
        <pt x="141" y="168" on="0"/>
        <pt x="75" y="331" on="0"/>
        <pt x="75" y="426" on="1"/>
        <pt x="75" y="564" on="0"/>
        <pt x="173" y="798" on="0"/>
        <pt x="342" y="970" on="0"/>
        <pt x="567" y="1067" on="0"/>
        <pt x="695" y="1067" on="1"/>
        <pt x="775" y="1067" on="0"/>
        <pt x="913" y="1021" on="0"/>
        <pt x="964" y="981" on="1"/>
        <pt x="1057" y="1384" on="1"/>
        <pt x="882" y="1384" on="1"/>
      </contour>
      <contour>
        <pt x="546" y="154" on="1"/>
        <pt x="609" y="154" on="0"/>
        <pt x="744" y="210" on="0"/>
        <pt x="799" y="264" on="1"/>
        <pt x="923" y="801" on="1"/>
        <pt x="886" y="844" on="0"/>
        <pt x="768" y="891" on="0"/>
        <pt x="683" y="891" on="1"/>
        <pt x="608" y="891" on="0"/>
        <pt x="463" y="828" on="0"/>
        <pt x="351" y="712" on="0"/>
        <pt x="282" y="546" on="0"/>
        <pt x="282" y="444" on="1"/>
        <pt x="282" y="377" on="0"/>
        <pt x="321" y="270" on="0"/>
        <pt x="391" y="195" on="0"/>
        <pt x="488" y="154" on="0"/>
      </contour>
    </TTGlyph>
    <TTGlyph name="dagger" xMin="260" yMin="-471" xMax="1315" yMax="1513">
      <contour>
        <pt x="291" y="1036" on="1"/>
        <pt x="707" y="1036" on="1"/>
        <pt x="817" y="1513" on="1"/>
        <pt x="1024" y="1513" on="1"/>
        <pt x="913" y="1036" on="1"/>
        <pt x="1315" y="1036" on="1"/>
        <pt x="1284" y="864" on="1"/>
        <pt x="872" y="864" on="1"/>
        <pt x="565" y="-471" on="1"/>
        <pt x="358" y="-471" on="1"/>
        <pt x="666" y="864" on="1"/>
        <pt x="260" y="864" on="1"/>
      </contour>
    </TTGlyph>
    <TTGlyph name="daggerdbl" xMin="51" yMin="-471" xMax="1280" yMax="1513">
      <contour>
        <pt x="254" y="885" on="1"/>
        <pt x="672" y="885" on="1"/>
        <pt x="817" y="1513" on="1"/>
        <pt x="1024" y="1513" on="1"/>
        <pt x="879" y="885" on="1"/>
        <pt x="1280" y="885" on="1"/>
        <pt x="1241" y="717" on="1"/>
        <pt x="840" y="717" on="1"/>
        <pt x="713" y="172" on="1"/>
        <pt x="1114" y="172" on="1"/>
        <pt x="1075" y="0" on="1"/>
        <pt x="674" y="0" on="1"/>
        <pt x="565" y="-471" on="1"/>
        <pt x="358" y="-471" on="1"/>
        <pt x="467" y="0" on="1"/>
        <pt x="51" y="0" on="1"/>
        <pt x="90" y="172" on="1"/>
        <pt x="506" y="172" on="1"/>
        <pt x="633" y="717" on="1"/>
        <pt x="215" y="717" on="1"/>
      </contour>
    </TTGlyph>
    <TTGlyph name="dcaron" xMin="75" yMin="-20" xMax="1590" yMax="1581">
      <component glyphName="d" x="0" y="0" flags="0x4"/>
      <component glyphName="quotesingle" x="1186" y="0" flags="0x4"/>
    </TTGlyph>
    <TTGlyph name="dcroat" xMin="76" yMin="-20" xMax="1425" yMax="1556">
      <contour>
        <pt x="1202" y="1139" on="1"/>
        <pt x="1147" y="897" on="0"/>
        <pt x="1034" y="414" on="0"/>
        <pt x="979" y="172" on="1"/>
        <pt x="1151" y="172" on="1"/>
        <pt x="1141" y="129" on="0"/>
        <pt x="1122" y="43" on="0"/>
        <pt x="1112" y="0" on="1"/>
        <pt x="739" y="0" on="1"/>
        <pt x="743" y="16" on="0"/>
        <pt x="750" y="51" on="0"/>
        <pt x="754" y="68" on="1"/>
        <pt x="698" y="27" on="0"/>
        <pt x="571" y="-20" on="0"/>
        <pt x="500" y="-20" on="1"/>
        <pt x="412" y="-20" on="0"/>
        <pt x="256" y="49" on="0"/>
        <pt x="141" y="168" on="0"/>
        <pt x="76" y="332" on="0"/>
        <pt x="76" y="426" on="1"/>
        <pt x="76" y="563" on="0"/>
        <pt x="174" y="799" on="0"/>
        <pt x="342" y="971" on="0"/>
        <pt x="569" y="1067" on="0"/>
        <pt x="696" y="1067" on="1"/>
        <pt x="735" y="1067" on="0"/>
        <pt x="811" y="1055" on="0"/>
        <pt x="879" y="1032" on="0"/>
        <pt x="940" y="1001" on="0"/>
        <pt x="965" y="981" on="1"/>
        <pt x="975" y="1022" on="0"/>
        <pt x="991" y="1098" on="0"/>
        <pt x="1001" y="1139" on="1"/>
        <pt x="815" y="1139" on="1"/>
        <pt x="825" y="1182" on="0"/>
        <pt x="844" y="1268" on="0"/>
        <pt x="854" y="1311" on="1"/>
        <pt x="1040" y="1311" on="1"/>
        <pt x="1044" y="1329" on="0"/>
        <pt x="1053" y="1366" on="0"/>
        <pt x="1057" y="1384" on="1"/>
        <pt x="883" y="1384" on="1"/>
        <pt x="893" y="1427" on="0"/>
        <pt x="913" y="1513" on="0"/>
        <pt x="924" y="1556" on="1"/>
        <pt x="1298" y="1556" on="1"/>
        <pt x="1284" y="1495" on="0"/>
        <pt x="1255" y="1372" on="0"/>
        <pt x="1241" y="1311" on="1"/>
        <pt x="1425" y="1311" on="1"/>
        <pt x="1415" y="1268" on="0"/>
        <pt x="1397" y="1182" on="0"/>
        <pt x="1386" y="1139" on="1"/>
      </contour>
      <contour>
        <pt x="547" y="154" on="1"/>
        <pt x="610" y="154" on="0"/>
        <pt x="743" y="209" on="0"/>
        <pt x="799" y="262" on="1"/>
        <pt x="829" y="397" on="0"/>
        <pt x="893" y="666" on="0"/>
        <pt x="924" y="801" on="1"/>
        <pt x="887" y="844" on="0"/>
        <pt x="770" y="891" on="0"/>
        <pt x="684" y="891" on="1"/>
        <pt x="608" y="891" on="0"/>
        <pt x="465" y="827" on="0"/>
        <pt x="352" y="711" on="0"/>
        <pt x="283" y="547" on="0"/>
        <pt x="283" y="444" on="1"/>
        <pt x="283" y="309" on="0"/>
        <pt x="430" y="154" on="0"/>
      </contour>
    </TTGlyph>
    <TTGlyph name="degree" xMin="102" yMin="1260" xMax="580" yMax="1737">
      <contour>
        <pt x="340" y="1737" on="1"/>
        <pt x="389" y="1737" on="0"/>
        <pt x="476" y="1699" on="0"/>
        <pt x="542" y="1633" on="0"/>
        <pt x="580" y="1546" on="0"/>
        <pt x="580" y="1497" on="1"/>
        <pt x="580" y="1448" on="0"/>
        <pt x="542" y="1362" on="0"/>
        <pt x="476" y="1297" on="0"/>
        <pt x="389" y="1260" on="0"/>
        <pt x="340" y="1260" on="1"/>
        <pt x="291" y="1260" on="0"/>
        <pt x="204" y="1297" on="0"/>
        <pt x="140" y="1362" on="0"/>
        <pt x="102" y="1448" on="0"/>
        <pt x="102" y="1497" on="1"/>
        <pt x="102" y="1546" on="0"/>
        <pt x="140" y="1633" on="0"/>
        <pt x="204" y="1699" on="0"/>
        <pt x="291" y="1737" on="0"/>
      </contour>
      <contour>
        <pt x="205" y="1497" on="1"/>
        <pt x="205" y="1469" on="0"/>
        <pt x="226" y="1420" on="0"/>
        <pt x="263" y="1383" on="0"/>
        <pt x="312" y="1362" on="0"/>
        <pt x="340" y="1362" on="1"/>
        <pt x="368" y="1362" on="0"/>
        <pt x="417" y="1383" on="0"/>
        <pt x="455" y="1420" on="0"/>
        <pt x="477" y="1469" on="0"/>
        <pt x="477" y="1497" on="1"/>
        <pt x="477" y="1525" on="0"/>
        <pt x="455" y="1574" on="0"/>
        <pt x="417" y="1612" on="0"/>
        <pt x="368" y="1634" on="0"/>
        <pt x="340" y="1634" on="1"/>
        <pt x="312" y="1634" on="0"/>
        <pt x="263" y="1612" on="0"/>
        <pt x="226" y="1574" on="0"/>
        <pt x="205" y="1525" on="0"/>
      </contour>
    </TTGlyph>
    <TTGlyph name="dieresis" xMin="162" yMin="1227" xMax="875" yMax="1489">
      <contour>
        <pt x="162" y="1360" on="1"/>
        <pt x="162" y="1386" on="0"/>
        <pt x="183" y="1433" on="0"/>
        <pt x="218" y="1468" on="0"/>
        <pt x="265" y="1489" on="0"/>
        <pt x="291" y="1489" on="1"/>
        <pt x="316" y="1489" on="0"/>
        <pt x="362" y="1468" on="0"/>
        <pt x="396" y="1433" on="0"/>
        <pt x="416" y="1386" on="0"/>
        <pt x="416" y="1360" on="1"/>
        <pt x="416" y="1333" on="0"/>
        <pt x="396" y="1285" on="0"/>
        <pt x="362" y="1248" on="0"/>
        <pt x="316" y="1227" on="0"/>
        <pt x="291" y="1227" on="1"/>
        <pt x="265" y="1227" on="0"/>
        <pt x="218" y="1248" on="0"/>
        <pt x="183" y="1285" on="0"/>
        <pt x="162" y="1333" on="0"/>
      </contour>
      <contour>
        <pt x="621" y="1360" on="1"/>
        <pt x="621" y="1386" on="0"/>
        <pt x="642" y="1433" on="0"/>
        <pt x="677" y="1468" on="0"/>
        <pt x="724" y="1489" on="0"/>
        <pt x="750" y="1489" on="1"/>
        <pt x="775" y="1489" on="0"/>
        <pt x="820" y="1468" on="0"/>
        <pt x="855" y="1433" on="0"/>
        <pt x="875" y="1386" on="0"/>
        <pt x="875" y="1360" on="1"/>
        <pt x="875" y="1333" on="0"/>
        <pt x="855" y="1285" on="0"/>
        <pt x="820" y="1248" on="0"/>
        <pt x="775" y="1227" on="0"/>
        <pt x="750" y="1227" on="1"/>
        <pt x="724" y="1227" on="0"/>
        <pt x="677" y="1248" on="0"/>
        <pt x="642" y="1285" on="0"/>
        <pt x="621" y="1333" on="0"/>
      </contour>
    </TTGlyph>
    <TTGlyph name="dieresis.i" xMin="231" yMin="1227" xMax="801" yMax="1489">
      <contour>
        <pt x="231" y="1360" on="1"/>
        <pt x="231" y="1413" on="0"/>
        <pt x="307" y="1489" on="0"/>
        <pt x="360" y="1489" on="1"/>
        <pt x="385" y="1489" on="0"/>
        <pt x="432" y="1468" on="0"/>
        <pt x="465" y="1434" on="0"/>
        <pt x="485" y="1386" on="0"/>
        <pt x="485" y="1360" on="1"/>
        <pt x="485" y="1333" on="0"/>
        <pt x="465" y="1284" on="0"/>
        <pt x="432" y="1247" on="0"/>
        <pt x="385" y="1227" on="0"/>
        <pt x="360" y="1227" on="1"/>
        <pt x="307" y="1227" on="0"/>
        <pt x="231" y="1307" on="0"/>
      </contour>
      <contour>
        <pt x="547" y="1360" on="1"/>
        <pt x="547" y="1413" on="0"/>
        <pt x="623" y="1489" on="0"/>
        <pt x="676" y="1489" on="1"/>
        <pt x="700" y="1489" on="0"/>
        <pt x="748" y="1468" on="0"/>
        <pt x="780" y="1434" on="0"/>
        <pt x="801" y="1386" on="0"/>
        <pt x="801" y="1360" on="1"/>
        <pt x="801" y="1333" on="0"/>
        <pt x="780" y="1284" on="0"/>
        <pt x="748" y="1247" on="0"/>
        <pt x="700" y="1227" on="0"/>
        <pt x="676" y="1227" on="1"/>
        <pt x="623" y="1227" on="0"/>
        <pt x="547" y="1307" on="0"/>
      </contour>
    </TTGlyph>
    <TTGlyph name="divide" xMin="225" yMin="168" xMax="1210" yMax="1220">
      <contour>
        <pt x="225" y="614" on="1"/>
        <pt x="264" y="786" on="1"/>
        <pt x="1210" y="786" on="1"/>
        <pt x="1171" y="614" on="1"/>
      </contour>
      <contour>
        <pt x="650" y="1089" on="1"/>
        <pt x="650" y="1116" on="0"/>
        <pt x="671" y="1164" on="0"/>
        <pt x="707" y="1199" on="0"/>
        <pt x="755" y="1220" on="0"/>
        <pt x="783" y="1220" on="1"/>
        <pt x="810" y="1220" on="0"/>
        <pt x="858" y="1199" on="0"/>
        <pt x="893" y="1164" on="0"/>
        <pt x="914" y="1116" on="0"/>
        <pt x="914" y="1089" on="1"/>
        <pt x="914" y="1062" on="0"/>
        <pt x="893" y="1013" on="0"/>
        <pt x="858" y="976" on="0"/>
        <pt x="810" y="954" on="0"/>
        <pt x="783" y="954" on="1"/>
        <pt x="755" y="954" on="0"/>
        <pt x="707" y="976" on="0"/>
        <pt x="671" y="1013" on="0"/>
        <pt x="650" y="1062" on="0"/>
      </contour>
      <contour>
        <pt x="496" y="303" on="1"/>
        <pt x="496" y="330" on="0"/>
        <pt x="517" y="378" on="0"/>
        <pt x="553" y="413" on="0"/>
        <pt x="601" y="434" on="0"/>
        <pt x="629" y="434" on="1"/>
        <pt x="656" y="434" on="0"/>
        <pt x="704" y="413" on="0"/>
        <pt x="739" y="378" on="0"/>
        <pt x="760" y="330" on="0"/>
        <pt x="760" y="303" on="1"/>
        <pt x="760" y="276" on="0"/>
        <pt x="739" y="227" on="0"/>
        <pt x="704" y="190" on="0"/>
        <pt x="656" y="168" on="0"/>
        <pt x="629" y="168" on="1"/>
        <pt x="601" y="168" on="0"/>
        <pt x="553" y="190" on="0"/>
        <pt x="517" y="227" on="0"/>
        <pt x="496" y="276" on="0"/>
      </contour>
    </TTGlyph>
    <TTGlyph name="divisionslash" xMin="0" yMin="-61" xMax="1380" yMax="1104">
      <contour>
        <pt x="1161" y="1104" on="1"/>
        <pt x="1380" y="1104" on="1"/>
        <pt x="219" y="-61" on="1"/>
        <pt x="0" y="-61" on="1"/>
      </contour>
    </TTGlyph>
    <TTGlyph name="dollar" xMin="123" yMin="-181" xMax="1222" yMax="1559">
      <contour>
        <pt x="384" y="-181" on="1"/>
        <pt x="461" y="154" on="1"/>
        <pt x="433" y="158" on="0"/>
        <pt x="344" y="181" on="0"/>
        <pt x="257" y="239" on="0"/>
        <pt x="209" y="318" on="0"/>
        <pt x="203" y="363" on="1"/>
        <pt x="123" y="363" on="1"/>
        <pt x="132" y="398" on="0"/>
        <pt x="149" y="465" on="0"/>
        <pt x="158" y="500" on="1"/>
        <pt x="391" y="500" on="1"/>
        <pt x="387" y="484" on="0"/>
        <pt x="379" y="454" on="0"/>
        <pt x="372" y="405" on="0"/>
        <pt x="399" y="354" on="0"/>
        <pt x="454" y="319" on="0"/>
        <pt x="538" y="302" on="0"/>
        <pt x="592" y="302" on="1"/>
        <pt x="649" y="302" on="0"/>
        <pt x="743" y="328" on="0"/>
        <pt x="812" y="375" on="0"/>
        <pt x="850" y="440" on="0"/>
        <pt x="850" y="479" on="1"/>
        <pt x="850" y="522" on="0"/>
        <pt x="792" y="577" on="0"/>
        <pt x="742" y="606" on="0"/>
        <pt x="703" y="614" on="1"/>
        <pt x="545" y="657" on="1"/>
        <pt x="492" y="671" on="0"/>
        <pt x="411" y="717" on="0"/>
        <pt x="354" y="780" on="0"/>
        <pt x="325" y="860" on="0"/>
        <pt x="325" y="907" on="1"/>
        <pt x="325" y="984" on="0"/>
        <pt x="390" y="1109" on="0"/>
        <pt x="512" y="1198" on="0"/>
        <pt x="599" y="1222" on="1"/>
        <pt x="652" y="1236" on="0"/>
        <pt x="713" y="1242" on="1"/>
        <pt x="787" y="1559" on="1"/>
        <pt x="983" y="1559" on="1"/>
        <pt x="908" y="1235" on="1"/>
        <pt x="915" y="1233" on="0"/>
        <pt x="981" y="1218" on="0"/>
        <pt x="1070" y="1169" on="0"/>
        <pt x="1129" y="1102" on="0"/>
        <pt x="1140" y="1062" on="1"/>
        <pt x="1222" y="1062" on="1"/>
        <pt x="1213" y="1027" on="0"/>
        <pt x="1196" y="960" on="0"/>
        <pt x="1187" y="925" on="1"/>
        <pt x="962" y="925" on="1"/>
        <pt x="964" y="930" on="0"/>
        <pt x="965" y="939" on="0"/>
        <pt x="975" y="981" on="0"/>
        <pt x="952" y="1036" on="0"/>
        <pt x="898" y="1074" on="0"/>
        <pt x="820" y="1094" on="0"/>
        <pt x="776" y="1094" on="1"/>
        <pt x="715" y="1094" on="0"/>
        <pt x="618" y="1069" on="0"/>
        <pt x="550" y="1026" on="0"/>
        <pt x="513" y="965" on="0"/>
        <pt x="513" y="929" on="1"/>
        <pt x="513" y="897" on="0"/>
        <pt x="542" y="856" on="0"/>
        <pt x="588" y="830" on="0"/>
        <pt x="643" y="814" on="0"/>
        <pt x="669" y="806" on="1"/>
        <pt x="822" y="757" on="1"/>
        <pt x="934" y="722" on="0"/>
        <pt x="1046" y="600" on="0"/>
        <pt x="1046" y="504" on="1"/>
        <pt x="1046" y="423" on="0"/>
        <pt x="975" y="291" on="0"/>
        <pt x="848" y="198" on="0"/>
        <pt x="711" y="159" on="0"/>
        <pt x="658" y="153" on="1"/>
        <pt x="581" y="-181" on="1"/>
      </contour>
    </TTGlyph>
    <TTGlyph name="dotaccent" xMin="292" yMin="-1733" xMax="552" yMax="-1471">
      <contour>
        <pt x="292" y="-1600" on="1"/>
        <pt x="292" y="-1574" on="0"/>
        <pt x="313" y="-1527" on="0"/>
        <pt x="348" y="-1492" on="0"/>
        <pt x="396" y="-1471" on="0"/>
        <pt x="423" y="-1471" on="1"/>
        <pt x="449" y="-1471" on="0"/>
        <pt x="496" y="-1492" on="0"/>
        <pt x="531" y="-1527" on="0"/>
        <pt x="552" y="-1574" on="0"/>
        <pt x="552" y="-1600" on="1"/>
        <pt x="552" y="-1627" on="0"/>
        <pt x="531" y="-1675" on="0"/>
        <pt x="496" y="-1712" on="0"/>
        <pt x="449" y="-1733" on="0"/>
        <pt x="423" y="-1733" on="1"/>
        <pt x="396" y="-1733" on="0"/>
        <pt x="348" y="-1712" on="0"/>
        <pt x="313" y="-1675" on="0"/>
        <pt x="292" y="-1627" on="0"/>
      </contour>
    </TTGlyph>
    <TTGlyph name="dotlessi" xMin="143" yMin="0" xMax="585" yMax="1036">
      <contour>
        <pt x="198" y="1036" on="1"/>
        <pt x="585" y="1036" on="1"/>
        <pt x="385" y="172" on="1"/>
        <pt x="551" y="172" on="1"/>
        <pt x="512" y="0" on="1"/>
        <pt x="143" y="0" on="1"/>
        <pt x="343" y="864" on="1"/>
        <pt x="157" y="864" on="1"/>
      </contour>
    </TTGlyph>
    <TTGlyph name="e" xMin="115" yMin="-31" xMax="1133" yMax="1067">
      <contour>
        <pt x="318" y="483" on="1"/>
        <pt x="317" y="469" on="0"/>
        <pt x="315" y="449" on="0"/>
        <pt x="315" y="440" on="1"/>
        <pt x="315" y="377" on="0"/>
        <pt x="356" y="269" on="0"/>
        <pt x="429" y="190" on="0"/>
        <pt x="530" y="145" on="0"/>
        <pt x="590" y="145" on="1"/>
        <pt x="670" y="145" on="0"/>
        <pt x="815" y="210" on="0"/>
        <pt x="864" y="272" on="1"/>
        <pt x="1012" y="164" on="1"/>
        <pt x="978" y="119" on="0"/>
        <pt x="884" y="47" on="0"/>
        <pt x="770" y="-4" on="0"/>
        <pt x="641" y="-31" on="0"/>
        <pt x="574" y="-31" on="1"/>
        <pt x="478" y="-31" on="0"/>
        <pt x="311" y="33" on="0"/>
        <pt x="186" y="155" on="0"/>
        <pt x="115" y="332" on="0"/>
        <pt x="115" y="444" on="1"/>
        <pt x="115" y="573" on="0"/>
        <pt x="206" y="800" on="0"/>
        <pt x="367" y="969" on="0"/>
        <pt x="587" y="1067" on="0"/>
        <pt x="715" y="1067" on="1"/>
        <pt x="814" y="1067" on="0"/>
        <pt x="969" y="1000" on="0"/>
        <pt x="1077" y="890" on="0"/>
        <pt x="1133" y="746" on="0"/>
        <pt x="1133" y="670" on="1"/>
        <pt x="1133" y="619" on="0"/>
        <pt x="1122" y="524" on="0"/>
        <pt x="1114" y="483" on="1"/>
      </contour>
      <contour>
        <pt x="688" y="897" on="1"/>
        <pt x="628" y="897" on="0"/>
        <pt x="523" y="859" on="0"/>
        <pt x="437" y="791" on="0"/>
        <pt x="371" y="699" on="0"/>
        <pt x="350" y="645" on="1"/>
        <pt x="940" y="645" on="1"/>
        <pt x="941" y="707" on="0"/>
        <pt x="906" y="802" on="0"/>
        <pt x="839" y="865" on="0"/>
        <pt x="745" y="897" on="0"/>
      </contour>
    </TTGlyph>
    <TTGlyph name="eacute" xMin="115" yMin="-31" xMax="4344" yMax="2864">
      <component glyphName="e" x="0" y="0" flags="0x204"/>
      <component glyphName="acute" x="512" y="0" flags="0x4"/>
    </TTGlyph>
    <TTGlyph name="ecaron" xMin="115" yMin="-31" xMax="3411" yMax="2801">
      <component glyphName="e" x="0" y="0" flags="0x204"/>
      <component glyphName="caron" x="430" y="0" flags="0x4"/>
    </TTGlyph>
    <TTGlyph name="ecircumflex" xMin="115" yMin="-31" xMax="2507" yMax="2403">
      <component glyphName="e" x="0" y="0" flags="0x204"/>
      <component glyphName="circumflex" x="315" y="0" flags="0x4"/>
    </TTGlyph>
    <TTGlyph name="edieresis" xMin="115" yMin="-31" xMax="2381" yMax="2448">
      <component glyphName="e" x="0" y="0" flags="0x204"/>
      <component glyphName="dieresis" x="244" y="0" flags="0x4"/>
    </TTGlyph>
    <TTGlyph name="edotaccent" xMin="115" yMin="-1253" xMax="1748" yMax="1067">
      <component glyphName="e" x="0" y="0" flags="0x204"/>
      <component glyphName="dotaccent" x="496" y="0" flags="0x4"/>
    </TTGlyph>
    <TTGlyph name="egrave" xMin="115" yMin="-31" xMax="1993" yMax="2436">
      <component glyphName="e" x="0" y="0" flags="0x4"/>
      <component glyphName="grave" x="223" y="0" flags="0x4"/>
    </TTGlyph>
    <TTGlyph name="eight" xMin="102" yMin="-16" xMax="1206" yMax="1544">
      <contour>
        <pt x="844" y="1544" on="1"/>
        <pt x="922" y="1544" on="0"/>
        <pt x="1055" y="1491" on="0"/>
        <pt x="1152" y="1397" on="0"/>
        <pt x="1206" y="1270" on="0"/>
        <pt x="1206" y="1196" on="1"/>
        <pt x="1206" y="1134" on="0"/>
        <pt x="1168" y="1020" on="0"/>
        <pt x="1100" y="921" on="0"/>
        <pt x="1007" y="839" on="0"/>
        <pt x="952" y="809" on="1"/>
        <pt x="1022" y="754" on="0"/>
        <pt x="1104" y="596" on="0"/>
        <pt x="1104" y="506" on="1"/>
        <pt x="1104" y="398" on="0"/>
        <pt x="1016" y="207" on="0"/>
        <pt x="860" y="66" on="0"/>
        <pt x="645" y="-16" on="0"/>
        <pt x="518" y="-16" on="1"/>
        <pt x="420" y="-16" on="0"/>
        <pt x="266" y="48" on="0"/>
        <pt x="159" y="158" on="0"/>
        <pt x="102" y="302" on="0"/>
        <pt x="102" y="383" on="1"/>
        <pt x="102" y="460" on="0"/>
        <pt x="152" y="601" on="0"/>
        <pt x="241" y="721" on="0"/>
        <pt x="363" y="816" on="0"/>
        <pt x="436" y="847" on="1"/>
        <pt x="386" y="895" on="0"/>
        <pt x="330" y="1022" on="0"/>
        <pt x="330" y="1092" on="1"/>
        <pt x="330" y="1185" on="0"/>
        <pt x="414" y="1350" on="0"/>
        <pt x="555" y="1473" on="0"/>
        <pt x="742" y="1544" on="0"/>
      </contour>
      <contour>
        <pt x="297" y="399" on="1"/>
        <pt x="297" y="346" on="0"/>
        <pt x="330" y="259" on="0"/>
        <pt x="393" y="198" on="0"/>
        <pt x="484" y="164" on="0"/>
        <pt x="541" y="164" on="1"/>
        <pt x="626" y="164" on="0"/>
        <pt x="763" y="219" on="0"/>
        <pt x="859" y="312" on="0"/>
        <pt x="911" y="431" on="0"/>
        <pt x="911" y="496" on="1"/>
        <pt x="911" y="544" on="0"/>
        <pt x="876" y="629" on="0"/>
        <pt x="812" y="691" on="0"/>
        <pt x="724" y="727" on="0"/>
        <pt x="670" y="727" on="1"/>
        <pt x="595" y="727" on="0"/>
        <pt x="459" y="674" on="0"/>
        <pt x="357" y="584" on="0"/>
        <pt x="297" y="465" on="0"/>
      </contour>
      <contour>
        <pt x="512" y="1098" on="1"/>
        <pt x="512" y="1057" on="0"/>
        <pt x="541" y="986" on="0"/>
        <pt x="594" y="933" on="0"/>
        <pt x="669" y="903" on="0"/>
        <pt x="715" y="903" on="1"/>
        <pt x="772" y="903" on="0"/>
        <pt x="882" y="947" on="0"/>
        <pt x="969" y="1023" on="0"/>
        <pt x="1022" y="1124" on="0"/>
        <pt x="1022" y="1180" on="1"/>
        <pt x="1022" y="1223" on="0"/>
        <pt x="994" y="1295" on="0"/>
        <pt x="943" y="1347" on="0"/>
        <pt x="869" y="1376" on="0"/>
        <pt x="823" y="1376" on="1"/>
        <pt x="761" y="1376" on="0"/>
        <pt x="649" y="1330" on="0"/>
        <pt x="563" y="1254" on="0"/>
        <pt x="512" y="1153" on="0"/>
      </contour>
    </TTGlyph>
    <TTGlyph name="ellipsis" xMin="246" yMin="-16" xMax="1776" yMax="250">
      <contour>
        <pt x="246" y="119" on="1"/>
        <pt x="246" y="146" on="0"/>
        <pt x="267" y="194" on="0"/>
        <pt x="303" y="229" on="0"/>
        <pt x="351" y="250" on="0"/>
        <pt x="379" y="250" on="1"/>
        <pt x="406" y="250" on="0"/>
        <pt x="454" y="229" on="0"/>
        <pt x="489" y="194" on="0"/>
        <pt x="510" y="146" on="0"/>
        <pt x="510" y="119" on="1"/>
        <pt x="510" y="92" on="0"/>
        <pt x="489" y="43" on="0"/>
        <pt x="454" y="6" on="0"/>
        <pt x="406" y="-16" on="0"/>
        <pt x="379" y="-16" on="1"/>
        <pt x="351" y="-16" on="0"/>
        <pt x="303" y="6" on="0"/>
        <pt x="267" y="43" on="0"/>
        <pt x="246" y="92" on="0"/>
      </contour>
      <contour>
        <pt x="879" y="119" on="1"/>
        <pt x="879" y="146" on="0"/>
        <pt x="900" y="194" on="0"/>
        <pt x="936" y="229" on="0"/>
        <pt x="984" y="250" on="0"/>
        <pt x="1012" y="250" on="1"/>
        <pt x="1039" y="250" on="0"/>
        <pt x="1087" y="229" on="0"/>
        <pt x="1122" y="194" on="0"/>
        <pt x="1143" y="146" on="0"/>
        <pt x="1143" y="119" on="1"/>
        <pt x="1143" y="92" on="0"/>
        <pt x="1122" y="43" on="0"/>
        <pt x="1087" y="6" on="0"/>
        <pt x="1039" y="-16" on="0"/>
        <pt x="1012" y="-16" on="1"/>
        <pt x="984" y="-16" on="0"/>
        <pt x="936" y="6" on="0"/>
        <pt x="900" y="43" on="0"/>
        <pt x="879" y="92" on="0"/>
      </contour>
      <contour>
        <pt x="1512" y="119" on="1"/>
        <pt x="1512" y="146" on="0"/>
        <pt x="1533" y="194" on="0"/>
        <pt x="1569" y="229" on="0"/>
        <pt x="1617" y="250" on="0"/>
        <pt x="1645" y="250" on="1"/>
        <pt x="1672" y="250" on="0"/>
        <pt x="1720" y="229" on="0"/>
        <pt x="1755" y="194" on="0"/>
        <pt x="1776" y="146" on="0"/>
        <pt x="1776" y="119" on="1"/>
        <pt x="1776" y="92" on="0"/>
        <pt x="1755" y="43" on="0"/>
        <pt x="1720" y="6" on="0"/>
        <pt x="1672" y="-16" on="0"/>
        <pt x="1645" y="-16" on="1"/>
        <pt x="1617" y="-16" on="0"/>
        <pt x="1569" y="6" on="0"/>
        <pt x="1533" y="43" on="0"/>
        <pt x="1512" y="92" on="0"/>
      </contour>
    </TTGlyph>
    <TTGlyph name="emacron" xMin="115" yMin="-31" xMax="2372" yMax="2305">
      <component glyphName="e" x="0" y="0" flags="0x204"/>
      <component glyphName="macron" x="248" y="0" flags="0x4"/>
    </TTGlyph>
    <TTGlyph name="emdash" xMin="0" yMin="485" xMax="2088" yMax="647">
      <contour>
        <pt x="40" y="647" on="1"/>
        <pt x="2088" y="647" on="1"/>
        <pt x="2048" y="485" on="1"/>
        <pt x="0" y="485" on="1"/>
      </contour>
    </TTGlyph>
    <TTGlyph name="endash" xMin="0" yMin="485" xMax="1064" yMax="647">
      <contour>
        <pt x="40" y="647" on="1"/>
        <pt x="1064" y="647" on="1"/>
        <pt x="1024" y="485" on="1"/>
        <pt x="0" y="485" on="1"/>
      </contour>
    </TTGlyph>
    <TTGlyph name="eogonek" xMin="117" yMin="-471" xMax="1135" yMax="1067">
      <contour>
        <pt x="379" y="-260" on="1"/>
        <pt x="379" y="-186" on="0"/>
        <pt x="449" y="-70" on="0"/>
        <pt x="500" y="-25" on="1"/>
        <pt x="418" y="-14" on="0"/>
        <pt x="276" y="59" on="0"/>
        <pt x="174" y="178" on="0"/>
        <pt x="117" y="342" on="0"/>
        <pt x="117" y="444" on="1"/>
        <pt x="117" y="573" on="0"/>
        <pt x="209" y="801" on="0"/>
        <pt x="369" y="969" on="0"/>
        <pt x="588" y="1067" on="0"/>
        <pt x="717" y="1067" on="1"/>
        <pt x="815" y="1067" on="0"/>
        <pt x="971" y="999" on="0"/>
        <pt x="1079" y="889" on="0"/>
        <pt x="1135" y="745" on="0"/>
        <pt x="1135" y="670" on="1"/>
        <pt x="1135" y="618" on="0"/>
        <pt x="1124" y="524" on="0"/>
        <pt x="1116" y="483" on="1"/>
        <pt x="319" y="483" on="1"/>
        <pt x="319" y="469" on="0"/>
        <pt x="317" y="451" on="0"/>
        <pt x="317" y="440" on="1"/>
        <pt x="317" y="377" on="0"/>
        <pt x="358" y="270" on="0"/>
        <pt x="432" y="190" on="0"/>
        <pt x="532" y="145" on="0"/>
        <pt x="592" y="145" on="1"/>
        <pt x="672" y="145" on="0"/>
        <pt x="817" y="211" on="0"/>
        <pt x="866" y="272" on="1"/>
        <pt x="903" y="244" on="0"/>
        <pt x="977" y="193" on="0"/>
        <pt x="1014" y="164" on="1"/>
        <pt x="940" y="66" on="0"/>
        <pt x="807" y="12" on="1"/>
        <pt x="745" y="-16" on="0"/>
        <pt x="651" y="-70" on="0"/>
        <pt x="586" y="-127" on="0"/>
        <pt x="553" y="-188" on="0"/>
        <pt x="553" y="-225" on="1"/>
        <pt x="553" y="-266" on="0"/>
        <pt x="614" y="-324" on="0"/>
        <pt x="666" y="-324" on="1"/>
        <pt x="705" y="-324" on="0"/>
        <pt x="774" y="-311" on="0"/>
        <pt x="795" y="-301" on="1"/>
        <pt x="805" y="-334" on="0"/>
        <pt x="827" y="-395" on="0"/>
        <pt x="838" y="-428" on="1"/>
        <pt x="811" y="-444" on="0"/>
        <pt x="717" y="-471" on="0"/>
        <pt x="659" y="-471" on="1"/>
        <pt x="598" y="-471" on="0"/>
        <pt x="496" y="-442" on="0"/>
        <pt x="422" y="-389" on="0"/>
        <pt x="379" y="-311" on="0"/>
      </contour>
      <contour>
        <pt x="690" y="897" on="1"/>
        <pt x="571" y="897" on="0"/>
        <pt x="393" y="754" on="0"/>
        <pt x="352" y="645" on="1"/>
        <pt x="942" y="645" on="1"/>
        <pt x="944" y="707" on="0"/>
        <pt x="907" y="801" on="0"/>
        <pt x="842" y="864" on="0"/>
        <pt x="748" y="897" on="0"/>
      </contour>
    </TTGlyph>
    <TTGlyph name="equal" xMin="130" yMin="336" xMax="1003" yMax="877">
      <contour>
        <pt x="169" y="508" on="1"/>
        <pt x="919" y="508" on="1"/>
        <pt x="880" y="336" on="1"/>
        <pt x="130" y="336" on="1"/>
      </contour>
      <contour>
        <pt x="253" y="877" on="1"/>
        <pt x="1003" y="877" on="1"/>
        <pt x="964" y="705" on="1"/>
        <pt x="214" y="705" on="1"/>
      </contour>
    </TTGlyph>
    <TTGlyph name="estimated" xMin="102" yMin="-31" xMax="1559" yMax="1300">
      <contour>
        <pt x="829" y="-31" on="1"/>
        <pt x="676" y="-31" on="0"/>
        <pt x="410" y="61" on="0"/>
        <pt x="215" y="233" on="0"/>
        <pt x="102" y="479" on="0"/>
        <pt x="102" y="633" on="1"/>
        <pt x="102" y="797" on="0"/>
        <pt x="223" y="1047" on="0"/>
        <pt x="422" y="1214" on="0"/>
        <pt x="684" y="1300" on="0"/>
        <pt x="825" y="1300" on="1"/>
        <pt x="993" y="1300" on="0"/>
        <pt x="1260" y="1202" on="0"/>
        <pt x="1448" y="1022" on="0"/>
        <pt x="1552" y="768" on="0"/>
        <pt x="1559" y="614" on="1"/>
        <pt x="399" y="614" on="1"/>
        <pt x="387" y="614" on="0"/>
        <pt x="371" y="604" on="0"/>
        <pt x="371" y="582" on="1"/>
        <pt x="371" y="244" on="1"/>
        <pt x="371" y="215" on="0"/>
        <pt x="436" y="139" on="0"/>
        <pt x="557" y="72" on="0"/>
        <pt x="725" y="23" on="0"/>
        <pt x="829" y="23" on="1"/>
        <pt x="975" y="23" on="0"/>
        <pt x="1219" y="139" on="0"/>
        <pt x="1292" y="231" on="1"/>
        <pt x="1425" y="231" on="1"/>
        <pt x="1294" y="90" on="0"/>
        <pt x="1006" y="-31" on="0"/>
        <pt x="829" y="-31" on="1"/>
      </contour>
      <contour>
        <pt x="825" y="1247" on="1"/>
        <pt x="739" y="1247" on="0"/>
        <pt x="575" y="1210" on="0"/>
        <pt x="449" y="1153" on="0"/>
        <pt x="371" y="1079" on="0"/>
        <pt x="371" y="1040" on="1"/>
        <pt x="371" y="700" on="1"/>
        <pt x="371" y="668" on="0"/>
        <pt x="401" y="668" on="1"/>
        <pt x="1253" y="668" on="1"/>
        <pt x="1276" y="668" on="0"/>
        <pt x="1288" y="684" on="0"/>
        <pt x="1288" y="700" on="1"/>
        <pt x="1288" y="1040" on="1"/>
        <pt x="1288" y="1079" on="0"/>
        <pt x="1202" y="1155" on="0"/>
        <pt x="1067" y="1212" on="0"/>
        <pt x="903" y="1247" on="0"/>
        <pt x="825" y="1247" on="1"/>
      </contour>
    </TTGlyph>
    <TTGlyph name="eth" xMin="72" yMin="-25" xMax="1146" yMax="1532">
      <contour>
        <pt x="674" y="1532" on="1"/>
        <pt x="750" y="1404" on="1"/>
        <pt x="906" y="1468" on="1"/>
        <pt x="972" y="1309" on="1"/>
        <pt x="839" y="1254" on="1"/>
        <pt x="1018" y="956" on="1"/>
        <pt x="1054" y="896" on="0"/>
        <pt x="1111" y="778" on="0"/>
        <pt x="1146" y="627" on="0"/>
        <pt x="1146" y="552" on="1"/>
        <pt x="1146" y="461" on="0"/>
        <pt x="1051" y="224" on="0"/>
        <pt x="863" y="50" on="0"/>
        <pt x="635" y="-25" on="0"/>
        <pt x="551" y="-25" on="1"/>
        <pt x="443" y="-25" on="0"/>
        <pt x="266" y="48" on="0"/>
        <pt x="141" y="176" on="0"/>
        <pt x="72" y="349" on="0"/>
        <pt x="72" y="449" on="1"/>
        <pt x="72" y="535" on="0"/>
        <pt x="115" y="693" on="0"/>
        <pt x="193" y="830" on="0"/>
        <pt x="302" y="943" on="0"/>
        <pt x="432" y="1023" on="0"/>
        <pt x="580" y="1067" on="0"/>
        <pt x="659" y="1067" on="1"/>
        <pt x="691" y="1067" on="0"/>
        <pt x="718" y="1064" on="1"/>
        <pt x="649" y="1176" on="1"/>
        <pt x="480" y="1107" on="1"/>
        <pt x="414" y="1266" on="1"/>
        <pt x="557" y="1325" on="1"/>
        <pt x="430" y="1532" on="1"/>
      </contour>
      <contour>
        <pt x="945" y="586" on="1"/>
        <pt x="945" y="652" on="0"/>
        <pt x="915" y="751" on="0"/>
        <pt x="846" y="841" on="0"/>
        <pt x="728" y="891" on="0"/>
        <pt x="662" y="891" on="1"/>
        <pt x="582" y="891" on="0"/>
        <pt x="423" y="803" on="0"/>
        <pt x="320" y="660" on="0"/>
        <pt x="281" y="516" on="0"/>
        <pt x="281" y="463" on="1"/>
        <pt x="281" y="399" on="0"/>
        <pt x="314" y="286" on="0"/>
        <pt x="382" y="201" on="0"/>
        <pt x="488" y="152" on="0"/>
        <pt x="562" y="152" on="1"/>
        <pt x="629" y="152" on="0"/>
        <pt x="766" y="212" on="0"/>
        <pt x="876" y="324" on="0"/>
        <pt x="945" y="485" on="0"/>
      </contour>
    </TTGlyph>
    <TTGlyph name="exclam" xMin="198" yMin="-16" xMax="774" yMax="1577">
      <contour>
        <pt x="514" y="1577" on="1"/>
        <pt x="774" y="1577" on="1"/>
        <pt x="462" y="410" on="1"/>
        <pt x="284" y="410" on="1"/>
      </contour>
      <contour>
        <pt x="198" y="119" on="1"/>
        <pt x="198" y="146" on="0"/>
        <pt x="219" y="194" on="0"/>
        <pt x="255" y="229" on="0"/>
        <pt x="303" y="250" on="0"/>
        <pt x="331" y="250" on="1"/>
        <pt x="358" y="250" on="0"/>
        <pt x="406" y="229" on="0"/>
        <pt x="441" y="194" on="0"/>
        <pt x="462" y="146" on="0"/>
        <pt x="462" y="119" on="1"/>
        <pt x="462" y="92" on="0"/>
        <pt x="441" y="43" on="0"/>
        <pt x="406" y="6" on="0"/>
        <pt x="358" y="-16" on="0"/>
        <pt x="331" y="-16" on="1"/>
        <pt x="303" y="-16" on="0"/>
        <pt x="255" y="6" on="0"/>
        <pt x="219" y="43" on="0"/>
        <pt x="198" y="92" on="0"/>
      </contour>
    </TTGlyph>
    <TTGlyph name="exclamdown" xMin="34" yMin="-528" xMax="610" yMax="1067">
      <contour>
        <pt x="294" y="-528" on="1"/>
        <pt x="34" y="-528" on="1"/>
        <pt x="346" y="639" on="1"/>
        <pt x="524" y="639" on="1"/>
      </contour>
      <contour>
        <pt x="346" y="936" on="1"/>
        <pt x="346" y="963" on="0"/>
        <pt x="367" y="1011" on="0"/>
        <pt x="403" y="1046" on="0"/>
        <pt x="451" y="1067" on="0"/>
        <pt x="479" y="1067" on="1"/>
        <pt x="506" y="1067" on="0"/>
        <pt x="554" y="1046" on="0"/>
        <pt x="589" y="1011" on="0"/>
        <pt x="610" y="963" on="0"/>
        <pt x="610" y="936" on="1"/>
        <pt x="610" y="909" on="0"/>
        <pt x="589" y="860" on="0"/>
        <pt x="554" y="823" on="0"/>
        <pt x="506" y="801" on="0"/>
        <pt x="479" y="801" on="1"/>
        <pt x="451" y="801" on="0"/>
        <pt x="403" y="823" on="0"/>
        <pt x="367" y="860" on="0"/>
        <pt x="346" y="909" on="0"/>
      </contour>
    </TTGlyph>
    <TTGlyph name="f" xMin="35" yMin="-471" xMax="1113" yMax="1577">
      <contour>
        <pt x="168" y="1036" on="1"/>
        <pt x="380" y="1036" on="1"/>
        <pt x="422" y="1219" on="1"/>
        <pt x="444" y="1315" on="0"/>
        <pt x="524" y="1451" on="0"/>
        <pt x="633" y="1537" on="0"/>
        <pt x="769" y="1577" on="0"/>
        <pt x="848" y="1577" on="1"/>
        <pt x="896" y="1577" on="0"/>
        <pt x="977" y="1565" on="0"/>
        <pt x="1043" y="1547" on="0"/>
        <pt x="1095" y="1526" on="0"/>
        <pt x="1113" y="1516" on="1"/>
        <pt x="1010" y="1362" on="1"/>
        <pt x="984" y="1379" on="0"/>
        <pt x="893" y="1405" on="0"/>
        <pt x="840" y="1405" on="1"/>
        <pt x="760" y="1405" on="0"/>
        <pt x="648" y="1316" on="0"/>
        <pt x="623" y="1208" on="1"/>
        <pt x="583" y="1036" on="1"/>
        <pt x="865" y="1036" on="1"/>
        <pt x="824" y="864" on="1"/>
        <pt x="544" y="864" on="1"/>
        <pt x="238" y="-471" on="1"/>
        <pt x="35" y="-471" on="1"/>
        <pt x="340" y="864" on="1"/>
        <pt x="127" y="864" on="1"/>
      </contour>
    </TTGlyph>
    <TTGlyph name="fi" xMin="35" yMin="-471" xMax="1464" yMax="1577">
      <contour>
        <pt x="168" y="1036" on="1"/>
        <pt x="379" y="1036" on="1"/>
        <pt x="422" y="1219" on="1"/>
        <pt x="467" y="1411" on="0"/>
        <pt x="690" y="1577" on="0"/>
        <pt x="848" y="1577" on="1"/>
        <pt x="944" y="1577" on="0"/>
        <pt x="1077" y="1536" on="0"/>
        <pt x="1112" y="1516" on="1"/>
        <pt x="1010" y="1362" on="1"/>
        <pt x="983" y="1378" on="0"/>
        <pt x="893" y="1405" on="0"/>
        <pt x="840" y="1405" on="1"/>
        <pt x="760" y="1405" on="0"/>
        <pt x="647" y="1317" on="0"/>
        <pt x="623" y="1208" on="1"/>
        <pt x="582" y="1036" on="1"/>
        <pt x="864" y="1036" on="1"/>
        <pt x="823" y="864" on="1"/>
        <pt x="543" y="864" on="1"/>
        <pt x="238" y="-471" on="1"/>
        <pt x="35" y="-471" on="1"/>
        <pt x="340" y="864" on="1"/>
        <pt x="127" y="864" on="1"/>
      </contour>
      <contour>
        <pt x="1010" y="1036" on="1"/>
        <pt x="1397" y="1036" on="1"/>
        <pt x="1196" y="172" on="1"/>
        <pt x="1362" y="172" on="1"/>
        <pt x="1323" y="0" on="1"/>
        <pt x="954" y="0" on="1"/>
        <pt x="1153" y="864" on="1"/>
        <pt x="969" y="864" on="1"/>
      </contour>
      <contour>
        <pt x="1200" y="1401" on="1"/>
        <pt x="1200" y="1454" on="0"/>
        <pt x="1278" y="1532" on="0"/>
        <pt x="1333" y="1532" on="1"/>
        <pt x="1360" y="1532" on="0"/>
        <pt x="1407" y="1511" on="0"/>
        <pt x="1444" y="1475" on="0"/>
        <pt x="1464" y="1427" on="0"/>
        <pt x="1464" y="1401" on="1"/>
        <pt x="1464" y="1374" on="0"/>
        <pt x="1444" y="1325" on="0"/>
        <pt x="1407" y="1288" on="0"/>
        <pt x="1360" y="1266" on="0"/>
        <pt x="1333" y="1266" on="1"/>
        <pt x="1278" y="1266" on="0"/>
        <pt x="1200" y="1348" on="0"/>
      </contour>
    </TTGlyph>
    <TTGlyph name="five" xMin="20" yMin="-31" xMax="1233" yMax="1516">
      <contour>
        <pt x="415" y="910" on="1"/>
        <pt x="471" y="941" on="0"/>
        <pt x="586" y="973" on="0"/>
        <pt x="659" y="973" on="1"/>
        <pt x="750" y="973" on="0"/>
        <pt x="908" y="913" on="0"/>
        <pt x="1024" y="802" on="0"/>
        <pt x="1090" y="646" on="0"/>
        <pt x="1090" y="551" on="1"/>
        <pt x="1090" y="455" on="0"/>
        <pt x="1041" y="295" on="0"/>
        <pt x="956" y="165" on="0"/>
        <pt x="839" y="68" on="0"/>
        <pt x="704" y="2" on="0"/>
        <pt x="556" y="-31" on="0"/>
        <pt x="481" y="-31" on="1"/>
        <pt x="388" y="-31" on="0"/>
        <pt x="232" y="19" on="0"/>
        <pt x="113" y="107" on="0"/>
        <pt x="35" y="227" on="0"/>
        <pt x="20" y="297" on="1"/>
        <pt x="203" y="375" on="1"/>
        <pt x="214" y="330" on="0"/>
        <pt x="261" y="248" on="0"/>
        <pt x="335" y="185" on="0"/>
        <pt x="435" y="147" on="0"/>
        <pt x="500" y="147" on="1"/>
        <pt x="570" y="147" on="0"/>
        <pt x="708" y="199" on="0"/>
        <pt x="818" y="298" on="0"/>
        <pt x="887" y="444" on="0"/>
        <pt x="887" y="539" on="1"/>
        <pt x="887" y="595" on="0"/>
        <pt x="849" y="691" on="0"/>
        <pt x="779" y="762" on="0"/>
        <pt x="681" y="803" on="0"/>
        <pt x="621" y="803" on="1"/>
        <pt x="540" y="803" on="0"/>
        <pt x="394" y="747" on="0"/>
        <pt x="338" y="700" on="1"/>
        <pt x="184" y="729" on="1"/>
        <pt x="369" y="1516" on="1"/>
        <pt x="1233" y="1516" on="1"/>
        <pt x="1192" y="1343" on="1"/>
        <pt x="516" y="1343" on="1"/>
      </contour>
    </TTGlyph>
    <TTGlyph name="fl" xMin="35" yMin="-471" xMax="1348" yMax="1577">
      <contour>
        <pt x="168" y="1036" on="1"/>
        <pt x="379" y="1036" on="1"/>
        <pt x="422" y="1219" on="1"/>
        <pt x="467" y="1411" on="0"/>
        <pt x="688" y="1577" on="0"/>
        <pt x="848" y="1577" on="1"/>
        <pt x="930" y="1577" on="0"/>
        <pt x="1075" y="1530" on="0"/>
        <pt x="1130" y="1491" on="1"/>
        <pt x="1145" y="1556" on="1"/>
        <pt x="1348" y="1556" on="1"/>
        <pt x="1028" y="172" on="1"/>
        <pt x="1200" y="172" on="1"/>
        <pt x="1161" y="0" on="1"/>
        <pt x="786" y="0" on="1"/>
        <pt x="1087" y="1311" on="1"/>
        <pt x="1049" y="1352" on="0"/>
        <pt x="924" y="1405" on="0"/>
        <pt x="858" y="1405" on="1"/>
        <pt x="764" y="1405" on="0"/>
        <pt x="647" y="1317" on="0"/>
        <pt x="623" y="1208" on="1"/>
        <pt x="582" y="1036" on="1"/>
        <pt x="864" y="1036" on="1"/>
        <pt x="823" y="864" on="1"/>
        <pt x="543" y="864" on="1"/>
        <pt x="238" y="-471" on="1"/>
        <pt x="35" y="-471" on="1"/>
        <pt x="340" y="864" on="1"/>
        <pt x="127" y="864" on="1"/>
      </contour>
    </TTGlyph>
    <TTGlyph name="florin" xMin="-281" yMin="-471" xMax="1198" yMax="1556">
      <contour>
        <pt x="281" y="1036" on="1"/>
        <pt x="481" y="1036" on="1"/>
        <pt x="518" y="1198" on="1"/>
        <pt x="539" y="1288" on="0"/>
        <pt x="618" y="1423" on="0"/>
        <pt x="727" y="1511" on="0"/>
        <pt x="862" y="1556" on="0"/>
        <pt x="938" y="1556" on="1"/>
        <pt x="1044" y="1556" on="0"/>
        <pt x="1163" y="1520" on="0"/>
        <pt x="1198" y="1499" on="1"/>
        <pt x="1110" y="1366" on="1"/>
        <pt x="1081" y="1382" on="0"/>
        <pt x="985" y="1407" on="0"/>
        <pt x="930" y="1407" on="1"/>
        <pt x="846" y="1407" on="0"/>
        <pt x="727" y="1305" on="0"/>
        <pt x="705" y="1204" on="1"/>
        <pt x="666" y="1036" on="1"/>
        <pt x="905" y="1036" on="1"/>
        <pt x="870" y="885" on="1"/>
        <pt x="631" y="885" on="1"/>
        <pt x="399" y="-113" on="1"/>
        <pt x="379" y="-203" on="0"/>
        <pt x="299" y="-338" on="0"/>
        <pt x="193" y="-426" on="0"/>
        <pt x="57" y="-471" on="0"/>
        <pt x="-18" y="-471" on="1"/>
        <pt x="-125" y="-471" on="0"/>
        <pt x="-246" y="-434" on="0"/>
        <pt x="-281" y="-414" on="1"/>
        <pt x="-193" y="-281" on="1"/>
        <pt x="-164" y="-297" on="0"/>
        <pt x="-66" y="-322" on="0"/>
        <pt x="-10" y="-322" on="1"/>
        <pt x="74" y="-322" on="0"/>
        <pt x="193" y="-219" on="0"/>
        <pt x="215" y="-119" on="1"/>
        <pt x="446" y="885" on="1"/>
        <pt x="246" y="885" on="1"/>
      </contour>
    </TTGlyph>
    <TTGlyph name="four" xMin="20" yMin="0" xMax="1112" yMax="1516">
      <contour>
        <pt x="59" y="596" on="1"/>
        <pt x="811" y="1516" on="1"/>
        <pt x="1042" y="1516" on="1"/>
        <pt x="298" y="610" on="1"/>
        <pt x="690" y="610" on="1"/>
        <pt x="748" y="860" on="1"/>
        <pt x="948" y="874" on="1"/>
        <pt x="887" y="610" on="1"/>
        <pt x="1112" y="610" on="1"/>
        <pt x="1071" y="438" on="1"/>
        <pt x="847" y="438" on="1"/>
        <pt x="785" y="172" on="1"/>
        <pt x="930" y="172" on="1"/>
        <pt x="891" y="0" on="1"/>
        <pt x="399" y="0" on="1"/>
        <pt x="438" y="172" on="1"/>
        <pt x="588" y="172" on="1"/>
        <pt x="650" y="438" on="1"/>
        <pt x="20" y="438" on="1"/>
      </contour>
    </TTGlyph>
    <TTGlyph name="four.fract" xMin="2293" yMin="0" xMax="2902" yMax="760">
      <contour>
        <pt x="2316" y="303" on="1"/>
        <pt x="2703" y="760" on="1"/>
        <pt x="2851" y="760" on="1"/>
        <pt x="2472" y="305" on="1"/>
        <pt x="2654" y="305" on="1"/>
        <pt x="2693" y="469" on="1"/>
        <pt x="2828" y="469" on="1"/>
        <pt x="2789" y="305" on="1"/>
        <pt x="2902" y="305" on="1"/>
        <pt x="2877" y="195" on="1"/>
        <pt x="2765" y="195" on="1"/>
        <pt x="2719" y="0" on="1"/>
        <pt x="2584" y="0" on="1"/>
        <pt x="2629" y="195" on="1"/>
        <pt x="2293" y="195" on="1"/>
      </contour>
    </TTGlyph>
    <TTGlyph name="foursuperior" xMin="20" yMin="840" xMax="629" yMax="1602">
      <contour>
        <pt x="43" y="1145" on="1"/>
        <pt x="430" y="1602" on="1"/>
        <pt x="577" y="1602" on="1"/>
        <pt x="199" y="1147" on="1"/>
        <pt x="382" y="1147" on="1"/>
        <pt x="420" y="1311" on="1"/>
        <pt x="555" y="1311" on="1"/>
        <pt x="517" y="1147" on="1"/>
        <pt x="629" y="1147" on="1"/>
        <pt x="604" y="1037" on="1"/>
        <pt x="491" y="1037" on="1"/>
        <pt x="445" y="840" on="1"/>
        <pt x="310" y="840" on="1"/>
        <pt x="356" y="1037" on="1"/>
        <pt x="20" y="1037" on="1"/>
      </contour>
    </TTGlyph>
    <TTGlyph name="fraction" xMin="-123" yMin="-61" xMax="1731" yMax="1577">
      <contour>
        <pt x="1511" y="1577" on="1"/>
        <pt x="1731" y="1577" on="1"/>
        <pt x="96" y="-61" on="1"/>
        <pt x="-123" y="-61" on="1"/>
      </contour>
    </TTGlyph>
    <TTGlyph name="g" xMin="-37" yMin="-471" xMax="1211" yMax="1063">
      <contour>
        <pt x="783" y="64" on="1"/>
        <pt x="720" y="20" on="0"/>
        <pt x="587" y="-18" on="0"/>
        <pt x="510" y="-18" on="1"/>
        <pt x="425" y="-18" on="0"/>
        <pt x="277" y="48" on="0"/>
        <pt x="168" y="162" on="0"/>
        <pt x="105" y="317" on="0"/>
        <pt x="105" y="406" on="1"/>
        <pt x="105" y="551" on="0"/>
        <pt x="207" y="793" on="0"/>
        <pt x="382" y="967" on="0"/>
        <pt x="615" y="1063" on="0"/>
        <pt x="746" y="1063" on="1"/>
        <pt x="821" y="1063" on="0"/>
        <pt x="953" y="1018" on="0"/>
        <pt x="995" y="982" on="1"/>
        <pt x="1008" y="1036" on="1"/>
        <pt x="1211" y="1036" on="1"/>
        <pt x="973" y="12" on="1"/>
        <pt x="943" y="-118" on="0"/>
        <pt x="843" y="-301" on="0"/>
        <pt x="699" y="-417" on="0"/>
        <pt x="508" y="-471" on="0"/>
        <pt x="387" y="-471" on="1"/>
        <pt x="332" y="-471" on="0"/>
        <pt x="214" y="-453" on="0"/>
        <pt x="101" y="-416" on="0"/>
        <pt x="1" y="-360" on="0"/>
        <pt x="-37" y="-322" on="1"/>
        <pt x="92" y="-176" on="1"/>
        <pt x="116" y="-202" on="0"/>
        <pt x="184" y="-245" on="0"/>
        <pt x="266" y="-277" on="0"/>
        <pt x="357" y="-295" on="0"/>
        <pt x="404" y="-295" on="1"/>
        <pt x="476" y="-295" on="0"/>
        <pt x="594" y="-264" on="0"/>
        <pt x="687" y="-187" on="0"/>
        <pt x="756" y="-56" on="0"/>
      </contour>
      <contour>
        <pt x="557" y="154" on="1"/>
        <pt x="635" y="154" on="0"/>
        <pt x="771" y="210" on="0"/>
        <pt x="828" y="258" on="1"/>
        <pt x="956" y="810" on="1"/>
        <pt x="930" y="843" on="0"/>
        <pt x="820" y="891" on="0"/>
        <pt x="731" y="891" on="1"/>
        <pt x="654" y="891" on="0"/>
        <pt x="504" y="828" on="0"/>
        <pt x="386" y="709" on="0"/>
        <pt x="312" y="536" on="0"/>
        <pt x="312" y="426" on="1"/>
        <pt x="312" y="362" on="0"/>
        <pt x="348" y="261" on="0"/>
        <pt x="412" y="191" on="0"/>
        <pt x="503" y="154" on="0"/>
      </contour>
    </TTGlyph>
    <TTGlyph name="gbreve" xMin="-37" yMin="-471" xMax="2502" yMax="2438">
      <component glyphName="g" x="0" y="0" flags="0x204"/>
      <component glyphName="breve" x="322" y="0" flags="0x4"/>
    </TTGlyph>
    <TTGlyph name="gcommaaccent" xMin="-37" yMin="-471" xMax="1211" yMax="1561">
      <component glyphName="g" x="0" y="0" flags="0x204"/>
      <component glyphName="commaaccent" x="678" y="0" flags="0x4"/>
    </TTGlyph>
    <TTGlyph name="germandbls" xMin="-48" yMin="-8" xMax="1280" yMax="1577">
      <contour>
        <pt x="-9" y="172" on="1"/>
        <pt x="186" y="172" on="1"/>
        <pt x="419" y="1180" on="1"/>
        <pt x="440" y="1272" on="0"/>
        <pt x="525" y="1419" on="0"/>
        <pt x="648" y="1522" on="0"/>
        <pt x="809" y="1577" on="0"/>
        <pt x="907" y="1577" on="1"/>
        <pt x="991" y="1577" on="0"/>
        <pt x="1128" y="1522" on="0"/>
        <pt x="1226" y="1425" on="0"/>
        <pt x="1280" y="1293" on="0"/>
        <pt x="1280" y="1217" on="1"/>
        <pt x="1280" y="1154" on="0"/>
        <pt x="1245" y="1054" on="0"/>
        <pt x="1190" y="975" on="0"/>
        <pt x="1122" y="915" on="0"/>
        <pt x="1089" y="891" on="1"/>
        <pt x="1123" y="864" on="0"/>
        <pt x="1183" y="795" on="0"/>
        <pt x="1228" y="712" on="0"/>
        <pt x="1253" y="616" on="0"/>
        <pt x="1253" y="563" on="1"/>
        <pt x="1253" y="435" on="0"/>
        <pt x="1155" y="224" on="0"/>
        <pt x="987" y="74" on="0"/>
        <pt x="761" y="-8" on="0"/>
        <pt x="634" y="-8" on="1"/>
        <pt x="614" y="-8" on="0"/>
        <pt x="560" y="-5" on="0"/>
        <pt x="540" y="-2" on="1"/>
        <pt x="583" y="182" on="1"/>
        <pt x="603" y="177" on="0"/>
        <pt x="637" y="174" on="0"/>
        <pt x="657" y="174" on="1"/>
        <pt x="732" y="174" on="0"/>
        <pt x="874" y="229" on="0"/>
        <pt x="985" y="328" on="0"/>
        <pt x="1052" y="463" on="0"/>
        <pt x="1052" y="543" on="1"/>
        <pt x="1052" y="600" on="0"/>
        <pt x="1012" y="695" on="0"/>
        <pt x="944" y="762" on="0"/>
        <pt x="854" y="799" on="0"/>
        <pt x="804" y="799" on="1"/>
        <pt x="724" y="799" on="1"/>
        <pt x="768" y="985" on="1"/>
        <pt x="843" y="985" on="1"/>
        <pt x="888" y="985" on="0"/>
        <pt x="973" y="1016" on="0"/>
        <pt x="1039" y="1074" on="0"/>
        <pt x="1079" y="1155" on="0"/>
        <pt x="1079" y="1206" on="1"/>
        <pt x="1079" y="1246" on="0"/>
        <pt x="1052" y="1314" on="0"/>
        <pt x="1001" y="1363" on="0"/>
        <pt x="928" y="1391" on="0"/>
        <pt x="882" y="1391" on="1"/>
        <pt x="834" y="1391" on="0"/>
        <pt x="748" y="1356" on="0"/>
        <pt x="678" y="1294" on="0"/>
        <pt x="628" y="1208" on="0"/>
        <pt x="616" y="1157" on="1"/>
        <pt x="350" y="0" on="1"/>
        <pt x="-48" y="0" on="1"/>
      </contour>
    </TTGlyph>
    <TTGlyph name="grave" xMin="100" yMin="1178" xMax="532" yMax="1477">
      <contour>
        <pt x="387" y="1178" on="1"/>
        <pt x="100" y="1460" on="1"/>
        <pt x="100" y="1477" on="1"/>
        <pt x="348" y="1477" on="1"/>
        <pt x="532" y="1178" on="1"/>
      </contour>
    </TTGlyph>
    <TTGlyph name="greater" xMin="-68" yMin="203" xMax="815" yMax="948">
      <contour>
        <pt x="782" y="498" on="1"/>
        <pt x="-68" y="203" on="1"/>
        <pt x="-23" y="389" on="1"/>
        <pt x="588" y="581" on="1"/>
        <pt x="67" y="784" on="1"/>
        <pt x="104" y="948" on="1"/>
        <pt x="815" y="643" on="1"/>
      </contour>
    </TTGlyph>
    <TTGlyph name="greaterequal" xMin="-10" yMin="252" xMax="899" yMax="1262">
      <contour>
        <pt x="840" y="811" on="1"/>
        <pt x="-10" y="516" on="1"/>
        <pt x="35" y="702" on="1"/>
        <pt x="647" y="893" on="1"/>
        <pt x="125" y="1098" on="1"/>
        <pt x="162" y="1262" on="1"/>
        <pt x="872" y="956" on="1"/>
      </contour>
      <contour>
        <pt x="121" y="424" on="1"/>
        <pt x="899" y="424" on="1"/>
        <pt x="860" y="252" on="1"/>
        <pt x="82" y="252" on="1"/>
      </contour>
    </TTGlyph>
    <TTGlyph name="guillemotleft" xMin="55" yMin="172" xMax="995" yMax="958">
      <contour>
        <pt x="673" y="545" on="1"/>
        <pt x="804" y="172" on="1"/>
        <pt x="618" y="172" on="1"/>
        <pt x="479" y="567" on="1"/>
        <pt x="798" y="958" on="1"/>
        <pt x="995" y="958" on="1"/>
      </contour>
      <contour>
        <pt x="249" y="545" on="1"/>
        <pt x="380" y="172" on="1"/>
        <pt x="194" y="172" on="1"/>
        <pt x="55" y="567" on="1"/>
        <pt x="374" y="958" on="1"/>
        <pt x="571" y="958" on="1"/>
      </contour>
    </TTGlyph>
    <TTGlyph name="guillemotright" xMin="14" yMin="172" xMax="954" yMax="958">
      <contour>
        <pt x="335" y="586" on="1"/>
        <pt x="204" y="958" on="1"/>
        <pt x="391" y="958" on="1"/>
        <pt x="530" y="563" on="1"/>
        <pt x="210" y="172" on="1"/>
        <pt x="14" y="172" on="1"/>
      </contour>
      <contour>
        <pt x="759" y="586" on="1"/>
        <pt x="628" y="958" on="1"/>
        <pt x="815" y="958" on="1"/>
        <pt x="954" y="563" on="1"/>
        <pt x="634" y="172" on="1"/>
        <pt x="438" y="172" on="1"/>
      </contour>
    </TTGlyph>
    <TTGlyph name="guilsinglleft" xMin="70" yMin="172" xMax="586" yMax="958">
      <contour>
        <pt x="264" y="545" on="1"/>
        <pt x="395" y="172" on="1"/>
        <pt x="209" y="172" on="1"/>
        <pt x="70" y="567" on="1"/>
        <pt x="389" y="958" on="1"/>
        <pt x="586" y="958" on="1"/>
      </contour>
    </TTGlyph>
    <TTGlyph name="guilsinglright" xMin="29" yMin="172" xMax="545" yMax="958">
      <contour>
        <pt x="350" y="586" on="1"/>
        <pt x="219" y="958" on="1"/>
        <pt x="406" y="958" on="1"/>
        <pt x="545" y="563" on="1"/>
        <pt x="225" y="172" on="1"/>
        <pt x="29" y="172" on="1"/>
      </contour>
    </TTGlyph>
    <TTGlyph name="h" xMin="105" yMin="0" xMax="1176" yMax="1556">
      <contour>
        <pt x="936" y="641" on="1"/>
        <pt x="964" y="759" on="0"/>
        <pt x="871" y="879" on="0"/>
        <pt x="762" y="879" on="1"/>
        <pt x="695" y="879" on="0"/>
        <pt x="551" y="821" on="0"/>
        <pt x="485" y="773" on="1"/>
        <pt x="307" y="0" on="1"/>
        <pt x="105" y="0" on="1"/>
        <pt x="423" y="1384" on="1"/>
        <pt x="223" y="1384" on="1"/>
        <pt x="264" y="1556" on="1"/>
        <pt x="666" y="1556" on="1"/>
        <pt x="521" y="930" on="1"/>
        <pt x="594" y="987" on="0"/>
        <pt x="760" y="1055" on="0"/>
        <pt x="848" y="1055" on="1"/>
        <pt x="928" y="1055" on="0"/>
        <pt x="1057" y="1007" on="0"/>
        <pt x="1138" y="909" on="0"/>
        <pt x="1165" y="763" on="0"/>
        <pt x="1143" y="666" on="1"/>
        <pt x="1029" y="172" on="1"/>
        <pt x="1176" y="172" on="1"/>
        <pt x="1137" y="0" on="1"/>
        <pt x="787" y="0" on="1"/>
      </contour>
    </TTGlyph>
    <TTGlyph name="hungarumlaut" xMin="32" yMin="1187" xMax="698" yMax="1508">
      <contour>
        <pt x="698" y="1508" on="1"/>
        <pt x="455" y="1187" on="1"/>
        <pt x="315" y="1187" on="1"/>
        <pt x="516" y="1508" on="1"/>
      </contour>
      <contour>
        <pt x="413" y="1508" on="1"/>
        <pt x="170" y="1187" on="1"/>
        <pt x="32" y="1187" on="1"/>
        <pt x="230" y="1508" on="1"/>
      </contour>
    </TTGlyph>
    <TTGlyph name="hyphen" xMin="137" yMin="496" xMax="748" yMax="668">
      <contour>
        <pt x="137" y="496" on="1"/>
        <pt x="177" y="668" on="1"/>
        <pt x="748" y="668" on="1"/>
        <pt x="708" y="496" on="1"/>
      </contour>
    </TTGlyph>
    <TTGlyph name="i" xMin="145" yMin="0" xMax="655" yMax="1532">
      <contour>
        <pt x="200" y="1036" on="1"/>
        <pt x="587" y="1036" on="1"/>
        <pt x="387" y="172" on="1"/>
        <pt x="553" y="172" on="1"/>
        <pt x="514" y="0" on="1"/>
        <pt x="145" y="0" on="1"/>
        <pt x="345" y="864" on="1"/>
        <pt x="159" y="864" on="1"/>
      </contour>
      <contour>
        <pt x="391" y="1401" on="1"/>
        <pt x="391" y="1428" on="0"/>
        <pt x="412" y="1476" on="0"/>
        <pt x="448" y="1511" on="0"/>
        <pt x="496" y="1532" on="0"/>
        <pt x="524" y="1532" on="1"/>
        <pt x="551" y="1532" on="0"/>
        <pt x="599" y="1511" on="0"/>
        <pt x="634" y="1476" on="0"/>
        <pt x="655" y="1428" on="0"/>
        <pt x="655" y="1401" on="1"/>
        <pt x="655" y="1374" on="0"/>
        <pt x="634" y="1325" on="0"/>
        <pt x="599" y="1288" on="0"/>
        <pt x="551" y="1266" on="0"/>
        <pt x="524" y="1266" on="1"/>
        <pt x="496" y="1266" on="0"/>
        <pt x="448" y="1288" on="0"/>
        <pt x="412" y="1325" on="0"/>
        <pt x="391" y="1374" on="0"/>
      </contour>
    </TTGlyph>
    <TTGlyph name="iacute" xMin="143" yMin="0" xMax="5122" yMax="3344">
      <component glyphName="dotlessi" x="0" y="0" flags="0x204"/>
      <component glyphName="acute" x="248" y="0" flags="0x4"/>
    </TTGlyph>
    <TTGlyph name="icircumflex" xMin="143" yMin="0" xMax="996" yMax="1924">
      <component glyphName="dotlessi" x="0" y="0" flags="0x204"/>
      <component glyphName="circumflex.i" x="51" y="0" flags="0x4"/>
    </TTGlyph>
    <TTGlyph name="idieresis" xMin="143" yMin="0" xMax="956" yMax="1969">
      <component glyphName="dotlessi" x="0" y="0" flags="0x204"/>
      <component glyphName="dieresis.i" x="-30" y="0" flags="0x4"/>
    </TTGlyph>
    <TTGlyph name="igrave" xMin="143" yMin="0" xMax="2243" yMax="2916">
      <component glyphName="dotlessi" x="0" y="0" flags="0x204"/>
      <component glyphName="grave" x="25" y="0" flags="0x4"/>
    </TTGlyph>
    <TTGlyph name="imacron" xMin="143" yMin="0" xMax="2522" yMax="2785">
      <component glyphName="dotlessi" x="0" y="0" flags="0x204"/>
      <component glyphName="macron" x="-50" y="0" flags="0x4"/>
    </TTGlyph>
    <TTGlyph name="infinity" xMin="72" yMin="373" xMax="1675" yMax="1214">
      <contour>
        <pt x="397" y="373" on="1"/>
        <pt x="324" y="373" on="0"/>
        <pt x="203" y="426" on="0"/>
        <pt x="117" y="516" on="0"/>
        <pt x="72" y="639" on="0"/>
        <pt x="72" y="711" on="1"/>
        <pt x="72" y="811" on="0"/>
        <pt x="160" y="995" on="0"/>
        <pt x="303" y="1133" on="0"/>
        <pt x="492" y="1214" on="0"/>
        <pt x="592" y="1214" on="1"/>
        <pt x="723" y="1214" on="0"/>
        <pt x="879" y="1085" on="0"/>
        <pt x="918" y="973" on="1"/>
        <pt x="1012" y="1081" on="0"/>
        <pt x="1231" y="1214" on="0"/>
        <pt x="1354" y="1214" on="1"/>
        <pt x="1427" y="1214" on="0"/>
        <pt x="1546" y="1161" on="0"/>
        <pt x="1630" y="1069" on="0"/>
        <pt x="1675" y="944" on="0"/>
        <pt x="1675" y="874" on="1"/>
        <pt x="1675" y="774" on="0"/>
        <pt x="1587" y="592" on="0"/>
        <pt x="1444" y="455" on="0"/>
        <pt x="1257" y="373" on="0"/>
        <pt x="1159" y="373" on="1"/>
        <pt x="1028" y="373" on="0"/>
        <pt x="870" y="506" on="0"/>
        <pt x="831" y="623" on="1"/>
        <pt x="741" y="512" on="0"/>
        <pt x="526" y="373" on="0"/>
      </contour>
      <contour>
        <pt x="1307" y="1053" on="1"/>
        <pt x="1198" y="1053" on="0"/>
        <pt x="1018" y="909" on="0"/>
        <pt x="954" y="803" on="1"/>
        <pt x="967" y="680" on="0"/>
        <pt x="1079" y="535" on="0"/>
        <pt x="1186" y="535" on="1"/>
        <pt x="1245" y="535" on="0"/>
        <pt x="1360" y="586" on="0"/>
        <pt x="1450" y="670" on="0"/>
        <pt x="1505" y="782" on="0"/>
        <pt x="1505" y="844" on="1"/>
        <pt x="1505" y="934" on="0"/>
        <pt x="1397" y="1053" on="0"/>
      </contour>
      <contour>
        <pt x="436" y="535" on="1"/>
        <pt x="547" y="535" on="0"/>
        <pt x="725" y="684" on="0"/>
        <pt x="797" y="807" on="1"/>
        <pt x="793" y="856" on="0"/>
        <pt x="754" y="944" on="0"/>
        <pt x="692" y="1012" on="0"/>
        <pt x="608" y="1053" on="0"/>
        <pt x="557" y="1053" on="1"/>
        <pt x="496" y="1053" on="0"/>
        <pt x="383" y="1004" on="0"/>
        <pt x="293" y="920" on="0"/>
        <pt x="240" y="807" on="0"/>
        <pt x="240" y="743" on="1"/>
        <pt x="240" y="657" on="0"/>
        <pt x="346" y="535" on="0"/>
      </contour>
    </TTGlyph>
    <TTGlyph name="integral" xMin="2" yMin="-471" xMax="1485" yMax="1577">
      <contour>
        <pt x="266" y="-471" on="1"/>
        <pt x="170" y="-471" on="0"/>
        <pt x="37" y="-430" on="0"/>
        <pt x="2" y="-410" on="1"/>
        <pt x="104" y="-256" on="1"/>
        <pt x="131" y="-272" on="0"/>
        <pt x="221" y="-299" on="0"/>
        <pt x="274" y="-299" on="1"/>
        <pt x="315" y="-299" on="0"/>
        <pt x="385" y="-274" on="0"/>
        <pt x="442" y="-211" on="0"/>
        <pt x="492" y="-104" on="0"/>
        <pt x="510" y="-20" on="1"/>
        <pt x="768" y="1104" on="1"/>
        <pt x="795" y="1231" on="0"/>
        <pt x="870" y="1411" on="0"/>
        <pt x="977" y="1524" on="0"/>
        <pt x="1122" y="1577" on="0"/>
        <pt x="1221" y="1577" on="1"/>
        <pt x="1317" y="1577" on="0"/>
        <pt x="1450" y="1536" on="0"/>
        <pt x="1485" y="1516" on="1"/>
        <pt x="1382" y="1362" on="1"/>
        <pt x="1356" y="1378" on="0"/>
        <pt x="1266" y="1405" on="0"/>
        <pt x="1212" y="1405" on="1"/>
        <pt x="1133" y="1405" on="0"/>
        <pt x="1020" y="1317" on="0"/>
        <pt x="995" y="1208" on="1"/>
        <pt x="692" y="-113" on="1"/>
        <pt x="670" y="-209" on="0"/>
        <pt x="592" y="-344" on="0"/>
        <pt x="481" y="-430" on="0"/>
        <pt x="344" y="-471" on="0"/>
      </contour>
    </TTGlyph>
    <TTGlyph name="iogonek" xMin="-12" yMin="-471" xMax="655" yMax="1532">
      <contour>
        <pt x="201" y="1036" on="1"/>
        <pt x="588" y="1036" on="1"/>
        <pt x="387" y="172" on="1"/>
        <pt x="553" y="172" on="1"/>
        <pt x="514" y="0" on="1"/>
        <pt x="444" y="0" on="1"/>
        <pt x="383" y="-2" on="0"/>
        <pt x="279" y="-43" on="0"/>
        <pt x="203" y="-109" on="0"/>
        <pt x="162" y="-186" on="0"/>
        <pt x="162" y="-225" on="1"/>
        <pt x="162" y="-266" on="0"/>
        <pt x="223" y="-324" on="0"/>
        <pt x="274" y="-324" on="1"/>
        <pt x="313" y="-324" on="0"/>
        <pt x="383" y="-311" on="0"/>
        <pt x="403" y="-301" on="1"/>
        <pt x="446" y="-428" on="1"/>
        <pt x="420" y="-444" on="0"/>
        <pt x="326" y="-471" on="0"/>
        <pt x="268" y="-471" on="1"/>
        <pt x="207" y="-471" on="0"/>
        <pt x="104" y="-442" on="0"/>
        <pt x="31" y="-389" on="0"/>
        <pt x="-12" y="-311" on="0"/>
        <pt x="-12" y="-260" on="1"/>
        <pt x="-12" y="-172" on="0"/>
        <pt x="80" y="-43" on="0"/>
        <pt x="145" y="0" on="1"/>
        <pt x="344" y="864" on="1"/>
        <pt x="160" y="864" on="1"/>
      </contour>
      <contour>
        <pt x="391" y="1401" on="1"/>
        <pt x="391" y="1454" on="0"/>
        <pt x="469" y="1532" on="0"/>
        <pt x="524" y="1532" on="1"/>
        <pt x="551" y="1532" on="0"/>
        <pt x="598" y="1511" on="0"/>
        <pt x="635" y="1475" on="0"/>
        <pt x="655" y="1427" on="0"/>
        <pt x="655" y="1401" on="1"/>
        <pt x="655" y="1374" on="0"/>
        <pt x="635" y="1325" on="0"/>
        <pt x="598" y="1288" on="0"/>
        <pt x="551" y="1266" on="0"/>
        <pt x="524" y="1266" on="1"/>
        <pt x="469" y="1266" on="0"/>
        <pt x="391" y="1348" on="0"/>
      </contour>
    </TTGlyph>
    <TTGlyph name="j" xMin="-110" yMin="-471" xMax="660" yMax="1532">
      <contour>
        <pt x="185" y="1036" on="1"/>
        <pt x="590" y="1036" on="1"/>
        <pt x="332" y="-76" on="1"/>
        <pt x="311" y="-167" on="0"/>
        <pt x="231" y="-312" on="0"/>
        <pt x="117" y="-413" on="0"/>
        <pt x="-26" y="-469" on="0"/>
        <pt x="-110" y="-471" on="1"/>
        <pt x="-94" y="-326" on="1"/>
        <pt x="-4" y="-313" on="0"/>
        <pt x="108" y="-173" on="0"/>
        <pt x="134" y="-57" on="1"/>
        <pt x="348" y="864" on="1"/>
        <pt x="144" y="864" on="1"/>
      </contour>
      <contour>
        <pt x="396" y="1401" on="1"/>
        <pt x="396" y="1428" on="0"/>
        <pt x="417" y="1476" on="0"/>
        <pt x="453" y="1511" on="0"/>
        <pt x="501" y="1532" on="0"/>
        <pt x="529" y="1532" on="1"/>
        <pt x="556" y="1532" on="0"/>
        <pt x="604" y="1511" on="0"/>
        <pt x="639" y="1476" on="0"/>
        <pt x="660" y="1428" on="0"/>
        <pt x="660" y="1401" on="1"/>
        <pt x="660" y="1374" on="0"/>
        <pt x="639" y="1325" on="0"/>
        <pt x="604" y="1288" on="0"/>
        <pt x="556" y="1266" on="0"/>
        <pt x="529" y="1266" on="1"/>
        <pt x="501" y="1266" on="0"/>
        <pt x="453" y="1288" on="0"/>
        <pt x="417" y="1325" on="0"/>
        <pt x="396" y="1374" on="0"/>
      </contour>
    </TTGlyph>
    <TTGlyph name="k" xMin="105" yMin="0" xMax="1268" yMax="1556">
      <contour>
        <pt x="279" y="1556" on="1"/>
        <pt x="666" y="1556" on="1"/>
        <pt x="443" y="592" on="1"/>
        <pt x="555" y="592" on="1"/>
        <pt x="895" y="880" on="1"/>
        <pt x="932" y="1036" on="1"/>
        <pt x="1268" y="1036" on="1"/>
        <pt x="1227" y="864" on="1"/>
        <pt x="1120" y="864" on="1"/>
        <pt x="731" y="535" on="1"/>
        <pt x="981" y="170" on="1"/>
        <pt x="1106" y="170" on="1"/>
        <pt x="1067" y="0" on="1"/>
        <pt x="848" y="0" on="1"/>
        <pt x="537" y="469" on="1"/>
        <pt x="415" y="469" on="1"/>
        <pt x="307" y="0" on="1"/>
        <pt x="105" y="0" on="1"/>
        <pt x="423" y="1384" on="1"/>
        <pt x="238" y="1384" on="1"/>
      </contour>
    </TTGlyph>
    <TTGlyph name="kcommaaccent" xMin="105" yMin="-473" xMax="1724" yMax="1556">
      <component glyphName="k" x="0" y="0" flags="0x204"/>
      <component glyphName="commabelow" x="320" y="0" flags="0x4"/>
    </TTGlyph>
    <TTGlyph name="l" xMin="105" yMin="0" xMax="666" yMax="1556">
      <contour>
        <pt x="264" y="1556" on="1"/>
        <pt x="666" y="1556" on="1"/>
        <pt x="346" y="172" on="1"/>
        <pt x="518" y="172" on="1"/>
        <pt x="479" y="0" on="1"/>
        <pt x="105" y="0" on="1"/>
        <pt x="423" y="1384" on="1"/>
        <pt x="223" y="1384" on="1"/>
      </contour>
    </TTGlyph>
    <TTGlyph name="lacute" xMin="105" yMin="0" xMax="5942" yMax="4182">
      <component glyphName="l" x="0" y="0" flags="0x204"/>
      <component glyphName="acute" x="340" y="441" flags="0x4"/>
    </TTGlyph>
    <TTGlyph name="lcaron" xMin="105" yMin="0" xMax="2995" yMax="1556">
      <component glyphName="l" x="0" y="0" flags="0x4"/>
      <component glyphName="quotesingle" x="549" y="0" flags="0x4"/>
    </TTGlyph>
    <TTGlyph name="lcommaaccent" xMin="105" yMin="-473" xMax="2224" yMax="1556">
      <component glyphName="l" x="0" y="0" flags="0x204"/>
      <component glyphName="commabelow" x="75" y="0" flags="0x4"/>
    </TTGlyph>
    <TTGlyph name="less" xMin="-7" yMin="203" xMax="876" yMax="948">
      <contour>
        <pt x="26" y="653" on="1"/>
        <pt x="876" y="948" on="1"/>
        <pt x="831" y="762" on="1"/>
        <pt x="220" y="570" on="1"/>
        <pt x="741" y="367" on="1"/>
        <pt x="704" y="203" on="1"/>
        <pt x="-7" y="508" on="1"/>
      </contour>
    </TTGlyph>
    <TTGlyph name="lessequal" xMin="121" yMin="252" xMax="1004" yMax="1260">
      <contour>
        <pt x="154" y="965" on="1"/>
        <pt x="1004" y="1260" on="1"/>
        <pt x="958" y="1073" on="1"/>
        <pt x="346" y="881" on="1"/>
        <pt x="868" y="678" on="1"/>
        <pt x="831" y="514" on="1"/>
        <pt x="121" y="819" on="1"/>
      </contour>
      <contour>
        <pt x="182" y="424" on="1"/>
        <pt x="961" y="424" on="1"/>
        <pt x="922" y="252" on="1"/>
        <pt x="143" y="252" on="1"/>
      </contour>
    </TTGlyph>
    <TTGlyph name="logicalnot" xMin="141" yMin="432" xMax="1273" yMax="999">
      <contour>
        <pt x="1273" y="999" on="1"/>
        <pt x="1142" y="432" on="1"/>
        <pt x="954" y="432" on="1"/>
        <pt x="1046" y="827" on="1"/>
        <pt x="141" y="827" on="1"/>
        <pt x="180" y="999" on="1"/>
      </contour>
    </TTGlyph>
    <TTGlyph name="lozenge" xMin="285" yMin="0" xMax="1262" yMax="1563">
      <contour>
        <pt x="285" y="793" on="1"/>
        <pt x="901" y="1563" on="1"/>
        <pt x="1001" y="1563" on="1"/>
        <pt x="1262" y="791" on="1"/>
        <pt x="631" y="0" on="1"/>
        <pt x="537" y="0" on="1"/>
      </contour>
      <contour>
        <pt x="635" y="258" on="1"/>
        <pt x="1065" y="807" on="1"/>
        <pt x="897" y="1309" on="1"/>
        <pt x="479" y="770" on="1"/>
      </contour>
    </TTGlyph>
    <TTGlyph name="lslash" xMin="-37" yMin="0" xMax="827" yMax="1556">
      <contour>
        <pt x="264" y="1556" on="1"/>
        <pt x="666" y="1556" on="1"/>
        <pt x="528" y="963" on="1"/>
        <pt x="827" y="1124" on="1"/>
        <pt x="772" y="889" on="1"/>
        <pt x="475" y="729" on="1"/>
        <pt x="346" y="172" on="1"/>
        <pt x="518" y="172" on="1"/>
        <pt x="479" y="0" on="1"/>
        <pt x="104" y="0" on="1"/>
        <pt x="244" y="604" on="1"/>
        <pt x="-37" y="455" on="1"/>
        <pt x="18" y="690" on="1"/>
        <pt x="297" y="840" on="1"/>
        <pt x="422" y="1384" on="1"/>
        <pt x="223" y="1384" on="1"/>
      </contour>
    </TTGlyph>
    <TTGlyph name="m" xMin="145" yMin="0" xMax="1900" yMax="1055">
      <contour>
        <pt x="192" y="1036" on="1"/>
        <pt x="579" y="1036" on="1"/>
        <pt x="554" y="930" on="1"/>
        <pt x="625" y="989" on="0"/>
        <pt x="794" y="1055" on="0"/>
        <pt x="888" y="1055" on="1"/>
        <pt x="994" y="1055" on="0"/>
        <pt x="1148" y="969" on="0"/>
        <pt x="1180" y="882" on="1"/>
        <pt x="1217" y="920" on="0"/>
        <pt x="1305" y="983" on="0"/>
        <pt x="1404" y="1029" on="0"/>
        <pt x="1513" y="1055" on="0"/>
        <pt x="1570" y="1055" on="1"/>
        <pt x="1650" y="1055" on="0"/>
        <pt x="1779" y="1007" on="0"/>
        <pt x="1861" y="909" on="0"/>
        <pt x="1887" y="763" on="0"/>
        <pt x="1865" y="666" on="1"/>
        <pt x="1751" y="172" on="1"/>
        <pt x="1900" y="172" on="1"/>
        <pt x="1861" y="0" on="1"/>
        <pt x="1509" y="0" on="1"/>
        <pt x="1658" y="641" on="1"/>
        <pt x="1686" y="759" on="0"/>
        <pt x="1594" y="879" on="0"/>
        <pt x="1484" y="879" on="1"/>
        <pt x="1406" y="879" on="0"/>
        <pt x="1266" y="812" on="0"/>
        <pt x="1203" y="753" on="1"/>
        <pt x="1030" y="0" on="1"/>
        <pt x="827" y="0" on="1"/>
        <pt x="976" y="641" on="1"/>
        <pt x="1004" y="759" on="0"/>
        <pt x="912" y="879" on="0"/>
        <pt x="802" y="879" on="1"/>
        <pt x="724" y="879" on="0"/>
        <pt x="584" y="812" on="0"/>
        <pt x="521" y="752" on="1"/>
        <pt x="348" y="0" on="1"/>
        <pt x="145" y="0" on="1"/>
        <pt x="345" y="864" on="1"/>
        <pt x="151" y="864" on="1"/>
      </contour>
    </TTGlyph>
    <TTGlyph name="macron" xMin="121" yMin="1229" xMax="891" yMax="1346">
      <contour>
        <pt x="864" y="1229" on="1"/>
        <pt x="121" y="1229" on="1"/>
        <pt x="147" y="1346" on="1"/>
        <pt x="891" y="1346" on="1"/>
      </contour>
    </TTGlyph>
    <TTGlyph name="macron#1" xMin="121" yMin="1229" xMax="891" yMax="1346">
      <component glyphName="macron" x="0" y="0" flags="0x204"/>
    </TTGlyph>
    <TTGlyph name="minus" xMin="123" yMin="614" xMax="1008" yMax="786">
      <contour>
        <pt x="123" y="614" on="1"/>
        <pt x="162" y="786" on="1"/>
        <pt x="1008" y="786" on="1"/>
        <pt x="969" y="614" on="1"/>
      </contour>
    </TTGlyph>
    <TTGlyph name="mu" xMin="-89" yMin="-471" xMax="1126" yMax="1036">
      <contour>
        <pt x="-89" y="-471" on="1"/>
        <pt x="260" y="1036" on="1"/>
        <pt x="460" y="1036" on="1"/>
        <pt x="325" y="453" on="1"/>
        <pt x="302" y="369" on="0"/>
        <pt x="312" y="231" on="0"/>
        <pt x="413" y="152" on="0"/>
        <pt x="505" y="150" on="1"/>
        <pt x="552" y="150" on="0"/>
        <pt x="652" y="192" on="0"/>
        <pt x="726" y="260" on="0"/>
        <pt x="751" y="299" on="1"/>
        <pt x="923" y="1036" on="1"/>
        <pt x="1124" y="1036" on="1"/>
        <pt x="924" y="172" on="1"/>
        <pt x="1126" y="172" on="1"/>
        <pt x="1087" y="0" on="1"/>
        <pt x="692" y="0" on="1"/>
        <pt x="715" y="105" on="1"/>
        <pt x="684" y="72" on="0"/>
        <pt x="610" y="25" on="0"/>
        <pt x="533" y="-5" on="0"/>
        <pt x="457" y="-18" on="0"/>
        <pt x="425" y="-18" on="1"/>
        <pt x="369" y="-18" on="0"/>
        <pt x="268" y="8" on="0"/>
        <pt x="228" y="33" on="1"/>
        <pt x="112" y="-471" on="1"/>
      </contour>
    </TTGlyph>
    <TTGlyph name="multiply" xMin="20" yMin="100" xMax="1241" yMax="1262">
      <contour>
        <pt x="510" y="702" on="1"/>
        <pt x="254" y="1128" on="1"/>
        <pt x="414" y="1245" on="1"/>
        <pt x="658" y="840" on="1"/>
        <pt x="1108" y="1262" on="1"/>
        <pt x="1241" y="1122" on="1"/>
        <pt x="761" y="670" on="1"/>
        <pt x="1034" y="219" on="1"/>
        <pt x="870" y="106" on="1"/>
        <pt x="613" y="531" on="1"/>
        <pt x="154" y="100" on="1"/>
        <pt x="20" y="242" on="1"/>
      </contour>
    </TTGlyph>
    <TTGlyph name="n" xMin="145" yMin="0" xMax="1216" yMax="1055">
      <contour>
        <pt x="188" y="1036" on="1"/>
        <pt x="579" y="1036" on="1"/>
        <pt x="554" y="930" on="1"/>
        <pt x="625" y="989" on="0"/>
        <pt x="794" y="1055" on="0"/>
        <pt x="888" y="1055" on="1"/>
        <pt x="968" y="1055" on="0"/>
        <pt x="1097" y="1007" on="0"/>
        <pt x="1179" y="909" on="0"/>
        <pt x="1205" y="763" on="0"/>
        <pt x="1183" y="666" on="1"/>
        <pt x="1069" y="172" on="1"/>
        <pt x="1216" y="172" on="1"/>
        <pt x="1177" y="0" on="1"/>
        <pt x="827" y="0" on="1"/>
        <pt x="976" y="641" on="1"/>
        <pt x="1004" y="759" on="0"/>
        <pt x="912" y="879" on="0"/>
        <pt x="802" y="879" on="1"/>
        <pt x="724" y="879" on="0"/>
        <pt x="584" y="812" on="0"/>
        <pt x="521" y="752" on="1"/>
        <pt x="348" y="0" on="1"/>
        <pt x="145" y="0" on="1"/>
        <pt x="345" y="864" on="1"/>
        <pt x="147" y="864" on="1"/>
      </contour>
    </TTGlyph>
    <TTGlyph name="nacute" xMin="145" yMin="0" xMax="7533" yMax="4662">
      <component glyphName="n" x="0" y="0" flags="0x204"/>
      <component glyphName="acute" x="649" y="0" flags="0x4"/>
    </TTGlyph>
    <TTGlyph name="napostrophe" xMin="145" yMin="0" xMax="1216" yMax="1520">
      <component glyphName="n" x="0" y="0" flags="0x204"/>
      <component glyphName="apostrophe" x="370" y="0" flags="0x4"/>
    </TTGlyph>
    <TTGlyph name="ncaron" xMin="145" yMin="0" xMax="4701" yMax="3280">
      <component glyphName="n" x="0" y="0" flags="0x204"/>
      <component glyphName="caron" x="500" y="0" flags="0x4"/>
    </TTGlyph>
    <TTGlyph name="ncommaaccent" xMin="145" yMin="-473" xMax="3164" yMax="1055">
      <component glyphName="n" x="0" y="0" flags="0x204"/>
      <component glyphName="commabelow" x="340" y="0" flags="0x4"/>
    </TTGlyph>
    <TTGlyph name="nine" xMin="184" yMin="0" xMax="1244" yMax="1530">
      <contour>
        <pt x="295" y="0" on="1"/>
        <pt x="742" y="543" on="1"/>
        <pt x="704" y="531" on="0"/>
        <pt x="647" y="526" on="0"/>
        <pt x="626" y="526" on="1"/>
        <pt x="530" y="526" on="0"/>
        <pt x="368" y="592" on="0"/>
        <pt x="250" y="707" on="0"/>
        <pt x="184" y="863" on="0"/>
        <pt x="184" y="953" on="1"/>
        <pt x="184" y="1084" on="0"/>
        <pt x="285" y="1297" on="0"/>
        <pt x="452" y="1448" on="0"/>
        <pt x="670" y="1530" on="0"/>
        <pt x="787" y="1530" on="1"/>
        <pt x="892" y="1530" on="0"/>
        <pt x="1061" y="1462" on="0"/>
        <pt x="1180" y="1345" on="0"/>
        <pt x="1244" y="1191" on="0"/>
        <pt x="1244" y="1104" on="1"/>
        <pt x="1244" y="1049" on="0"/>
        <pt x="1220" y="936" on="0"/>
        <pt x="1167" y="813" on="0"/>
        <pt x="1081" y="678" on="0"/>
        <pt x="1020" y="601" on="1"/>
        <pt x="539" y="0" on="1"/>
      </contour>
      <contour>
        <pt x="665" y="681" on="1"/>
        <pt x="786" y="681" on="0"/>
        <pt x="960" y="801" on="0"/>
        <pt x="1019" y="929" on="1"/>
        <pt x="1033" y="969" on="0"/>
        <pt x="1044" y="1051" on="0"/>
        <pt x="1044" y="1094" on="1"/>
        <pt x="1044" y="1151" on="0"/>
        <pt x="1006" y="1249" on="0"/>
        <pt x="934" y="1321" on="0"/>
        <pt x="831" y="1362" on="0"/>
        <pt x="765" y="1362" on="1"/>
        <pt x="691" y="1362" on="0"/>
        <pt x="554" y="1305" on="0"/>
        <pt x="448" y="1200" on="0"/>
        <pt x="384" y="1050" on="0"/>
        <pt x="384" y="958" on="1"/>
        <pt x="384" y="893" on="0"/>
        <pt x="430" y="791" on="0"/>
        <pt x="508" y="719" on="0"/>
        <pt x="610" y="681" on="0"/>
      </contour>
    </TTGlyph>
    <TTGlyph name="notequal" xMin="100" yMin="139" xMax="973" yMax="1049">
      <contour>
        <pt x="221" y="877" on="1"/>
        <pt x="637" y="877" on="1"/>
        <pt x="741" y="1049" on="1"/>
        <pt x="889" y="1049" on="1"/>
        <pt x="784" y="877" on="1"/>
        <pt x="973" y="877" on="1"/>
        <pt x="934" y="705" on="1"/>
        <pt x="680" y="705" on="1"/>
        <pt x="561" y="508" on="1"/>
        <pt x="889" y="508" on="1"/>
        <pt x="850" y="336" on="1"/>
        <pt x="459" y="336" on="1"/>
        <pt x="340" y="139" on="1"/>
        <pt x="193" y="139" on="1"/>
        <pt x="311" y="336" on="1"/>
        <pt x="100" y="336" on="1"/>
        <pt x="139" y="508" on="1"/>
        <pt x="414" y="508" on="1"/>
        <pt x="532" y="705" on="1"/>
        <pt x="184" y="705" on="1"/>
      </contour>
    </TTGlyph>
    <TTGlyph name="ntilde" xMin="145" yMin="0" xMax="2683" yMax="2374">
      <component glyphName="n" x="0" y="0" flags="0x204"/>
      <component glyphName="tilde" x="350" y="0" flags="0x4"/>
    </TTGlyph>
    <TTGlyph name="numbersign" xMin="34" yMin="0" xMax="1601" yMax="1497">
      <contour>
        <pt x="374" y="1184" on="1"/>
        <pt x="614" y="1184" on="1"/>
        <pt x="749" y="1497" on="1"/>
        <pt x="950" y="1497" on="1"/>
        <pt x="816" y="1184" on="1"/>
        <pt x="1174" y="1184" on="1"/>
        <pt x="1308" y="1497" on="1"/>
        <pt x="1509" y="1497" on="1"/>
        <pt x="1375" y="1184" on="1"/>
        <pt x="1601" y="1184" on="1"/>
        <pt x="1511" y="1012" on="1"/>
        <pt x="1302" y="1012" on="1"/>
        <pt x="1110" y="561" on="1"/>
        <pt x="1353" y="561" on="1"/>
        <pt x="1265" y="389" on="1"/>
        <pt x="1037" y="389" on="1"/>
        <pt x="872" y="0" on="1"/>
        <pt x="669" y="0" on="1"/>
        <pt x="835" y="389" on="1"/>
        <pt x="478" y="389" on="1"/>
        <pt x="313" y="0" on="1"/>
        <pt x="106" y="0" on="1"/>
        <pt x="273" y="389" on="1"/>
        <pt x="34" y="389" on="1"/>
        <pt x="126" y="561" on="1"/>
        <pt x="347" y="561" on="1"/>
        <pt x="540" y="1012" on="1"/>
        <pt x="284" y="1012" on="1"/>
      </contour>
      <contour>
        <pt x="551" y="561" on="1"/>
        <pt x="908" y="561" on="1"/>
        <pt x="1101" y="1012" on="1"/>
        <pt x="743" y="1012" on="1"/>
      </contour>
    </TTGlyph>
</ttFont>
